%TF.GenerationSoftware,KiCad,Pcbnew,9.0.4*%
%TF.CreationDate,2025-10-26T21:25:07+02:00*%
%TF.ProjectId,ResumeCard,52657375-6d65-4436-9172-642e6b696361,rev?*%
%TF.SameCoordinates,Original*%
%TF.FileFunction,Drillmap*%
%TF.FilePolarity,Positive*%
%FSLAX45Y45*%
G04 Gerber Fmt 4.5, Leading zero omitted, Abs format (unit mm)*
G04 Created by KiCad (PCBNEW 9.0.4) date 2025-10-26 21:25:07*
%MOMM*%
%LPD*%
G01*
G04 APERTURE LIST*
%ADD10C,0.150000*%
%ADD11C,0.200000*%
%ADD12C,0.100000*%
G04 APERTURE END LIST*
D10*
X0Y10000000D02*
X16000000Y10000000D01*
X16000000Y0D01*
X0Y0D01*
X0Y10000000D01*
D11*
D12*
X2825000Y8640000D02*
X2855000Y8610000D01*
X2855000Y8640000D02*
X2825000Y8610000D01*
X2830000Y1197500D02*
X2860000Y1167500D01*
X2860000Y1197500D02*
X2830000Y1167500D01*
X2850000Y6630000D02*
X2880000Y6600000D01*
X2880000Y6630000D02*
X2850000Y6600000D01*
X2850000Y2995000D02*
X2880000Y2965000D01*
X2880000Y2995000D02*
X2850000Y2965000D01*
X2885000Y4677500D02*
X2915000Y4647500D01*
X2915000Y4677500D02*
X2885000Y4647500D01*
X3857500Y6437500D02*
X3887500Y6407500D01*
X3887500Y6437500D02*
X3857500Y6407500D01*
X3860000Y4642500D02*
X3890000Y4612500D01*
X3890000Y4642500D02*
X3860000Y4612500D01*
X3877500Y2862500D02*
X3907500Y2832500D01*
X3907500Y2862500D02*
X3877500Y2832500D01*
X3900000Y1085000D02*
X3930000Y1055000D01*
X3930000Y1085000D02*
X3900000Y1055000D01*
X4552500Y8640000D02*
X4582500Y8610000D01*
X4582500Y8640000D02*
X4552500Y8610000D01*
X4640000Y4795000D02*
X4670000Y4765000D01*
X4670000Y4795000D02*
X4640000Y4765000D01*
X4647500Y2990000D02*
X4677500Y2960000D01*
X4677500Y2990000D02*
X4647500Y2960000D01*
X4650000Y6705000D02*
X4680000Y6675000D01*
X4680000Y6705000D02*
X4650000Y6675000D01*
X4657500Y1167500D02*
X4687500Y1137500D01*
X4687500Y1167500D02*
X4657500Y1137500D01*
X5667500Y4655000D02*
X5697500Y4625000D01*
X5697500Y4655000D02*
X5667500Y4625000D01*
X5702500Y2875000D02*
X5732500Y2845000D01*
X5732500Y2875000D02*
X5702500Y2845000D01*
X5705000Y6460000D02*
X5735000Y6430000D01*
X5735000Y6460000D02*
X5705000Y6430000D01*
X5705000Y1075000D02*
X5735000Y1045000D01*
X5735000Y1075000D02*
X5705000Y1045000D01*
X6350000Y8640000D02*
X6380000Y8610000D01*
X6380000Y8640000D02*
X6350000Y8610000D01*
X6422500Y6702500D02*
X6452500Y6672500D01*
X6452500Y6702500D02*
X6422500Y6672500D01*
X6437500Y4842500D02*
X6467500Y4812500D01*
X6467500Y4842500D02*
X6437500Y4812500D01*
X6455000Y1185000D02*
X6485000Y1155000D01*
X6485000Y1185000D02*
X6455000Y1155000D01*
X6457500Y2975000D02*
X6487500Y2945000D01*
X6487500Y2975000D02*
X6457500Y2945000D01*
X7487500Y4665000D02*
X7517500Y4635000D01*
X7517500Y4665000D02*
X7487500Y4635000D01*
X7492500Y2875000D02*
X7522500Y2845000D01*
X7522500Y2875000D02*
X7492500Y2845000D01*
X7495000Y6447500D02*
X7525000Y6417500D01*
X7525000Y6447500D02*
X7495000Y6417500D01*
X7515000Y1085000D02*
X7545000Y1055000D01*
X7545000Y1085000D02*
X7515000Y1055000D01*
X8095000Y8580000D02*
X8125000Y8550000D01*
X8125000Y8580000D02*
X8095000Y8550000D01*
X8162500Y6660000D02*
X8192500Y6630000D01*
X8192500Y6660000D02*
X8162500Y6630000D01*
X8237500Y2990000D02*
X8267500Y2960000D01*
X8267500Y2990000D02*
X8237500Y2960000D01*
X8240000Y1217500D02*
X8270000Y1187500D01*
X8270000Y1217500D02*
X8240000Y1187500D01*
X8260000Y4800000D02*
X8290000Y4770000D01*
X8290000Y4800000D02*
X8260000Y4770000D01*
X8820000Y7855000D02*
X8850000Y7825000D01*
X8850000Y7855000D02*
X8820000Y7825000D01*
X9280000Y6447500D02*
X9310000Y6417500D01*
X9310000Y6447500D02*
X9280000Y6417500D01*
X9287500Y4665000D02*
X9317500Y4635000D01*
X9317500Y4665000D02*
X9287500Y4635000D01*
X9300000Y2895000D02*
X9330000Y2865000D01*
X9330000Y2895000D02*
X9300000Y2865000D01*
X9315000Y1087500D02*
X9345000Y1057500D01*
X9345000Y1087500D02*
X9315000Y1057500D01*
X9677500Y3595000D02*
X9707500Y3565000D01*
X9707500Y3595000D02*
X9677500Y3565000D01*
X9682500Y5427500D02*
X9712500Y5397500D01*
X9712500Y5427500D02*
X9682500Y5397500D01*
X9885000Y6970000D02*
X9915000Y6940000D01*
X9915000Y6970000D02*
X9885000Y6940000D01*
X9885000Y1655000D02*
X9915000Y1625000D01*
X9915000Y1655000D02*
X9885000Y1625000D01*
X9985000Y8125000D02*
X10015000Y8095000D01*
X10015000Y8125000D02*
X9985000Y8095000D01*
X10405000Y7377500D02*
X10435000Y7347500D01*
X10435000Y7377500D02*
X10405000Y7347500D01*
X1465000Y4630000D02*
G75*
G02*
X1425000Y4630000I-20000J0D01*
G01*
X1425000Y4630000D02*
G75*
G02*
X1465000Y4630000I20000J0D01*
G01*
X1465000Y2825000D02*
G75*
G02*
X1425000Y2825000I-20000J0D01*
G01*
X1425000Y2825000D02*
G75*
G02*
X1465000Y2825000I20000J0D01*
G01*
X1470000Y8230000D02*
G75*
G02*
X1430000Y8230000I-20000J0D01*
G01*
X1430000Y8230000D02*
G75*
G02*
X1470000Y8230000I20000J0D01*
G01*
X1470000Y6420000D02*
G75*
G02*
X1430000Y6420000I-20000J0D01*
G01*
X1430000Y6420000D02*
G75*
G02*
X1470000Y6420000I20000J0D01*
G01*
X2095000Y2195000D02*
G75*
G02*
X2055000Y2195000I-20000J0D01*
G01*
X2055000Y2195000D02*
G75*
G02*
X2095000Y2195000I20000J0D01*
G01*
X2100000Y5790000D02*
G75*
G02*
X2060000Y5790000I-20000J0D01*
G01*
X2060000Y5790000D02*
G75*
G02*
X2100000Y5790000I20000J0D01*
G01*
X2120000Y7580000D02*
G75*
G02*
X2080000Y7580000I-20000J0D01*
G01*
X2080000Y7580000D02*
G75*
G02*
X2120000Y7580000I20000J0D01*
G01*
X2130000Y4000000D02*
G75*
G02*
X2090000Y4000000I-20000J0D01*
G01*
X2090000Y4000000D02*
G75*
G02*
X2130000Y4000000I20000J0D01*
G01*
X3500000Y7580000D02*
G75*
G02*
X3460000Y7580000I-20000J0D01*
G01*
X3460000Y7580000D02*
G75*
G02*
X3500000Y7580000I20000J0D01*
G01*
X3590000Y2190000D02*
G75*
G02*
X3550000Y2190000I-20000J0D01*
G01*
X3550000Y2190000D02*
G75*
G02*
X3590000Y2190000I20000J0D01*
G01*
X3600000Y5780000D02*
G75*
G02*
X3560000Y5780000I-20000J0D01*
G01*
X3560000Y5780000D02*
G75*
G02*
X3600000Y5780000I20000J0D01*
G01*
X3600000Y3980000D02*
G75*
G02*
X3560000Y3980000I-20000J0D01*
G01*
X3560000Y3980000D02*
G75*
G02*
X3600000Y3980000I20000J0D01*
G01*
X3840000Y7590000D02*
G75*
G02*
X3800000Y7590000I-20000J0D01*
G01*
X3800000Y7590000D02*
G75*
G02*
X3840000Y7590000I20000J0D01*
G01*
X3890000Y5790000D02*
G75*
G02*
X3850000Y5790000I-20000J0D01*
G01*
X3850000Y5790000D02*
G75*
G02*
X3890000Y5790000I20000J0D01*
G01*
X3950000Y3980000D02*
G75*
G02*
X3910000Y3980000I-20000J0D01*
G01*
X3910000Y3980000D02*
G75*
G02*
X3950000Y3980000I20000J0D01*
G01*
X3990000Y2200000D02*
G75*
G02*
X3950000Y2200000I-20000J0D01*
G01*
X3950000Y2200000D02*
G75*
G02*
X3990000Y2200000I20000J0D01*
G01*
X5400000Y2200000D02*
G75*
G02*
X5360000Y2200000I-20000J0D01*
G01*
X5360000Y2200000D02*
G75*
G02*
X5400000Y2200000I20000J0D01*
G01*
X5420000Y7600000D02*
G75*
G02*
X5380000Y7600000I-20000J0D01*
G01*
X5380000Y7600000D02*
G75*
G02*
X5420000Y7600000I20000J0D01*
G01*
X5420000Y4000000D02*
G75*
G02*
X5380000Y4000000I-20000J0D01*
G01*
X5380000Y4000000D02*
G75*
G02*
X5420000Y4000000I20000J0D01*
G01*
X5430000Y5780000D02*
G75*
G02*
X5390000Y5780000I-20000J0D01*
G01*
X5390000Y5780000D02*
G75*
G02*
X5430000Y5780000I20000J0D01*
G01*
X5720000Y4000000D02*
G75*
G02*
X5680000Y4000000I-20000J0D01*
G01*
X5680000Y4000000D02*
G75*
G02*
X5720000Y4000000I20000J0D01*
G01*
X5760000Y7610000D02*
G75*
G02*
X5720000Y7610000I-20000J0D01*
G01*
X5720000Y7610000D02*
G75*
G02*
X5760000Y7610000I20000J0D01*
G01*
X5770000Y2200000D02*
G75*
G02*
X5730000Y2200000I-20000J0D01*
G01*
X5730000Y2200000D02*
G75*
G02*
X5770000Y2200000I20000J0D01*
G01*
X5780000Y5780000D02*
G75*
G02*
X5740000Y5780000I-20000J0D01*
G01*
X5740000Y5780000D02*
G75*
G02*
X5780000Y5780000I20000J0D01*
G01*
X7210000Y3990000D02*
G75*
G02*
X7170000Y3990000I-20000J0D01*
G01*
X7170000Y3990000D02*
G75*
G02*
X7210000Y3990000I20000J0D01*
G01*
X7210000Y2190000D02*
G75*
G02*
X7170000Y2190000I-20000J0D01*
G01*
X7170000Y2190000D02*
G75*
G02*
X7210000Y2190000I20000J0D01*
G01*
X7220000Y7580000D02*
G75*
G02*
X7180000Y7580000I-20000J0D01*
G01*
X7180000Y7580000D02*
G75*
G02*
X7220000Y7580000I20000J0D01*
G01*
X7230000Y5790000D02*
G75*
G02*
X7190000Y5790000I-20000J0D01*
G01*
X7190000Y5790000D02*
G75*
G02*
X7230000Y5790000I20000J0D01*
G01*
X7510000Y2200000D02*
G75*
G02*
X7470000Y2200000I-20000J0D01*
G01*
X7470000Y2200000D02*
G75*
G02*
X7510000Y2200000I20000J0D01*
G01*
X7530000Y4000000D02*
G75*
G02*
X7490000Y4000000I-20000J0D01*
G01*
X7490000Y4000000D02*
G75*
G02*
X7530000Y4000000I20000J0D01*
G01*
X7550000Y5800000D02*
G75*
G02*
X7510000Y5800000I-20000J0D01*
G01*
X7510000Y5800000D02*
G75*
G02*
X7550000Y5800000I20000J0D01*
G01*
X7690000Y7590000D02*
G75*
G02*
X7650000Y7590000I-20000J0D01*
G01*
X7650000Y7590000D02*
G75*
G02*
X7690000Y7590000I20000J0D01*
G01*
X8340000Y7590000D02*
G75*
G02*
X8300000Y7590000I-20000J0D01*
G01*
X8300000Y7590000D02*
G75*
G02*
X8340000Y7590000I20000J0D01*
G01*
X8990000Y3990000D02*
G75*
G02*
X8950000Y3990000I-20000J0D01*
G01*
X8950000Y3990000D02*
G75*
G02*
X8990000Y3990000I20000J0D01*
G01*
X9010000Y5790000D02*
G75*
G02*
X8970000Y5790000I-20000J0D01*
G01*
X8970000Y5790000D02*
G75*
G02*
X9010000Y5790000I20000J0D01*
G01*
X9010000Y2190000D02*
G75*
G02*
X8970000Y2190000I-20000J0D01*
G01*
X8970000Y2190000D02*
G75*
G02*
X9010000Y2190000I20000J0D01*
G01*
X9350000Y7080000D02*
G75*
G02*
X9310000Y7080000I-20000J0D01*
G01*
X9310000Y7080000D02*
G75*
G02*
X9350000Y7080000I20000J0D01*
G01*
X9360000Y1670000D02*
G75*
G02*
X9320000Y1670000I-20000J0D01*
G01*
X9320000Y1670000D02*
G75*
G02*
X9360000Y1670000I20000J0D01*
G01*
X9370000Y5280000D02*
G75*
G02*
X9330000Y5280000I-20000J0D01*
G01*
X9330000Y5280000D02*
G75*
G02*
X9370000Y5280000I20000J0D01*
G01*
X9370000Y3470000D02*
G75*
G02*
X9330000Y3470000I-20000J0D01*
G01*
X9330000Y3470000D02*
G75*
G02*
X9370000Y3470000I20000J0D01*
G01*
X9920000Y8335000D02*
G75*
G02*
X9880000Y8335000I-20000J0D01*
G01*
X9880000Y8335000D02*
G75*
G02*
X9920000Y8335000I20000J0D01*
G01*
X11745000Y6297500D02*
G75*
G02*
X11705000Y6297500I-20000J0D01*
G01*
X11705000Y6297500D02*
G75*
G02*
X11745000Y6297500I20000J0D01*
G01*
X11760000Y5730000D02*
G75*
G02*
X11720000Y5730000I-20000J0D01*
G01*
X11720000Y5730000D02*
G75*
G02*
X11760000Y5730000I20000J0D01*
G01*
X11845000Y6190000D02*
G75*
G02*
X11805000Y6190000I-20000J0D01*
G01*
X11805000Y6190000D02*
G75*
G02*
X11845000Y6190000I20000J0D01*
G01*
X11860000Y5732500D02*
G75*
G02*
X11820000Y5732500I-20000J0D01*
G01*
X11820000Y5732500D02*
G75*
G02*
X11860000Y5732500I20000J0D01*
G01*
X11962500Y6185000D02*
G75*
G02*
X11922500Y6185000I-20000J0D01*
G01*
X11922500Y6185000D02*
G75*
G02*
X11962500Y6185000I20000J0D01*
G01*
X12015000Y5735000D02*
G75*
G02*
X11975000Y5735000I-20000J0D01*
G01*
X11975000Y5735000D02*
G75*
G02*
X12015000Y5735000I20000J0D01*
G01*
X12180000Y5735000D02*
G75*
G02*
X12140000Y5735000I-20000J0D01*
G01*
X12140000Y5735000D02*
G75*
G02*
X12180000Y5735000I20000J0D01*
G01*
X12244250Y7702500D02*
G75*
G02*
X12204250Y7702500I-20000J0D01*
G01*
X12204250Y7702500D02*
G75*
G02*
X12244250Y7702500I20000J0D01*
G01*
X12252500Y7457500D02*
G75*
G02*
X12212500Y7457500I-20000J0D01*
G01*
X12212500Y7457500D02*
G75*
G02*
X12252500Y7457500I20000J0D01*
G01*
X12265000Y7285000D02*
G75*
G02*
X12225000Y7285000I-20000J0D01*
G01*
X12225000Y7285000D02*
G75*
G02*
X12265000Y7285000I20000J0D01*
G01*
X12345000Y6767500D02*
G75*
G02*
X12305000Y6767500I-20000J0D01*
G01*
X12305000Y6767500D02*
G75*
G02*
X12345000Y6767500I20000J0D01*
G01*
X12347500Y5987500D02*
G75*
G02*
X12307500Y5987500I-20000J0D01*
G01*
X12307500Y5987500D02*
G75*
G02*
X12347500Y5987500I20000J0D01*
G01*
X12692500Y8132500D02*
G75*
G02*
X12652500Y8132500I-20000J0D01*
G01*
X12652500Y8132500D02*
G75*
G02*
X12692500Y8132500I20000J0D01*
G01*
X12697500Y7757500D02*
G75*
G02*
X12657500Y7757500I-20000J0D01*
G01*
X12657500Y7757500D02*
G75*
G02*
X12697500Y7757500I20000J0D01*
G01*
X13560000Y4010000D02*
G75*
G02*
X13520000Y4010000I-20000J0D01*
G01*
X13520000Y4010000D02*
G75*
G02*
X13560000Y4010000I20000J0D01*
G01*
X13570000Y4140000D02*
G75*
G02*
X13530000Y4140000I-20000J0D01*
G01*
X13530000Y4140000D02*
G75*
G02*
X13570000Y4140000I20000J0D01*
G01*
X13600000Y3750000D02*
G75*
G02*
X13560000Y3750000I-20000J0D01*
G01*
X13560000Y3750000D02*
G75*
G02*
X13600000Y3750000I20000J0D01*
G01*
X13600000Y3630000D02*
G75*
G02*
X13560000Y3630000I-20000J0D01*
G01*
X13560000Y3630000D02*
G75*
G02*
X13600000Y3630000I20000J0D01*
G01*
X14200000Y7620000D02*
G75*
G02*
X14160000Y7620000I-20000J0D01*
G01*
X14160000Y7620000D02*
G75*
G02*
X14200000Y7620000I20000J0D01*
G01*
X14230000Y8030000D02*
G75*
G02*
X14190000Y8030000I-20000J0D01*
G01*
X14190000Y8030000D02*
G75*
G02*
X14230000Y8030000I20000J0D01*
G01*
X14480000Y8380000D02*
G75*
G02*
X14440000Y8380000I-20000J0D01*
G01*
X14440000Y8380000D02*
G75*
G02*
X14480000Y8380000I20000J0D01*
G01*
X14630000Y8010000D02*
G75*
G02*
X14590000Y8010000I-20000J0D01*
G01*
X14590000Y8010000D02*
G75*
G02*
X14630000Y8010000I20000J0D01*
G01*
X14725123Y8133250D02*
G75*
G02*
X14685123Y8133250I-20000J0D01*
G01*
X14685123Y8133250D02*
G75*
G02*
X14725123Y8133250I20000J0D01*
G01*
X14850000Y7820000D02*
G75*
G02*
X14810000Y7820000I-20000J0D01*
G01*
X14810000Y7820000D02*
G75*
G02*
X14850000Y7820000I20000J0D01*
G01*
X14980030Y7922500D02*
G75*
G02*
X14940030Y7922500I-20000J0D01*
G01*
X14940030Y7922500D02*
G75*
G02*
X14980030Y7922500I20000J0D01*
G01*
X15220000Y8293000D02*
X15220000Y8213000D01*
X15180000Y8253000D02*
X15260000Y8253000D01*
X15180001Y8213000D02*
X15259999Y8213000D01*
X15259999Y8293000D02*
G75*
G02*
X15259999Y8213000I0J-40000D01*
G01*
X15259999Y8293000D02*
X15180001Y8293000D01*
X15180001Y8293000D02*
G75*
G03*
X15180001Y8213000I0J-40000D01*
G01*
X15220000Y7427000D02*
X15220000Y7347000D01*
X15180000Y7387000D02*
X15260000Y7387000D01*
X15179999Y7347000D02*
X15260001Y7347000D01*
X15260001Y7427000D02*
G75*
G02*
X15260001Y7347000I0J-40000D01*
G01*
X15260001Y7427000D02*
X15179999Y7427000D01*
X15179999Y7427000D02*
G75*
G03*
X15179999Y7347000I0J-40000D01*
G01*
X15638000Y8293000D02*
X15638000Y8213000D01*
X15598000Y8253000D02*
X15678000Y8253000D01*
X15608000Y8213000D02*
X15668000Y8213000D01*
X15668000Y8293000D02*
G75*
G02*
X15668000Y8213000I0J-40000D01*
G01*
X15668000Y8293000D02*
X15608000Y8293000D01*
X15608000Y8293000D02*
G75*
G03*
X15608000Y8213000I0J-40000D01*
G01*
X15638000Y7427000D02*
X15638000Y7347000D01*
X15598000Y7387000D02*
X15678000Y7387000D01*
X15608000Y7347000D02*
X15668000Y7347000D01*
X15668000Y7427000D02*
G75*
G02*
X15668000Y7347000I0J-40000D01*
G01*
X15668000Y7427000D02*
X15608000Y7427000D01*
X15608000Y7427000D02*
G75*
G03*
X15608000Y7347000I0J-40000D01*
G01*
X10783321Y6077179D02*
X10783321Y6140821D01*
X10719679Y6140821D01*
X10719679Y6077179D01*
X10783321Y6077179D01*
X10783321Y5823179D02*
X10783321Y5886821D01*
X10719679Y5886821D01*
X10719679Y5823179D01*
X10783321Y5823179D01*
X10783321Y5569179D02*
X10783321Y5632821D01*
X10719679Y5632821D01*
X10719679Y5569179D01*
X10783321Y5569179D01*
X10783321Y5315179D02*
X10783321Y5378821D01*
X10719679Y5378821D01*
X10719679Y5315179D01*
X10783321Y5315179D01*
X10783321Y5061179D02*
X10783321Y5124821D01*
X10719679Y5124821D01*
X10719679Y5061179D01*
X10783321Y5061179D01*
X10783321Y4807179D02*
X10783321Y4870821D01*
X10719679Y4870821D01*
X10719679Y4807179D01*
X10783321Y4807179D01*
X10783321Y4553179D02*
X10783321Y4616821D01*
X10719679Y4616821D01*
X10719679Y4553179D01*
X10783321Y4553179D01*
X10783321Y4299179D02*
X10783321Y4362821D01*
X10719679Y4362821D01*
X10719679Y4299179D01*
X10783321Y4299179D01*
X10783321Y4045179D02*
X10783321Y4108821D01*
X10719679Y4108821D01*
X10719679Y4045179D01*
X10783321Y4045179D01*
X10783321Y3791179D02*
X10783321Y3854821D01*
X10719679Y3854821D01*
X10719679Y3791179D01*
X10783321Y3791179D01*
X11545321Y6077179D02*
X11545321Y6140821D01*
X11481679Y6140821D01*
X11481679Y6077179D01*
X11545321Y6077179D01*
X11545321Y5823179D02*
X11545321Y5886821D01*
X11481679Y5886821D01*
X11481679Y5823179D01*
X11545321Y5823179D01*
X11545321Y5569179D02*
X11545321Y5632821D01*
X11481679Y5632821D01*
X11481679Y5569179D01*
X11545321Y5569179D01*
X11545321Y5315179D02*
X11545321Y5378821D01*
X11481679Y5378821D01*
X11481679Y5315179D01*
X11545321Y5315179D01*
X11545321Y5061179D02*
X11545321Y5124821D01*
X11481679Y5124821D01*
X11481679Y5061179D01*
X11545321Y5061179D01*
X11545321Y4807179D02*
X11545321Y4870821D01*
X11481679Y4870821D01*
X11481679Y4807179D01*
X11545321Y4807179D01*
X11545321Y4553179D02*
X11545321Y4616821D01*
X11481679Y4616821D01*
X11481679Y4553179D01*
X11545321Y4553179D01*
X11545321Y4299179D02*
X11545321Y4362821D01*
X11481679Y4362821D01*
X11481679Y4299179D01*
X11545321Y4299179D01*
X11545321Y4045179D02*
X11545321Y4108821D01*
X11481679Y4108821D01*
X11481679Y4045179D01*
X11545321Y4045179D01*
X11545321Y3791179D02*
X11545321Y3854821D01*
X11481679Y3854821D01*
X11481679Y3791179D01*
X11545321Y3791179D01*
X13485500Y7461500D02*
X13535500Y7511500D01*
X13485500Y7561500D01*
X13435500Y7511500D01*
X13485500Y7461500D01*
X13739500Y7461500D02*
X13789500Y7511500D01*
X13739500Y7561500D01*
X13689500Y7511500D01*
X13739500Y7461500D01*
X2075000Y7980000D02*
X2175000Y7880000D01*
X2175000Y7980000D02*
X2075000Y7880000D01*
X2175000Y7930000D02*
G75*
G02*
X2075000Y7930000I-50000J0D01*
G01*
X2075000Y7930000D02*
G75*
G02*
X2175000Y7930000I50000J0D01*
G01*
X2075000Y6180000D02*
X2175000Y6080000D01*
X2175000Y6180000D02*
X2075000Y6080000D01*
X2175000Y6130000D02*
G75*
G02*
X2075000Y6130000I-50000J0D01*
G01*
X2075000Y6130000D02*
G75*
G02*
X2175000Y6130000I50000J0D01*
G01*
X2075000Y4380000D02*
X2175000Y4280000D01*
X2175000Y4380000D02*
X2075000Y4280000D01*
X2175000Y4330000D02*
G75*
G02*
X2075000Y4330000I-50000J0D01*
G01*
X2075000Y4330000D02*
G75*
G02*
X2175000Y4330000I50000J0D01*
G01*
X2075000Y2580000D02*
X2175000Y2480000D01*
X2175000Y2580000D02*
X2075000Y2480000D01*
X2175000Y2530000D02*
G75*
G02*
X2075000Y2530000I-50000J0D01*
G01*
X2075000Y2530000D02*
G75*
G02*
X2175000Y2530000I50000J0D01*
G01*
X2075000Y780000D02*
X2175000Y680000D01*
X2175000Y780000D02*
X2075000Y680000D01*
X2175000Y730000D02*
G75*
G02*
X2075000Y730000I-50000J0D01*
G01*
X2075000Y730000D02*
G75*
G02*
X2175000Y730000I50000J0D01*
G01*
X2329000Y7980000D02*
X2429000Y7880000D01*
X2429000Y7980000D02*
X2329000Y7880000D01*
X2429000Y7930000D02*
G75*
G02*
X2329000Y7930000I-50000J0D01*
G01*
X2329000Y7930000D02*
G75*
G02*
X2429000Y7930000I50000J0D01*
G01*
X2329000Y6180000D02*
X2429000Y6080000D01*
X2429000Y6180000D02*
X2329000Y6080000D01*
X2429000Y6130000D02*
G75*
G02*
X2329000Y6130000I-50000J0D01*
G01*
X2329000Y6130000D02*
G75*
G02*
X2429000Y6130000I50000J0D01*
G01*
X2329000Y4380000D02*
X2429000Y4280000D01*
X2429000Y4380000D02*
X2329000Y4280000D01*
X2429000Y4330000D02*
G75*
G02*
X2329000Y4330000I-50000J0D01*
G01*
X2329000Y4330000D02*
G75*
G02*
X2429000Y4330000I50000J0D01*
G01*
X2329000Y2580000D02*
X2429000Y2480000D01*
X2429000Y2580000D02*
X2329000Y2480000D01*
X2429000Y2530000D02*
G75*
G02*
X2329000Y2530000I-50000J0D01*
G01*
X2329000Y2530000D02*
G75*
G02*
X2429000Y2530000I50000J0D01*
G01*
X2329000Y780000D02*
X2429000Y680000D01*
X2429000Y780000D02*
X2329000Y680000D01*
X2429000Y730000D02*
G75*
G02*
X2329000Y730000I-50000J0D01*
G01*
X2329000Y730000D02*
G75*
G02*
X2429000Y730000I50000J0D01*
G01*
X3875000Y7980000D02*
X3975000Y7880000D01*
X3975000Y7980000D02*
X3875000Y7880000D01*
X3975000Y7930000D02*
G75*
G02*
X3875000Y7930000I-50000J0D01*
G01*
X3875000Y7930000D02*
G75*
G02*
X3975000Y7930000I50000J0D01*
G01*
X3875000Y6180000D02*
X3975000Y6080000D01*
X3975000Y6180000D02*
X3875000Y6080000D01*
X3975000Y6130000D02*
G75*
G02*
X3875000Y6130000I-50000J0D01*
G01*
X3875000Y6130000D02*
G75*
G02*
X3975000Y6130000I50000J0D01*
G01*
X3875000Y4380000D02*
X3975000Y4280000D01*
X3975000Y4380000D02*
X3875000Y4280000D01*
X3975000Y4330000D02*
G75*
G02*
X3875000Y4330000I-50000J0D01*
G01*
X3875000Y4330000D02*
G75*
G02*
X3975000Y4330000I50000J0D01*
G01*
X3875000Y2580000D02*
X3975000Y2480000D01*
X3975000Y2580000D02*
X3875000Y2480000D01*
X3975000Y2530000D02*
G75*
G02*
X3875000Y2530000I-50000J0D01*
G01*
X3875000Y2530000D02*
G75*
G02*
X3975000Y2530000I50000J0D01*
G01*
X3875000Y780000D02*
X3975000Y680000D01*
X3975000Y780000D02*
X3875000Y680000D01*
X3975000Y730000D02*
G75*
G02*
X3875000Y730000I-50000J0D01*
G01*
X3875000Y730000D02*
G75*
G02*
X3975000Y730000I50000J0D01*
G01*
X4129000Y7980000D02*
X4229000Y7880000D01*
X4229000Y7980000D02*
X4129000Y7880000D01*
X4229000Y7930000D02*
G75*
G02*
X4129000Y7930000I-50000J0D01*
G01*
X4129000Y7930000D02*
G75*
G02*
X4229000Y7930000I50000J0D01*
G01*
X4129000Y6180000D02*
X4229000Y6080000D01*
X4229000Y6180000D02*
X4129000Y6080000D01*
X4229000Y6130000D02*
G75*
G02*
X4129000Y6130000I-50000J0D01*
G01*
X4129000Y6130000D02*
G75*
G02*
X4229000Y6130000I50000J0D01*
G01*
X4129000Y4380000D02*
X4229000Y4280000D01*
X4229000Y4380000D02*
X4129000Y4280000D01*
X4229000Y4330000D02*
G75*
G02*
X4129000Y4330000I-50000J0D01*
G01*
X4129000Y4330000D02*
G75*
G02*
X4229000Y4330000I50000J0D01*
G01*
X4129000Y2580000D02*
X4229000Y2480000D01*
X4229000Y2580000D02*
X4129000Y2480000D01*
X4229000Y2530000D02*
G75*
G02*
X4129000Y2530000I-50000J0D01*
G01*
X4129000Y2530000D02*
G75*
G02*
X4229000Y2530000I50000J0D01*
G01*
X4129000Y780000D02*
X4229000Y680000D01*
X4229000Y780000D02*
X4129000Y680000D01*
X4229000Y730000D02*
G75*
G02*
X4129000Y730000I-50000J0D01*
G01*
X4129000Y730000D02*
G75*
G02*
X4229000Y730000I50000J0D01*
G01*
X5675000Y7980000D02*
X5775000Y7880000D01*
X5775000Y7980000D02*
X5675000Y7880000D01*
X5775000Y7930000D02*
G75*
G02*
X5675000Y7930000I-50000J0D01*
G01*
X5675000Y7930000D02*
G75*
G02*
X5775000Y7930000I50000J0D01*
G01*
X5675000Y6180000D02*
X5775000Y6080000D01*
X5775000Y6180000D02*
X5675000Y6080000D01*
X5775000Y6130000D02*
G75*
G02*
X5675000Y6130000I-50000J0D01*
G01*
X5675000Y6130000D02*
G75*
G02*
X5775000Y6130000I50000J0D01*
G01*
X5675000Y4380000D02*
X5775000Y4280000D01*
X5775000Y4380000D02*
X5675000Y4280000D01*
X5775000Y4330000D02*
G75*
G02*
X5675000Y4330000I-50000J0D01*
G01*
X5675000Y4330000D02*
G75*
G02*
X5775000Y4330000I50000J0D01*
G01*
X5675000Y2580000D02*
X5775000Y2480000D01*
X5775000Y2580000D02*
X5675000Y2480000D01*
X5775000Y2530000D02*
G75*
G02*
X5675000Y2530000I-50000J0D01*
G01*
X5675000Y2530000D02*
G75*
G02*
X5775000Y2530000I50000J0D01*
G01*
X5675000Y780000D02*
X5775000Y680000D01*
X5775000Y780000D02*
X5675000Y680000D01*
X5775000Y730000D02*
G75*
G02*
X5675000Y730000I-50000J0D01*
G01*
X5675000Y730000D02*
G75*
G02*
X5775000Y730000I50000J0D01*
G01*
X5929000Y7980000D02*
X6029000Y7880000D01*
X6029000Y7980000D02*
X5929000Y7880000D01*
X6029000Y7930000D02*
G75*
G02*
X5929000Y7930000I-50000J0D01*
G01*
X5929000Y7930000D02*
G75*
G02*
X6029000Y7930000I50000J0D01*
G01*
X5929000Y6180000D02*
X6029000Y6080000D01*
X6029000Y6180000D02*
X5929000Y6080000D01*
X6029000Y6130000D02*
G75*
G02*
X5929000Y6130000I-50000J0D01*
G01*
X5929000Y6130000D02*
G75*
G02*
X6029000Y6130000I50000J0D01*
G01*
X5929000Y4380000D02*
X6029000Y4280000D01*
X6029000Y4380000D02*
X5929000Y4280000D01*
X6029000Y4330000D02*
G75*
G02*
X5929000Y4330000I-50000J0D01*
G01*
X5929000Y4330000D02*
G75*
G02*
X6029000Y4330000I50000J0D01*
G01*
X5929000Y2580000D02*
X6029000Y2480000D01*
X6029000Y2580000D02*
X5929000Y2480000D01*
X6029000Y2530000D02*
G75*
G02*
X5929000Y2530000I-50000J0D01*
G01*
X5929000Y2530000D02*
G75*
G02*
X6029000Y2530000I50000J0D01*
G01*
X5929000Y780000D02*
X6029000Y680000D01*
X6029000Y780000D02*
X5929000Y680000D01*
X6029000Y730000D02*
G75*
G02*
X5929000Y730000I-50000J0D01*
G01*
X5929000Y730000D02*
G75*
G02*
X6029000Y730000I50000J0D01*
G01*
X7475000Y7980000D02*
X7575000Y7880000D01*
X7575000Y7980000D02*
X7475000Y7880000D01*
X7575000Y7930000D02*
G75*
G02*
X7475000Y7930000I-50000J0D01*
G01*
X7475000Y7930000D02*
G75*
G02*
X7575000Y7930000I50000J0D01*
G01*
X7475000Y6180000D02*
X7575000Y6080000D01*
X7575000Y6180000D02*
X7475000Y6080000D01*
X7575000Y6130000D02*
G75*
G02*
X7475000Y6130000I-50000J0D01*
G01*
X7475000Y6130000D02*
G75*
G02*
X7575000Y6130000I50000J0D01*
G01*
X7475000Y4380000D02*
X7575000Y4280000D01*
X7575000Y4380000D02*
X7475000Y4280000D01*
X7575000Y4330000D02*
G75*
G02*
X7475000Y4330000I-50000J0D01*
G01*
X7475000Y4330000D02*
G75*
G02*
X7575000Y4330000I50000J0D01*
G01*
X7475000Y2580000D02*
X7575000Y2480000D01*
X7575000Y2580000D02*
X7475000Y2480000D01*
X7575000Y2530000D02*
G75*
G02*
X7475000Y2530000I-50000J0D01*
G01*
X7475000Y2530000D02*
G75*
G02*
X7575000Y2530000I50000J0D01*
G01*
X7475000Y780000D02*
X7575000Y680000D01*
X7575000Y780000D02*
X7475000Y680000D01*
X7575000Y730000D02*
G75*
G02*
X7475000Y730000I-50000J0D01*
G01*
X7475000Y730000D02*
G75*
G02*
X7575000Y730000I50000J0D01*
G01*
X7729000Y7980000D02*
X7829000Y7880000D01*
X7829000Y7980000D02*
X7729000Y7880000D01*
X7829000Y7930000D02*
G75*
G02*
X7729000Y7930000I-50000J0D01*
G01*
X7729000Y7930000D02*
G75*
G02*
X7829000Y7930000I50000J0D01*
G01*
X7729000Y6180000D02*
X7829000Y6080000D01*
X7829000Y6180000D02*
X7729000Y6080000D01*
X7829000Y6130000D02*
G75*
G02*
X7729000Y6130000I-50000J0D01*
G01*
X7729000Y6130000D02*
G75*
G02*
X7829000Y6130000I50000J0D01*
G01*
X7729000Y4380000D02*
X7829000Y4280000D01*
X7829000Y4380000D02*
X7729000Y4280000D01*
X7829000Y4330000D02*
G75*
G02*
X7729000Y4330000I-50000J0D01*
G01*
X7729000Y4330000D02*
G75*
G02*
X7829000Y4330000I50000J0D01*
G01*
X7729000Y2580000D02*
X7829000Y2480000D01*
X7829000Y2580000D02*
X7729000Y2480000D01*
X7829000Y2530000D02*
G75*
G02*
X7729000Y2530000I-50000J0D01*
G01*
X7729000Y2530000D02*
G75*
G02*
X7829000Y2530000I50000J0D01*
G01*
X7729000Y780000D02*
X7829000Y680000D01*
X7829000Y780000D02*
X7729000Y680000D01*
X7829000Y730000D02*
G75*
G02*
X7729000Y730000I-50000J0D01*
G01*
X7729000Y730000D02*
G75*
G02*
X7829000Y730000I50000J0D01*
G01*
X9275000Y7980000D02*
X9375000Y7880000D01*
X9375000Y7980000D02*
X9275000Y7880000D01*
X9375000Y7930000D02*
G75*
G02*
X9275000Y7930000I-50000J0D01*
G01*
X9275000Y7930000D02*
G75*
G02*
X9375000Y7930000I50000J0D01*
G01*
X9275000Y6180000D02*
X9375000Y6080000D01*
X9375000Y6180000D02*
X9275000Y6080000D01*
X9375000Y6130000D02*
G75*
G02*
X9275000Y6130000I-50000J0D01*
G01*
X9275000Y6130000D02*
G75*
G02*
X9375000Y6130000I50000J0D01*
G01*
X9275000Y4380000D02*
X9375000Y4280000D01*
X9375000Y4380000D02*
X9275000Y4280000D01*
X9375000Y4330000D02*
G75*
G02*
X9275000Y4330000I-50000J0D01*
G01*
X9275000Y4330000D02*
G75*
G02*
X9375000Y4330000I50000J0D01*
G01*
X9275000Y2580000D02*
X9375000Y2480000D01*
X9375000Y2580000D02*
X9275000Y2480000D01*
X9375000Y2530000D02*
G75*
G02*
X9275000Y2530000I-50000J0D01*
G01*
X9275000Y2530000D02*
G75*
G02*
X9375000Y2530000I50000J0D01*
G01*
X9275000Y780000D02*
X9375000Y680000D01*
X9375000Y780000D02*
X9275000Y680000D01*
X9375000Y730000D02*
G75*
G02*
X9275000Y730000I-50000J0D01*
G01*
X9275000Y730000D02*
G75*
G02*
X9375000Y730000I50000J0D01*
G01*
X9529000Y7980000D02*
X9629000Y7880000D01*
X9629000Y7980000D02*
X9529000Y7880000D01*
X9629000Y7930000D02*
G75*
G02*
X9529000Y7930000I-50000J0D01*
G01*
X9529000Y7930000D02*
G75*
G02*
X9629000Y7930000I50000J0D01*
G01*
X9529000Y6180000D02*
X9629000Y6080000D01*
X9629000Y6180000D02*
X9529000Y6080000D01*
X9629000Y6130000D02*
G75*
G02*
X9529000Y6130000I-50000J0D01*
G01*
X9529000Y6130000D02*
G75*
G02*
X9629000Y6130000I50000J0D01*
G01*
X9529000Y4380000D02*
X9629000Y4280000D01*
X9629000Y4380000D02*
X9529000Y4280000D01*
X9629000Y4330000D02*
G75*
G02*
X9529000Y4330000I-50000J0D01*
G01*
X9529000Y4330000D02*
G75*
G02*
X9629000Y4330000I50000J0D01*
G01*
X9529000Y2580000D02*
X9629000Y2480000D01*
X9629000Y2580000D02*
X9529000Y2480000D01*
X9629000Y2530000D02*
G75*
G02*
X9529000Y2530000I-50000J0D01*
G01*
X9529000Y2530000D02*
G75*
G02*
X9629000Y2530000I50000J0D01*
G01*
X9529000Y780000D02*
X9629000Y680000D01*
X9629000Y780000D02*
X9529000Y680000D01*
X9629000Y730000D02*
G75*
G02*
X9529000Y730000I-50000J0D01*
G01*
X9529000Y730000D02*
G75*
G02*
X9629000Y730000I50000J0D01*
G01*
X10852500Y7530000D02*
X10952500Y7430000D01*
X10952500Y7530000D02*
X10852500Y7430000D01*
X10952500Y7480000D02*
G75*
G02*
X10852500Y7480000I-50000J0D01*
G01*
X10852500Y7480000D02*
G75*
G02*
X10952500Y7480000I50000J0D01*
G01*
X10852500Y6880000D02*
X10952500Y6780000D01*
X10952500Y6880000D02*
X10852500Y6780000D01*
X10952500Y6830000D02*
G75*
G02*
X10852500Y6830000I-50000J0D01*
G01*
X10852500Y6830000D02*
G75*
G02*
X10952500Y6830000I50000J0D01*
G01*
X11302500Y7530000D02*
X11402500Y7430000D01*
X11402500Y7530000D02*
X11302500Y7430000D01*
X11402500Y7480000D02*
G75*
G02*
X11302500Y7480000I-50000J0D01*
G01*
X11302500Y7480000D02*
G75*
G02*
X11402500Y7480000I50000J0D01*
G01*
X11302500Y6880000D02*
X11402500Y6780000D01*
X11402500Y6880000D02*
X11302500Y6780000D01*
X11402500Y6830000D02*
G75*
G02*
X11302500Y6830000I-50000J0D01*
G01*
X11302500Y6830000D02*
G75*
G02*
X11402500Y6830000I50000J0D01*
G01*
X12215000Y9510000D02*
X12315000Y9410000D01*
X12315000Y9510000D02*
X12215000Y9410000D01*
X12315000Y9460000D02*
G75*
G02*
X12215000Y9460000I-50000J0D01*
G01*
X12215000Y9460000D02*
G75*
G02*
X12315000Y9460000I50000J0D01*
G01*
X12469000Y9510000D02*
X12569000Y9410000D01*
X12569000Y9510000D02*
X12469000Y9410000D01*
X12569000Y9460000D02*
G75*
G02*
X12469000Y9460000I-50000J0D01*
G01*
X12469000Y9460000D02*
G75*
G02*
X12569000Y9460000I50000J0D01*
G01*
X12723000Y9510000D02*
X12823000Y9410000D01*
X12823000Y9510000D02*
X12723000Y9410000D01*
X12823000Y9460000D02*
G75*
G02*
X12723000Y9460000I-50000J0D01*
G01*
X12723000Y9460000D02*
G75*
G02*
X12823000Y9460000I50000J0D01*
G01*
X12977000Y9510000D02*
X13077000Y9410000D01*
X13077000Y9510000D02*
X12977000Y9410000D01*
X13077000Y9460000D02*
G75*
G02*
X12977000Y9460000I-50000J0D01*
G01*
X12977000Y9460000D02*
G75*
G02*
X13077000Y9460000I50000J0D01*
G01*
X13231000Y9510000D02*
X13331000Y9410000D01*
X13331000Y9510000D02*
X13231000Y9410000D01*
X13331000Y9460000D02*
G75*
G02*
X13231000Y9460000I-50000J0D01*
G01*
X13231000Y9460000D02*
G75*
G02*
X13331000Y9460000I50000J0D01*
G01*
X13485000Y9510000D02*
X13585000Y9410000D01*
X13585000Y9510000D02*
X13485000Y9410000D01*
X13585000Y9460000D02*
G75*
G02*
X13485000Y9460000I-50000J0D01*
G01*
X13485000Y9460000D02*
G75*
G02*
X13585000Y9460000I50000J0D01*
G01*
D11*
X253277Y-318984D02*
X253277Y-118984D01*
X253277Y-118984D02*
X300896Y-118984D01*
X300896Y-118984D02*
X329467Y-128508D01*
X329467Y-128508D02*
X348515Y-147555D01*
X348515Y-147555D02*
X358039Y-166603D01*
X358039Y-166603D02*
X367562Y-204698D01*
X367562Y-204698D02*
X367562Y-233269D01*
X367562Y-233269D02*
X358039Y-271365D01*
X358039Y-271365D02*
X348515Y-290412D01*
X348515Y-290412D02*
X329467Y-309460D01*
X329467Y-309460D02*
X300896Y-318984D01*
X300896Y-318984D02*
X253277Y-318984D01*
X453277Y-318984D02*
X453277Y-185650D01*
X453277Y-223746D02*
X462801Y-204698D01*
X462801Y-204698D02*
X472324Y-195174D01*
X472324Y-195174D02*
X491372Y-185650D01*
X491372Y-185650D02*
X510420Y-185650D01*
X577086Y-318984D02*
X577086Y-185650D01*
X577086Y-118984D02*
X567563Y-128508D01*
X567563Y-128508D02*
X577086Y-138031D01*
X577086Y-138031D02*
X586610Y-128508D01*
X586610Y-128508D02*
X577086Y-118984D01*
X577086Y-118984D02*
X577086Y-138031D01*
X700896Y-318984D02*
X681848Y-309460D01*
X681848Y-309460D02*
X672324Y-290412D01*
X672324Y-290412D02*
X672324Y-118984D01*
X805658Y-318984D02*
X786610Y-309460D01*
X786610Y-309460D02*
X777086Y-290412D01*
X777086Y-290412D02*
X777086Y-118984D01*
X1034229Y-318984D02*
X1034229Y-118984D01*
X1034229Y-118984D02*
X1100896Y-261841D01*
X1100896Y-261841D02*
X1167563Y-118984D01*
X1167563Y-118984D02*
X1167563Y-318984D01*
X1348515Y-318984D02*
X1348515Y-214222D01*
X1348515Y-214222D02*
X1338991Y-195174D01*
X1338991Y-195174D02*
X1319944Y-185650D01*
X1319944Y-185650D02*
X1281848Y-185650D01*
X1281848Y-185650D02*
X1262801Y-195174D01*
X1348515Y-309460D02*
X1329467Y-318984D01*
X1329467Y-318984D02*
X1281848Y-318984D01*
X1281848Y-318984D02*
X1262801Y-309460D01*
X1262801Y-309460D02*
X1253277Y-290412D01*
X1253277Y-290412D02*
X1253277Y-271365D01*
X1253277Y-271365D02*
X1262801Y-252317D01*
X1262801Y-252317D02*
X1281848Y-242793D01*
X1281848Y-242793D02*
X1329467Y-242793D01*
X1329467Y-242793D02*
X1348515Y-233269D01*
X1443753Y-185650D02*
X1443753Y-385650D01*
X1443753Y-195174D02*
X1462801Y-185650D01*
X1462801Y-185650D02*
X1500896Y-185650D01*
X1500896Y-185650D02*
X1519943Y-195174D01*
X1519943Y-195174D02*
X1529467Y-204698D01*
X1529467Y-204698D02*
X1538991Y-223746D01*
X1538991Y-223746D02*
X1538991Y-280889D01*
X1538991Y-280889D02*
X1529467Y-299936D01*
X1529467Y-299936D02*
X1519943Y-309460D01*
X1519943Y-309460D02*
X1500896Y-318984D01*
X1500896Y-318984D02*
X1462801Y-318984D01*
X1462801Y-318984D02*
X1443753Y-309460D01*
X1624705Y-299936D02*
X1634229Y-309460D01*
X1634229Y-309460D02*
X1624705Y-318984D01*
X1624705Y-318984D02*
X1615182Y-309460D01*
X1615182Y-309460D02*
X1624705Y-299936D01*
X1624705Y-299936D02*
X1624705Y-318984D01*
X1624705Y-195174D02*
X1634229Y-204698D01*
X1634229Y-204698D02*
X1624705Y-214222D01*
X1624705Y-214222D02*
X1615182Y-204698D01*
X1615182Y-204698D02*
X1624705Y-195174D01*
X1624705Y-195174D02*
X1624705Y-214222D01*
D12*
X-37500Y-632500D02*
X-7500Y-662500D01*
X-7500Y-632500D02*
X-37500Y-662500D01*
D11*
X291372Y-538984D02*
X310420Y-538984D01*
X310420Y-538984D02*
X329467Y-548508D01*
X329467Y-548508D02*
X338991Y-558031D01*
X338991Y-558031D02*
X348515Y-577079D01*
X348515Y-577079D02*
X358039Y-615174D01*
X358039Y-615174D02*
X358039Y-662793D01*
X358039Y-662793D02*
X348515Y-700888D01*
X348515Y-700888D02*
X338991Y-719936D01*
X338991Y-719936D02*
X329467Y-729460D01*
X329467Y-729460D02*
X310420Y-738984D01*
X310420Y-738984D02*
X291372Y-738984D01*
X291372Y-738984D02*
X272324Y-729460D01*
X272324Y-729460D02*
X262801Y-719936D01*
X262801Y-719936D02*
X253277Y-700888D01*
X253277Y-700888D02*
X243753Y-662793D01*
X243753Y-662793D02*
X243753Y-615174D01*
X243753Y-615174D02*
X253277Y-577079D01*
X253277Y-577079D02*
X262801Y-558031D01*
X262801Y-558031D02*
X272324Y-548508D01*
X272324Y-548508D02*
X291372Y-538984D01*
X443753Y-719936D02*
X453277Y-729460D01*
X453277Y-729460D02*
X443753Y-738984D01*
X443753Y-738984D02*
X434229Y-729460D01*
X434229Y-729460D02*
X443753Y-719936D01*
X443753Y-719936D02*
X443753Y-738984D01*
X519943Y-538984D02*
X643753Y-538984D01*
X643753Y-538984D02*
X577086Y-615174D01*
X577086Y-615174D02*
X605658Y-615174D01*
X605658Y-615174D02*
X624705Y-624698D01*
X624705Y-624698D02*
X634229Y-634222D01*
X634229Y-634222D02*
X643753Y-653270D01*
X643753Y-653270D02*
X643753Y-700888D01*
X643753Y-700888D02*
X634229Y-719936D01*
X634229Y-719936D02*
X624705Y-729460D01*
X624705Y-729460D02*
X605658Y-738984D01*
X605658Y-738984D02*
X548515Y-738984D01*
X548515Y-738984D02*
X529467Y-729460D01*
X529467Y-729460D02*
X519943Y-719936D01*
X767562Y-538984D02*
X786610Y-538984D01*
X786610Y-538984D02*
X805658Y-548508D01*
X805658Y-548508D02*
X815182Y-558031D01*
X815182Y-558031D02*
X824705Y-577079D01*
X824705Y-577079D02*
X834229Y-615174D01*
X834229Y-615174D02*
X834229Y-662793D01*
X834229Y-662793D02*
X824705Y-700888D01*
X824705Y-700888D02*
X815182Y-719936D01*
X815182Y-719936D02*
X805658Y-729460D01*
X805658Y-729460D02*
X786610Y-738984D01*
X786610Y-738984D02*
X767562Y-738984D01*
X767562Y-738984D02*
X748515Y-729460D01*
X748515Y-729460D02*
X738991Y-719936D01*
X738991Y-719936D02*
X729467Y-700888D01*
X729467Y-700888D02*
X719943Y-662793D01*
X719943Y-662793D02*
X719943Y-615174D01*
X719943Y-615174D02*
X729467Y-577079D01*
X729467Y-577079D02*
X738991Y-558031D01*
X738991Y-558031D02*
X748515Y-548508D01*
X748515Y-548508D02*
X767562Y-538984D01*
X958039Y-538984D02*
X977086Y-538984D01*
X977086Y-538984D02*
X996134Y-548508D01*
X996134Y-548508D02*
X1005658Y-558031D01*
X1005658Y-558031D02*
X1015182Y-577079D01*
X1015182Y-577079D02*
X1024705Y-615174D01*
X1024705Y-615174D02*
X1024705Y-662793D01*
X1024705Y-662793D02*
X1015182Y-700888D01*
X1015182Y-700888D02*
X1005658Y-719936D01*
X1005658Y-719936D02*
X996134Y-729460D01*
X996134Y-729460D02*
X977086Y-738984D01*
X977086Y-738984D02*
X958039Y-738984D01*
X958039Y-738984D02*
X938991Y-729460D01*
X938991Y-729460D02*
X929467Y-719936D01*
X929467Y-719936D02*
X919943Y-700888D01*
X919943Y-700888D02*
X910420Y-662793D01*
X910420Y-662793D02*
X910420Y-615174D01*
X910420Y-615174D02*
X919943Y-577079D01*
X919943Y-577079D02*
X929467Y-558031D01*
X929467Y-558031D02*
X938991Y-548508D01*
X938991Y-548508D02*
X958039Y-538984D01*
X1110420Y-738984D02*
X1110420Y-605650D01*
X1110420Y-624698D02*
X1119944Y-615174D01*
X1119944Y-615174D02*
X1138991Y-605650D01*
X1138991Y-605650D02*
X1167563Y-605650D01*
X1167563Y-605650D02*
X1186610Y-615174D01*
X1186610Y-615174D02*
X1196134Y-634222D01*
X1196134Y-634222D02*
X1196134Y-738984D01*
X1196134Y-634222D02*
X1205658Y-615174D01*
X1205658Y-615174D02*
X1224705Y-605650D01*
X1224705Y-605650D02*
X1253277Y-605650D01*
X1253277Y-605650D02*
X1272325Y-615174D01*
X1272325Y-615174D02*
X1281848Y-634222D01*
X1281848Y-634222D02*
X1281848Y-738984D01*
X1377086Y-738984D02*
X1377086Y-605650D01*
X1377086Y-624698D02*
X1386610Y-615174D01*
X1386610Y-615174D02*
X1405658Y-605650D01*
X1405658Y-605650D02*
X1434229Y-605650D01*
X1434229Y-605650D02*
X1453277Y-615174D01*
X1453277Y-615174D02*
X1462801Y-634222D01*
X1462801Y-634222D02*
X1462801Y-738984D01*
X1462801Y-634222D02*
X1472324Y-615174D01*
X1472324Y-615174D02*
X1491372Y-605650D01*
X1491372Y-605650D02*
X1519943Y-605650D01*
X1519943Y-605650D02*
X1538991Y-615174D01*
X1538991Y-615174D02*
X1548515Y-634222D01*
X1548515Y-634222D02*
X1548515Y-738984D01*
X1938991Y-529460D02*
X1767563Y-786603D01*
X2196134Y-538984D02*
X2215182Y-538984D01*
X2215182Y-538984D02*
X2234229Y-548508D01*
X2234229Y-548508D02*
X2243753Y-558031D01*
X2243753Y-558031D02*
X2253277Y-577079D01*
X2253277Y-577079D02*
X2262801Y-615174D01*
X2262801Y-615174D02*
X2262801Y-662793D01*
X2262801Y-662793D02*
X2253277Y-700888D01*
X2253277Y-700888D02*
X2243753Y-719936D01*
X2243753Y-719936D02*
X2234229Y-729460D01*
X2234229Y-729460D02*
X2215182Y-738984D01*
X2215182Y-738984D02*
X2196134Y-738984D01*
X2196134Y-738984D02*
X2177087Y-729460D01*
X2177087Y-729460D02*
X2167563Y-719936D01*
X2167563Y-719936D02*
X2158039Y-700888D01*
X2158039Y-700888D02*
X2148515Y-662793D01*
X2148515Y-662793D02*
X2148515Y-615174D01*
X2148515Y-615174D02*
X2158039Y-577079D01*
X2158039Y-577079D02*
X2167563Y-558031D01*
X2167563Y-558031D02*
X2177087Y-548508D01*
X2177087Y-548508D02*
X2196134Y-538984D01*
X2348515Y-719936D02*
X2358039Y-729460D01*
X2358039Y-729460D02*
X2348515Y-738984D01*
X2348515Y-738984D02*
X2338991Y-729460D01*
X2338991Y-729460D02*
X2348515Y-719936D01*
X2348515Y-719936D02*
X2348515Y-738984D01*
X2481848Y-538984D02*
X2500896Y-538984D01*
X2500896Y-538984D02*
X2519944Y-548508D01*
X2519944Y-548508D02*
X2529468Y-558031D01*
X2529468Y-558031D02*
X2538991Y-577079D01*
X2538991Y-577079D02*
X2548515Y-615174D01*
X2548515Y-615174D02*
X2548515Y-662793D01*
X2548515Y-662793D02*
X2538991Y-700888D01*
X2538991Y-700888D02*
X2529468Y-719936D01*
X2529468Y-719936D02*
X2519944Y-729460D01*
X2519944Y-729460D02*
X2500896Y-738984D01*
X2500896Y-738984D02*
X2481848Y-738984D01*
X2481848Y-738984D02*
X2462801Y-729460D01*
X2462801Y-729460D02*
X2453277Y-719936D01*
X2453277Y-719936D02*
X2443753Y-700888D01*
X2443753Y-700888D02*
X2434229Y-662793D01*
X2434229Y-662793D02*
X2434229Y-615174D01*
X2434229Y-615174D02*
X2443753Y-577079D01*
X2443753Y-577079D02*
X2453277Y-558031D01*
X2453277Y-558031D02*
X2462801Y-548508D01*
X2462801Y-548508D02*
X2481848Y-538984D01*
X2738991Y-738984D02*
X2624706Y-738984D01*
X2681848Y-738984D02*
X2681848Y-538984D01*
X2681848Y-538984D02*
X2662801Y-567555D01*
X2662801Y-567555D02*
X2643753Y-586603D01*
X2643753Y-586603D02*
X2624706Y-596127D01*
X2929467Y-738984D02*
X2815182Y-738984D01*
X2872325Y-738984D02*
X2872325Y-538984D01*
X2872325Y-538984D02*
X2853277Y-567555D01*
X2853277Y-567555D02*
X2834229Y-586603D01*
X2834229Y-586603D02*
X2815182Y-596127D01*
X3043753Y-624698D02*
X3024706Y-615174D01*
X3024706Y-615174D02*
X3015182Y-605650D01*
X3015182Y-605650D02*
X3005658Y-586603D01*
X3005658Y-586603D02*
X3005658Y-577079D01*
X3005658Y-577079D02*
X3015182Y-558031D01*
X3015182Y-558031D02*
X3024706Y-548508D01*
X3024706Y-548508D02*
X3043753Y-538984D01*
X3043753Y-538984D02*
X3081848Y-538984D01*
X3081848Y-538984D02*
X3100896Y-548508D01*
X3100896Y-548508D02*
X3110420Y-558031D01*
X3110420Y-558031D02*
X3119944Y-577079D01*
X3119944Y-577079D02*
X3119944Y-586603D01*
X3119944Y-586603D02*
X3110420Y-605650D01*
X3110420Y-605650D02*
X3100896Y-615174D01*
X3100896Y-615174D02*
X3081848Y-624698D01*
X3081848Y-624698D02*
X3043753Y-624698D01*
X3043753Y-624698D02*
X3024706Y-634222D01*
X3024706Y-634222D02*
X3015182Y-643746D01*
X3015182Y-643746D02*
X3005658Y-662793D01*
X3005658Y-662793D02*
X3005658Y-700888D01*
X3005658Y-700888D02*
X3015182Y-719936D01*
X3015182Y-719936D02*
X3024706Y-729460D01*
X3024706Y-729460D02*
X3043753Y-738984D01*
X3043753Y-738984D02*
X3081848Y-738984D01*
X3081848Y-738984D02*
X3100896Y-729460D01*
X3100896Y-729460D02*
X3110420Y-719936D01*
X3110420Y-719936D02*
X3119944Y-700888D01*
X3119944Y-700888D02*
X3119944Y-662793D01*
X3119944Y-662793D02*
X3110420Y-643746D01*
X3110420Y-643746D02*
X3100896Y-634222D01*
X3100896Y-634222D02*
X3081848Y-624698D01*
X3196134Y-538984D02*
X3196134Y-577079D01*
X3272325Y-538984D02*
X3272325Y-577079D01*
X3567563Y-815174D02*
X3558039Y-805650D01*
X3558039Y-805650D02*
X3538991Y-777079D01*
X3538991Y-777079D02*
X3529468Y-758031D01*
X3529468Y-758031D02*
X3519944Y-729460D01*
X3519944Y-729460D02*
X3510420Y-681841D01*
X3510420Y-681841D02*
X3510420Y-643746D01*
X3510420Y-643746D02*
X3519944Y-596127D01*
X3519944Y-596127D02*
X3529468Y-567555D01*
X3529468Y-567555D02*
X3538991Y-548508D01*
X3538991Y-548508D02*
X3558039Y-519936D01*
X3558039Y-519936D02*
X3567563Y-510412D01*
X3729468Y-605650D02*
X3729468Y-738984D01*
X3681848Y-529460D02*
X3634229Y-672317D01*
X3634229Y-672317D02*
X3758039Y-672317D01*
X3815182Y-538984D02*
X3938991Y-538984D01*
X3938991Y-538984D02*
X3872325Y-615174D01*
X3872325Y-615174D02*
X3900896Y-615174D01*
X3900896Y-615174D02*
X3919944Y-624698D01*
X3919944Y-624698D02*
X3929468Y-634222D01*
X3929468Y-634222D02*
X3938991Y-653270D01*
X3938991Y-653270D02*
X3938991Y-700888D01*
X3938991Y-700888D02*
X3929468Y-719936D01*
X3929468Y-719936D02*
X3919944Y-729460D01*
X3919944Y-729460D02*
X3900896Y-738984D01*
X3900896Y-738984D02*
X3843753Y-738984D01*
X3843753Y-738984D02*
X3824706Y-729460D01*
X3824706Y-729460D02*
X3815182Y-719936D01*
X4177087Y-738984D02*
X4177087Y-538984D01*
X4262801Y-738984D02*
X4262801Y-634222D01*
X4262801Y-634222D02*
X4253277Y-615174D01*
X4253277Y-615174D02*
X4234230Y-605650D01*
X4234230Y-605650D02*
X4205658Y-605650D01*
X4205658Y-605650D02*
X4186610Y-615174D01*
X4186610Y-615174D02*
X4177087Y-624698D01*
X4386611Y-738984D02*
X4367563Y-729460D01*
X4367563Y-729460D02*
X4358039Y-719936D01*
X4358039Y-719936D02*
X4348515Y-700888D01*
X4348515Y-700888D02*
X4348515Y-643746D01*
X4348515Y-643746D02*
X4358039Y-624698D01*
X4358039Y-624698D02*
X4367563Y-615174D01*
X4367563Y-615174D02*
X4386611Y-605650D01*
X4386611Y-605650D02*
X4415182Y-605650D01*
X4415182Y-605650D02*
X4434230Y-615174D01*
X4434230Y-615174D02*
X4443753Y-624698D01*
X4443753Y-624698D02*
X4453277Y-643746D01*
X4453277Y-643746D02*
X4453277Y-700888D01*
X4453277Y-700888D02*
X4443753Y-719936D01*
X4443753Y-719936D02*
X4434230Y-729460D01*
X4434230Y-729460D02*
X4415182Y-738984D01*
X4415182Y-738984D02*
X4386611Y-738984D01*
X4567563Y-738984D02*
X4548515Y-729460D01*
X4548515Y-729460D02*
X4538992Y-710412D01*
X4538992Y-710412D02*
X4538992Y-538984D01*
X4719944Y-729460D02*
X4700896Y-738984D01*
X4700896Y-738984D02*
X4662801Y-738984D01*
X4662801Y-738984D02*
X4643753Y-729460D01*
X4643753Y-729460D02*
X4634230Y-710412D01*
X4634230Y-710412D02*
X4634230Y-634222D01*
X4634230Y-634222D02*
X4643753Y-615174D01*
X4643753Y-615174D02*
X4662801Y-605650D01*
X4662801Y-605650D02*
X4700896Y-605650D01*
X4700896Y-605650D02*
X4719944Y-615174D01*
X4719944Y-615174D02*
X4729468Y-634222D01*
X4729468Y-634222D02*
X4729468Y-653270D01*
X4729468Y-653270D02*
X4634230Y-672317D01*
X4805658Y-729460D02*
X4824706Y-738984D01*
X4824706Y-738984D02*
X4862801Y-738984D01*
X4862801Y-738984D02*
X4881849Y-729460D01*
X4881849Y-729460D02*
X4891373Y-710412D01*
X4891373Y-710412D02*
X4891373Y-700888D01*
X4891373Y-700888D02*
X4881849Y-681841D01*
X4881849Y-681841D02*
X4862801Y-672317D01*
X4862801Y-672317D02*
X4834230Y-672317D01*
X4834230Y-672317D02*
X4815182Y-662793D01*
X4815182Y-662793D02*
X4805658Y-643746D01*
X4805658Y-643746D02*
X4805658Y-634222D01*
X4805658Y-634222D02*
X4815182Y-615174D01*
X4815182Y-615174D02*
X4834230Y-605650D01*
X4834230Y-605650D02*
X4862801Y-605650D01*
X4862801Y-605650D02*
X4881849Y-615174D01*
X4958039Y-815174D02*
X4967563Y-805650D01*
X4967563Y-805650D02*
X4986611Y-777079D01*
X4986611Y-777079D02*
X4996134Y-758031D01*
X4996134Y-758031D02*
X5005658Y-729460D01*
X5005658Y-729460D02*
X5015182Y-681841D01*
X5015182Y-681841D02*
X5015182Y-643746D01*
X5015182Y-643746D02*
X5005658Y-596127D01*
X5005658Y-596127D02*
X4996134Y-567555D01*
X4996134Y-567555D02*
X4986611Y-548508D01*
X4986611Y-548508D02*
X4967563Y-519936D01*
X4967563Y-519936D02*
X4958039Y-510412D01*
D12*
X-7500Y-911500D02*
G75*
G02*
X-47500Y-911500I-20000J0D01*
G01*
X-47500Y-911500D02*
G75*
G02*
X-7500Y-911500I20000J0D01*
G01*
D11*
X291372Y-802984D02*
X310420Y-802984D01*
X310420Y-802984D02*
X329467Y-812508D01*
X329467Y-812508D02*
X338991Y-822031D01*
X338991Y-822031D02*
X348515Y-841079D01*
X348515Y-841079D02*
X358039Y-879174D01*
X358039Y-879174D02*
X358039Y-926793D01*
X358039Y-926793D02*
X348515Y-964888D01*
X348515Y-964888D02*
X338991Y-983936D01*
X338991Y-983936D02*
X329467Y-993460D01*
X329467Y-993460D02*
X310420Y-1002984D01*
X310420Y-1002984D02*
X291372Y-1002984D01*
X291372Y-1002984D02*
X272324Y-993460D01*
X272324Y-993460D02*
X262801Y-983936D01*
X262801Y-983936D02*
X253277Y-964888D01*
X253277Y-964888D02*
X243753Y-926793D01*
X243753Y-926793D02*
X243753Y-879174D01*
X243753Y-879174D02*
X253277Y-841079D01*
X253277Y-841079D02*
X262801Y-822031D01*
X262801Y-822031D02*
X272324Y-812508D01*
X272324Y-812508D02*
X291372Y-802984D01*
X443753Y-983936D02*
X453277Y-993460D01*
X453277Y-993460D02*
X443753Y-1002984D01*
X443753Y-1002984D02*
X434229Y-993460D01*
X434229Y-993460D02*
X443753Y-983936D01*
X443753Y-983936D02*
X443753Y-1002984D01*
X624705Y-869650D02*
X624705Y-1002984D01*
X577086Y-793460D02*
X529467Y-936317D01*
X529467Y-936317D02*
X653277Y-936317D01*
X767562Y-802984D02*
X786610Y-802984D01*
X786610Y-802984D02*
X805658Y-812508D01*
X805658Y-812508D02*
X815182Y-822031D01*
X815182Y-822031D02*
X824705Y-841079D01*
X824705Y-841079D02*
X834229Y-879174D01*
X834229Y-879174D02*
X834229Y-926793D01*
X834229Y-926793D02*
X824705Y-964888D01*
X824705Y-964888D02*
X815182Y-983936D01*
X815182Y-983936D02*
X805658Y-993460D01*
X805658Y-993460D02*
X786610Y-1002984D01*
X786610Y-1002984D02*
X767562Y-1002984D01*
X767562Y-1002984D02*
X748515Y-993460D01*
X748515Y-993460D02*
X738991Y-983936D01*
X738991Y-983936D02*
X729467Y-964888D01*
X729467Y-964888D02*
X719943Y-926793D01*
X719943Y-926793D02*
X719943Y-879174D01*
X719943Y-879174D02*
X729467Y-841079D01*
X729467Y-841079D02*
X738991Y-822031D01*
X738991Y-822031D02*
X748515Y-812508D01*
X748515Y-812508D02*
X767562Y-802984D01*
X958039Y-802984D02*
X977086Y-802984D01*
X977086Y-802984D02*
X996134Y-812508D01*
X996134Y-812508D02*
X1005658Y-822031D01*
X1005658Y-822031D02*
X1015182Y-841079D01*
X1015182Y-841079D02*
X1024705Y-879174D01*
X1024705Y-879174D02*
X1024705Y-926793D01*
X1024705Y-926793D02*
X1015182Y-964888D01*
X1015182Y-964888D02*
X1005658Y-983936D01*
X1005658Y-983936D02*
X996134Y-993460D01*
X996134Y-993460D02*
X977086Y-1002984D01*
X977086Y-1002984D02*
X958039Y-1002984D01*
X958039Y-1002984D02*
X938991Y-993460D01*
X938991Y-993460D02*
X929467Y-983936D01*
X929467Y-983936D02*
X919943Y-964888D01*
X919943Y-964888D02*
X910420Y-926793D01*
X910420Y-926793D02*
X910420Y-879174D01*
X910420Y-879174D02*
X919943Y-841079D01*
X919943Y-841079D02*
X929467Y-822031D01*
X929467Y-822031D02*
X938991Y-812508D01*
X938991Y-812508D02*
X958039Y-802984D01*
X1110420Y-1002984D02*
X1110420Y-869650D01*
X1110420Y-888698D02*
X1119944Y-879174D01*
X1119944Y-879174D02*
X1138991Y-869650D01*
X1138991Y-869650D02*
X1167563Y-869650D01*
X1167563Y-869650D02*
X1186610Y-879174D01*
X1186610Y-879174D02*
X1196134Y-898222D01*
X1196134Y-898222D02*
X1196134Y-1002984D01*
X1196134Y-898222D02*
X1205658Y-879174D01*
X1205658Y-879174D02*
X1224705Y-869650D01*
X1224705Y-869650D02*
X1253277Y-869650D01*
X1253277Y-869650D02*
X1272325Y-879174D01*
X1272325Y-879174D02*
X1281848Y-898222D01*
X1281848Y-898222D02*
X1281848Y-1002984D01*
X1377086Y-1002984D02*
X1377086Y-869650D01*
X1377086Y-888698D02*
X1386610Y-879174D01*
X1386610Y-879174D02*
X1405658Y-869650D01*
X1405658Y-869650D02*
X1434229Y-869650D01*
X1434229Y-869650D02*
X1453277Y-879174D01*
X1453277Y-879174D02*
X1462801Y-898222D01*
X1462801Y-898222D02*
X1462801Y-1002984D01*
X1462801Y-898222D02*
X1472324Y-879174D01*
X1472324Y-879174D02*
X1491372Y-869650D01*
X1491372Y-869650D02*
X1519943Y-869650D01*
X1519943Y-869650D02*
X1538991Y-879174D01*
X1538991Y-879174D02*
X1548515Y-898222D01*
X1548515Y-898222D02*
X1548515Y-1002984D01*
X1938991Y-793460D02*
X1767563Y-1050603D01*
X2196134Y-802984D02*
X2215182Y-802984D01*
X2215182Y-802984D02*
X2234229Y-812508D01*
X2234229Y-812508D02*
X2243753Y-822031D01*
X2243753Y-822031D02*
X2253277Y-841079D01*
X2253277Y-841079D02*
X2262801Y-879174D01*
X2262801Y-879174D02*
X2262801Y-926793D01*
X2262801Y-926793D02*
X2253277Y-964888D01*
X2253277Y-964888D02*
X2243753Y-983936D01*
X2243753Y-983936D02*
X2234229Y-993460D01*
X2234229Y-993460D02*
X2215182Y-1002984D01*
X2215182Y-1002984D02*
X2196134Y-1002984D01*
X2196134Y-1002984D02*
X2177087Y-993460D01*
X2177087Y-993460D02*
X2167563Y-983936D01*
X2167563Y-983936D02*
X2158039Y-964888D01*
X2158039Y-964888D02*
X2148515Y-926793D01*
X2148515Y-926793D02*
X2148515Y-879174D01*
X2148515Y-879174D02*
X2158039Y-841079D01*
X2158039Y-841079D02*
X2167563Y-822031D01*
X2167563Y-822031D02*
X2177087Y-812508D01*
X2177087Y-812508D02*
X2196134Y-802984D01*
X2348515Y-983936D02*
X2358039Y-993460D01*
X2358039Y-993460D02*
X2348515Y-1002984D01*
X2348515Y-1002984D02*
X2338991Y-993460D01*
X2338991Y-993460D02*
X2348515Y-983936D01*
X2348515Y-983936D02*
X2348515Y-1002984D01*
X2481848Y-802984D02*
X2500896Y-802984D01*
X2500896Y-802984D02*
X2519944Y-812508D01*
X2519944Y-812508D02*
X2529468Y-822031D01*
X2529468Y-822031D02*
X2538991Y-841079D01*
X2538991Y-841079D02*
X2548515Y-879174D01*
X2548515Y-879174D02*
X2548515Y-926793D01*
X2548515Y-926793D02*
X2538991Y-964888D01*
X2538991Y-964888D02*
X2529468Y-983936D01*
X2529468Y-983936D02*
X2519944Y-993460D01*
X2519944Y-993460D02*
X2500896Y-1002984D01*
X2500896Y-1002984D02*
X2481848Y-1002984D01*
X2481848Y-1002984D02*
X2462801Y-993460D01*
X2462801Y-993460D02*
X2453277Y-983936D01*
X2453277Y-983936D02*
X2443753Y-964888D01*
X2443753Y-964888D02*
X2434229Y-926793D01*
X2434229Y-926793D02*
X2434229Y-879174D01*
X2434229Y-879174D02*
X2443753Y-841079D01*
X2443753Y-841079D02*
X2453277Y-822031D01*
X2453277Y-822031D02*
X2462801Y-812508D01*
X2462801Y-812508D02*
X2481848Y-802984D01*
X2738991Y-1002984D02*
X2624706Y-1002984D01*
X2681848Y-1002984D02*
X2681848Y-802984D01*
X2681848Y-802984D02*
X2662801Y-831555D01*
X2662801Y-831555D02*
X2643753Y-850603D01*
X2643753Y-850603D02*
X2624706Y-860127D01*
X2919944Y-802984D02*
X2824706Y-802984D01*
X2824706Y-802984D02*
X2815182Y-898222D01*
X2815182Y-898222D02*
X2824706Y-888698D01*
X2824706Y-888698D02*
X2843753Y-879174D01*
X2843753Y-879174D02*
X2891372Y-879174D01*
X2891372Y-879174D02*
X2910420Y-888698D01*
X2910420Y-888698D02*
X2919944Y-898222D01*
X2919944Y-898222D02*
X2929467Y-917269D01*
X2929467Y-917269D02*
X2929467Y-964888D01*
X2929467Y-964888D02*
X2919944Y-983936D01*
X2919944Y-983936D02*
X2910420Y-993460D01*
X2910420Y-993460D02*
X2891372Y-1002984D01*
X2891372Y-1002984D02*
X2843753Y-1002984D01*
X2843753Y-1002984D02*
X2824706Y-993460D01*
X2824706Y-993460D02*
X2815182Y-983936D01*
X2996134Y-802984D02*
X3129467Y-802984D01*
X3129467Y-802984D02*
X3043753Y-1002984D01*
X3196134Y-802984D02*
X3196134Y-841079D01*
X3272325Y-802984D02*
X3272325Y-841079D01*
X3567563Y-1079174D02*
X3558039Y-1069650D01*
X3558039Y-1069650D02*
X3538991Y-1041079D01*
X3538991Y-1041079D02*
X3529468Y-1022031D01*
X3529468Y-1022031D02*
X3519944Y-993460D01*
X3519944Y-993460D02*
X3510420Y-945841D01*
X3510420Y-945841D02*
X3510420Y-907746D01*
X3510420Y-907746D02*
X3519944Y-860127D01*
X3519944Y-860127D02*
X3529468Y-831555D01*
X3529468Y-831555D02*
X3538991Y-812508D01*
X3538991Y-812508D02*
X3558039Y-783936D01*
X3558039Y-783936D02*
X3567563Y-774412D01*
X3729468Y-802984D02*
X3691372Y-802984D01*
X3691372Y-802984D02*
X3672325Y-812508D01*
X3672325Y-812508D02*
X3662801Y-822031D01*
X3662801Y-822031D02*
X3643753Y-850603D01*
X3643753Y-850603D02*
X3634229Y-888698D01*
X3634229Y-888698D02*
X3634229Y-964888D01*
X3634229Y-964888D02*
X3643753Y-983936D01*
X3643753Y-983936D02*
X3653277Y-993460D01*
X3653277Y-993460D02*
X3672325Y-1002984D01*
X3672325Y-1002984D02*
X3710420Y-1002984D01*
X3710420Y-1002984D02*
X3729468Y-993460D01*
X3729468Y-993460D02*
X3738991Y-983936D01*
X3738991Y-983936D02*
X3748515Y-964888D01*
X3748515Y-964888D02*
X3748515Y-917269D01*
X3748515Y-917269D02*
X3738991Y-898222D01*
X3738991Y-898222D02*
X3729468Y-888698D01*
X3729468Y-888698D02*
X3710420Y-879174D01*
X3710420Y-879174D02*
X3672325Y-879174D01*
X3672325Y-879174D02*
X3653277Y-888698D01*
X3653277Y-888698D02*
X3643753Y-898222D01*
X3643753Y-898222D02*
X3634229Y-917269D01*
X3919944Y-802984D02*
X3881848Y-802984D01*
X3881848Y-802984D02*
X3862801Y-812508D01*
X3862801Y-812508D02*
X3853277Y-822031D01*
X3853277Y-822031D02*
X3834229Y-850603D01*
X3834229Y-850603D02*
X3824706Y-888698D01*
X3824706Y-888698D02*
X3824706Y-964888D01*
X3824706Y-964888D02*
X3834229Y-983936D01*
X3834229Y-983936D02*
X3843753Y-993460D01*
X3843753Y-993460D02*
X3862801Y-1002984D01*
X3862801Y-1002984D02*
X3900896Y-1002984D01*
X3900896Y-1002984D02*
X3919944Y-993460D01*
X3919944Y-993460D02*
X3929468Y-983936D01*
X3929468Y-983936D02*
X3938991Y-964888D01*
X3938991Y-964888D02*
X3938991Y-917269D01*
X3938991Y-917269D02*
X3929468Y-898222D01*
X3929468Y-898222D02*
X3919944Y-888698D01*
X3919944Y-888698D02*
X3900896Y-879174D01*
X3900896Y-879174D02*
X3862801Y-879174D01*
X3862801Y-879174D02*
X3843753Y-888698D01*
X3843753Y-888698D02*
X3834229Y-898222D01*
X3834229Y-898222D02*
X3824706Y-917269D01*
X4177087Y-1002984D02*
X4177087Y-802984D01*
X4262801Y-1002984D02*
X4262801Y-898222D01*
X4262801Y-898222D02*
X4253277Y-879174D01*
X4253277Y-879174D02*
X4234230Y-869650D01*
X4234230Y-869650D02*
X4205658Y-869650D01*
X4205658Y-869650D02*
X4186610Y-879174D01*
X4186610Y-879174D02*
X4177087Y-888698D01*
X4386611Y-1002984D02*
X4367563Y-993460D01*
X4367563Y-993460D02*
X4358039Y-983936D01*
X4358039Y-983936D02*
X4348515Y-964888D01*
X4348515Y-964888D02*
X4348515Y-907746D01*
X4348515Y-907746D02*
X4358039Y-888698D01*
X4358039Y-888698D02*
X4367563Y-879174D01*
X4367563Y-879174D02*
X4386611Y-869650D01*
X4386611Y-869650D02*
X4415182Y-869650D01*
X4415182Y-869650D02*
X4434230Y-879174D01*
X4434230Y-879174D02*
X4443753Y-888698D01*
X4443753Y-888698D02*
X4453277Y-907746D01*
X4453277Y-907746D02*
X4453277Y-964888D01*
X4453277Y-964888D02*
X4443753Y-983936D01*
X4443753Y-983936D02*
X4434230Y-993460D01*
X4434230Y-993460D02*
X4415182Y-1002984D01*
X4415182Y-1002984D02*
X4386611Y-1002984D01*
X4567563Y-1002984D02*
X4548515Y-993460D01*
X4548515Y-993460D02*
X4538992Y-974412D01*
X4538992Y-974412D02*
X4538992Y-802984D01*
X4719944Y-993460D02*
X4700896Y-1002984D01*
X4700896Y-1002984D02*
X4662801Y-1002984D01*
X4662801Y-1002984D02*
X4643753Y-993460D01*
X4643753Y-993460D02*
X4634230Y-974412D01*
X4634230Y-974412D02*
X4634230Y-898222D01*
X4634230Y-898222D02*
X4643753Y-879174D01*
X4643753Y-879174D02*
X4662801Y-869650D01*
X4662801Y-869650D02*
X4700896Y-869650D01*
X4700896Y-869650D02*
X4719944Y-879174D01*
X4719944Y-879174D02*
X4729468Y-898222D01*
X4729468Y-898222D02*
X4729468Y-917269D01*
X4729468Y-917269D02*
X4634230Y-936317D01*
X4805658Y-993460D02*
X4824706Y-1002984D01*
X4824706Y-1002984D02*
X4862801Y-1002984D01*
X4862801Y-1002984D02*
X4881849Y-993460D01*
X4881849Y-993460D02*
X4891373Y-974412D01*
X4891373Y-974412D02*
X4891373Y-964888D01*
X4891373Y-964888D02*
X4881849Y-945841D01*
X4881849Y-945841D02*
X4862801Y-936317D01*
X4862801Y-936317D02*
X4834230Y-936317D01*
X4834230Y-936317D02*
X4815182Y-926793D01*
X4815182Y-926793D02*
X4805658Y-907746D01*
X4805658Y-907746D02*
X4805658Y-898222D01*
X4805658Y-898222D02*
X4815182Y-879174D01*
X4815182Y-879174D02*
X4834230Y-869650D01*
X4834230Y-869650D02*
X4862801Y-869650D01*
X4862801Y-869650D02*
X4881849Y-879174D01*
X4958039Y-1079174D02*
X4967563Y-1069650D01*
X4967563Y-1069650D02*
X4986611Y-1041079D01*
X4986611Y-1041079D02*
X4996134Y-1022031D01*
X4996134Y-1022031D02*
X5005658Y-993460D01*
X5005658Y-993460D02*
X5015182Y-945841D01*
X5015182Y-945841D02*
X5015182Y-907746D01*
X5015182Y-907746D02*
X5005658Y-860127D01*
X5005658Y-860127D02*
X4996134Y-831555D01*
X4996134Y-831555D02*
X4986611Y-812508D01*
X4986611Y-812508D02*
X4967563Y-783936D01*
X4967563Y-783936D02*
X4958039Y-774412D01*
D12*
X-47500Y-1135500D02*
X-47500Y-1215500D01*
X-87500Y-1175500D02*
X-7500Y-1175500D01*
D11*
X291372Y-1066984D02*
X310420Y-1066984D01*
X310420Y-1066984D02*
X329467Y-1076508D01*
X329467Y-1076508D02*
X338991Y-1086031D01*
X338991Y-1086031D02*
X348515Y-1105079D01*
X348515Y-1105079D02*
X358039Y-1143174D01*
X358039Y-1143174D02*
X358039Y-1190793D01*
X358039Y-1190793D02*
X348515Y-1228889D01*
X348515Y-1228889D02*
X338991Y-1247936D01*
X338991Y-1247936D02*
X329467Y-1257460D01*
X329467Y-1257460D02*
X310420Y-1266984D01*
X310420Y-1266984D02*
X291372Y-1266984D01*
X291372Y-1266984D02*
X272324Y-1257460D01*
X272324Y-1257460D02*
X262801Y-1247936D01*
X262801Y-1247936D02*
X253277Y-1228889D01*
X253277Y-1228889D02*
X243753Y-1190793D01*
X243753Y-1190793D02*
X243753Y-1143174D01*
X243753Y-1143174D02*
X253277Y-1105079D01*
X253277Y-1105079D02*
X262801Y-1086031D01*
X262801Y-1086031D02*
X272324Y-1076508D01*
X272324Y-1076508D02*
X291372Y-1066984D01*
X443753Y-1247936D02*
X453277Y-1257460D01*
X453277Y-1257460D02*
X443753Y-1266984D01*
X443753Y-1266984D02*
X434229Y-1257460D01*
X434229Y-1257460D02*
X443753Y-1247936D01*
X443753Y-1247936D02*
X443753Y-1266984D01*
X567563Y-1152698D02*
X548515Y-1143174D01*
X548515Y-1143174D02*
X538991Y-1133650D01*
X538991Y-1133650D02*
X529467Y-1114603D01*
X529467Y-1114603D02*
X529467Y-1105079D01*
X529467Y-1105079D02*
X538991Y-1086031D01*
X538991Y-1086031D02*
X548515Y-1076508D01*
X548515Y-1076508D02*
X567563Y-1066984D01*
X567563Y-1066984D02*
X605658Y-1066984D01*
X605658Y-1066984D02*
X624705Y-1076508D01*
X624705Y-1076508D02*
X634229Y-1086031D01*
X634229Y-1086031D02*
X643753Y-1105079D01*
X643753Y-1105079D02*
X643753Y-1114603D01*
X643753Y-1114603D02*
X634229Y-1133650D01*
X634229Y-1133650D02*
X624705Y-1143174D01*
X624705Y-1143174D02*
X605658Y-1152698D01*
X605658Y-1152698D02*
X567563Y-1152698D01*
X567563Y-1152698D02*
X548515Y-1162222D01*
X548515Y-1162222D02*
X538991Y-1171746D01*
X538991Y-1171746D02*
X529467Y-1190793D01*
X529467Y-1190793D02*
X529467Y-1228889D01*
X529467Y-1228889D02*
X538991Y-1247936D01*
X538991Y-1247936D02*
X548515Y-1257460D01*
X548515Y-1257460D02*
X567563Y-1266984D01*
X567563Y-1266984D02*
X605658Y-1266984D01*
X605658Y-1266984D02*
X624705Y-1257460D01*
X624705Y-1257460D02*
X634229Y-1247936D01*
X634229Y-1247936D02*
X643753Y-1228889D01*
X643753Y-1228889D02*
X643753Y-1190793D01*
X643753Y-1190793D02*
X634229Y-1171746D01*
X634229Y-1171746D02*
X624705Y-1162222D01*
X624705Y-1162222D02*
X605658Y-1152698D01*
X767562Y-1066984D02*
X786610Y-1066984D01*
X786610Y-1066984D02*
X805658Y-1076508D01*
X805658Y-1076508D02*
X815182Y-1086031D01*
X815182Y-1086031D02*
X824705Y-1105079D01*
X824705Y-1105079D02*
X834229Y-1143174D01*
X834229Y-1143174D02*
X834229Y-1190793D01*
X834229Y-1190793D02*
X824705Y-1228889D01*
X824705Y-1228889D02*
X815182Y-1247936D01*
X815182Y-1247936D02*
X805658Y-1257460D01*
X805658Y-1257460D02*
X786610Y-1266984D01*
X786610Y-1266984D02*
X767562Y-1266984D01*
X767562Y-1266984D02*
X748515Y-1257460D01*
X748515Y-1257460D02*
X738991Y-1247936D01*
X738991Y-1247936D02*
X729467Y-1228889D01*
X729467Y-1228889D02*
X719943Y-1190793D01*
X719943Y-1190793D02*
X719943Y-1143174D01*
X719943Y-1143174D02*
X729467Y-1105079D01*
X729467Y-1105079D02*
X738991Y-1086031D01*
X738991Y-1086031D02*
X748515Y-1076508D01*
X748515Y-1076508D02*
X767562Y-1066984D01*
X958039Y-1066984D02*
X977086Y-1066984D01*
X977086Y-1066984D02*
X996134Y-1076508D01*
X996134Y-1076508D02*
X1005658Y-1086031D01*
X1005658Y-1086031D02*
X1015182Y-1105079D01*
X1015182Y-1105079D02*
X1024705Y-1143174D01*
X1024705Y-1143174D02*
X1024705Y-1190793D01*
X1024705Y-1190793D02*
X1015182Y-1228889D01*
X1015182Y-1228889D02*
X1005658Y-1247936D01*
X1005658Y-1247936D02*
X996134Y-1257460D01*
X996134Y-1257460D02*
X977086Y-1266984D01*
X977086Y-1266984D02*
X958039Y-1266984D01*
X958039Y-1266984D02*
X938991Y-1257460D01*
X938991Y-1257460D02*
X929467Y-1247936D01*
X929467Y-1247936D02*
X919943Y-1228889D01*
X919943Y-1228889D02*
X910420Y-1190793D01*
X910420Y-1190793D02*
X910420Y-1143174D01*
X910420Y-1143174D02*
X919943Y-1105079D01*
X919943Y-1105079D02*
X929467Y-1086031D01*
X929467Y-1086031D02*
X938991Y-1076508D01*
X938991Y-1076508D02*
X958039Y-1066984D01*
X1110420Y-1266984D02*
X1110420Y-1133650D01*
X1110420Y-1152698D02*
X1119944Y-1143174D01*
X1119944Y-1143174D02*
X1138991Y-1133650D01*
X1138991Y-1133650D02*
X1167563Y-1133650D01*
X1167563Y-1133650D02*
X1186610Y-1143174D01*
X1186610Y-1143174D02*
X1196134Y-1162222D01*
X1196134Y-1162222D02*
X1196134Y-1266984D01*
X1196134Y-1162222D02*
X1205658Y-1143174D01*
X1205658Y-1143174D02*
X1224705Y-1133650D01*
X1224705Y-1133650D02*
X1253277Y-1133650D01*
X1253277Y-1133650D02*
X1272325Y-1143174D01*
X1272325Y-1143174D02*
X1281848Y-1162222D01*
X1281848Y-1162222D02*
X1281848Y-1266984D01*
X1377086Y-1266984D02*
X1377086Y-1133650D01*
X1377086Y-1152698D02*
X1386610Y-1143174D01*
X1386610Y-1143174D02*
X1405658Y-1133650D01*
X1405658Y-1133650D02*
X1434229Y-1133650D01*
X1434229Y-1133650D02*
X1453277Y-1143174D01*
X1453277Y-1143174D02*
X1462801Y-1162222D01*
X1462801Y-1162222D02*
X1462801Y-1266984D01*
X1462801Y-1162222D02*
X1472324Y-1143174D01*
X1472324Y-1143174D02*
X1491372Y-1133650D01*
X1491372Y-1133650D02*
X1519943Y-1133650D01*
X1519943Y-1133650D02*
X1538991Y-1143174D01*
X1538991Y-1143174D02*
X1548515Y-1162222D01*
X1548515Y-1162222D02*
X1548515Y-1266984D01*
X1938991Y-1057460D02*
X1767563Y-1314603D01*
X2196134Y-1066984D02*
X2215182Y-1066984D01*
X2215182Y-1066984D02*
X2234229Y-1076508D01*
X2234229Y-1076508D02*
X2243753Y-1086031D01*
X2243753Y-1086031D02*
X2253277Y-1105079D01*
X2253277Y-1105079D02*
X2262801Y-1143174D01*
X2262801Y-1143174D02*
X2262801Y-1190793D01*
X2262801Y-1190793D02*
X2253277Y-1228889D01*
X2253277Y-1228889D02*
X2243753Y-1247936D01*
X2243753Y-1247936D02*
X2234229Y-1257460D01*
X2234229Y-1257460D02*
X2215182Y-1266984D01*
X2215182Y-1266984D02*
X2196134Y-1266984D01*
X2196134Y-1266984D02*
X2177087Y-1257460D01*
X2177087Y-1257460D02*
X2167563Y-1247936D01*
X2167563Y-1247936D02*
X2158039Y-1228889D01*
X2158039Y-1228889D02*
X2148515Y-1190793D01*
X2148515Y-1190793D02*
X2148515Y-1143174D01*
X2148515Y-1143174D02*
X2158039Y-1105079D01*
X2158039Y-1105079D02*
X2167563Y-1086031D01*
X2167563Y-1086031D02*
X2177087Y-1076508D01*
X2177087Y-1076508D02*
X2196134Y-1066984D01*
X2348515Y-1247936D02*
X2358039Y-1257460D01*
X2358039Y-1257460D02*
X2348515Y-1266984D01*
X2348515Y-1266984D02*
X2338991Y-1257460D01*
X2338991Y-1257460D02*
X2348515Y-1247936D01*
X2348515Y-1247936D02*
X2348515Y-1266984D01*
X2481848Y-1066984D02*
X2500896Y-1066984D01*
X2500896Y-1066984D02*
X2519944Y-1076508D01*
X2519944Y-1076508D02*
X2529468Y-1086031D01*
X2529468Y-1086031D02*
X2538991Y-1105079D01*
X2538991Y-1105079D02*
X2548515Y-1143174D01*
X2548515Y-1143174D02*
X2548515Y-1190793D01*
X2548515Y-1190793D02*
X2538991Y-1228889D01*
X2538991Y-1228889D02*
X2529468Y-1247936D01*
X2529468Y-1247936D02*
X2519944Y-1257460D01*
X2519944Y-1257460D02*
X2500896Y-1266984D01*
X2500896Y-1266984D02*
X2481848Y-1266984D01*
X2481848Y-1266984D02*
X2462801Y-1257460D01*
X2462801Y-1257460D02*
X2453277Y-1247936D01*
X2453277Y-1247936D02*
X2443753Y-1228889D01*
X2443753Y-1228889D02*
X2434229Y-1190793D01*
X2434229Y-1190793D02*
X2434229Y-1143174D01*
X2434229Y-1143174D02*
X2443753Y-1105079D01*
X2443753Y-1105079D02*
X2453277Y-1086031D01*
X2453277Y-1086031D02*
X2462801Y-1076508D01*
X2462801Y-1076508D02*
X2481848Y-1066984D01*
X2615182Y-1066984D02*
X2738991Y-1066984D01*
X2738991Y-1066984D02*
X2672325Y-1143174D01*
X2672325Y-1143174D02*
X2700896Y-1143174D01*
X2700896Y-1143174D02*
X2719944Y-1152698D01*
X2719944Y-1152698D02*
X2729468Y-1162222D01*
X2729468Y-1162222D02*
X2738991Y-1181270D01*
X2738991Y-1181270D02*
X2738991Y-1228889D01*
X2738991Y-1228889D02*
X2729468Y-1247936D01*
X2729468Y-1247936D02*
X2719944Y-1257460D01*
X2719944Y-1257460D02*
X2700896Y-1266984D01*
X2700896Y-1266984D02*
X2643753Y-1266984D01*
X2643753Y-1266984D02*
X2624706Y-1257460D01*
X2624706Y-1257460D02*
X2615182Y-1247936D01*
X2929467Y-1266984D02*
X2815182Y-1266984D01*
X2872325Y-1266984D02*
X2872325Y-1066984D01*
X2872325Y-1066984D02*
X2853277Y-1095555D01*
X2853277Y-1095555D02*
X2834229Y-1114603D01*
X2834229Y-1114603D02*
X2815182Y-1124127D01*
X3110420Y-1066984D02*
X3015182Y-1066984D01*
X3015182Y-1066984D02*
X3005658Y-1162222D01*
X3005658Y-1162222D02*
X3015182Y-1152698D01*
X3015182Y-1152698D02*
X3034229Y-1143174D01*
X3034229Y-1143174D02*
X3081848Y-1143174D01*
X3081848Y-1143174D02*
X3100896Y-1152698D01*
X3100896Y-1152698D02*
X3110420Y-1162222D01*
X3110420Y-1162222D02*
X3119944Y-1181270D01*
X3119944Y-1181270D02*
X3119944Y-1228889D01*
X3119944Y-1228889D02*
X3110420Y-1247936D01*
X3110420Y-1247936D02*
X3100896Y-1257460D01*
X3100896Y-1257460D02*
X3081848Y-1266984D01*
X3081848Y-1266984D02*
X3034229Y-1266984D01*
X3034229Y-1266984D02*
X3015182Y-1257460D01*
X3015182Y-1257460D02*
X3005658Y-1247936D01*
X3196134Y-1066984D02*
X3196134Y-1105079D01*
X3272325Y-1066984D02*
X3272325Y-1105079D01*
X3567563Y-1343174D02*
X3558039Y-1333650D01*
X3558039Y-1333650D02*
X3538991Y-1305079D01*
X3538991Y-1305079D02*
X3529468Y-1286031D01*
X3529468Y-1286031D02*
X3519944Y-1257460D01*
X3519944Y-1257460D02*
X3510420Y-1209841D01*
X3510420Y-1209841D02*
X3510420Y-1171746D01*
X3510420Y-1171746D02*
X3519944Y-1124127D01*
X3519944Y-1124127D02*
X3529468Y-1095555D01*
X3529468Y-1095555D02*
X3538991Y-1076508D01*
X3538991Y-1076508D02*
X3558039Y-1047936D01*
X3558039Y-1047936D02*
X3567563Y-1038412D01*
X3681848Y-1066984D02*
X3700896Y-1066984D01*
X3700896Y-1066984D02*
X3719944Y-1076508D01*
X3719944Y-1076508D02*
X3729468Y-1086031D01*
X3729468Y-1086031D02*
X3738991Y-1105079D01*
X3738991Y-1105079D02*
X3748515Y-1143174D01*
X3748515Y-1143174D02*
X3748515Y-1190793D01*
X3748515Y-1190793D02*
X3738991Y-1228889D01*
X3738991Y-1228889D02*
X3729468Y-1247936D01*
X3729468Y-1247936D02*
X3719944Y-1257460D01*
X3719944Y-1257460D02*
X3700896Y-1266984D01*
X3700896Y-1266984D02*
X3681848Y-1266984D01*
X3681848Y-1266984D02*
X3662801Y-1257460D01*
X3662801Y-1257460D02*
X3653277Y-1247936D01*
X3653277Y-1247936D02*
X3643753Y-1228889D01*
X3643753Y-1228889D02*
X3634229Y-1190793D01*
X3634229Y-1190793D02*
X3634229Y-1143174D01*
X3634229Y-1143174D02*
X3643753Y-1105079D01*
X3643753Y-1105079D02*
X3653277Y-1086031D01*
X3653277Y-1086031D02*
X3662801Y-1076508D01*
X3662801Y-1076508D02*
X3681848Y-1066984D01*
X3986610Y-1266984D02*
X3986610Y-1066984D01*
X4072325Y-1266984D02*
X4072325Y-1162222D01*
X4072325Y-1162222D02*
X4062801Y-1143174D01*
X4062801Y-1143174D02*
X4043753Y-1133650D01*
X4043753Y-1133650D02*
X4015182Y-1133650D01*
X4015182Y-1133650D02*
X3996134Y-1143174D01*
X3996134Y-1143174D02*
X3986610Y-1152698D01*
X4196134Y-1266984D02*
X4177087Y-1257460D01*
X4177087Y-1257460D02*
X4167563Y-1247936D01*
X4167563Y-1247936D02*
X4158039Y-1228889D01*
X4158039Y-1228889D02*
X4158039Y-1171746D01*
X4158039Y-1171746D02*
X4167563Y-1152698D01*
X4167563Y-1152698D02*
X4177087Y-1143174D01*
X4177087Y-1143174D02*
X4196134Y-1133650D01*
X4196134Y-1133650D02*
X4224706Y-1133650D01*
X4224706Y-1133650D02*
X4243753Y-1143174D01*
X4243753Y-1143174D02*
X4253277Y-1152698D01*
X4253277Y-1152698D02*
X4262801Y-1171746D01*
X4262801Y-1171746D02*
X4262801Y-1228889D01*
X4262801Y-1228889D02*
X4253277Y-1247936D01*
X4253277Y-1247936D02*
X4243753Y-1257460D01*
X4243753Y-1257460D02*
X4224706Y-1266984D01*
X4224706Y-1266984D02*
X4196134Y-1266984D01*
X4377087Y-1266984D02*
X4358039Y-1257460D01*
X4358039Y-1257460D02*
X4348515Y-1238412D01*
X4348515Y-1238412D02*
X4348515Y-1066984D01*
X4529468Y-1257460D02*
X4510420Y-1266984D01*
X4510420Y-1266984D02*
X4472325Y-1266984D01*
X4472325Y-1266984D02*
X4453277Y-1257460D01*
X4453277Y-1257460D02*
X4443753Y-1238412D01*
X4443753Y-1238412D02*
X4443753Y-1162222D01*
X4443753Y-1162222D02*
X4453277Y-1143174D01*
X4453277Y-1143174D02*
X4472325Y-1133650D01*
X4472325Y-1133650D02*
X4510420Y-1133650D01*
X4510420Y-1133650D02*
X4529468Y-1143174D01*
X4529468Y-1143174D02*
X4538992Y-1162222D01*
X4538992Y-1162222D02*
X4538992Y-1181270D01*
X4538992Y-1181270D02*
X4443753Y-1200317D01*
X4615182Y-1257460D02*
X4634230Y-1266984D01*
X4634230Y-1266984D02*
X4672325Y-1266984D01*
X4672325Y-1266984D02*
X4691373Y-1257460D01*
X4691373Y-1257460D02*
X4700896Y-1238412D01*
X4700896Y-1238412D02*
X4700896Y-1228889D01*
X4700896Y-1228889D02*
X4691373Y-1209841D01*
X4691373Y-1209841D02*
X4672325Y-1200317D01*
X4672325Y-1200317D02*
X4643753Y-1200317D01*
X4643753Y-1200317D02*
X4624706Y-1190793D01*
X4624706Y-1190793D02*
X4615182Y-1171746D01*
X4615182Y-1171746D02*
X4615182Y-1162222D01*
X4615182Y-1162222D02*
X4624706Y-1143174D01*
X4624706Y-1143174D02*
X4643753Y-1133650D01*
X4643753Y-1133650D02*
X4672325Y-1133650D01*
X4672325Y-1133650D02*
X4691373Y-1143174D01*
X4938992Y-1190793D02*
X5091373Y-1190793D01*
X5015182Y-1266984D02*
X5015182Y-1114603D01*
X5424706Y-1133650D02*
X5424706Y-1266984D01*
X5377087Y-1057460D02*
X5329468Y-1200317D01*
X5329468Y-1200317D02*
X5453277Y-1200317D01*
X5672325Y-1257460D02*
X5691373Y-1266984D01*
X5691373Y-1266984D02*
X5729468Y-1266984D01*
X5729468Y-1266984D02*
X5748515Y-1257460D01*
X5748515Y-1257460D02*
X5758039Y-1238412D01*
X5758039Y-1238412D02*
X5758039Y-1228889D01*
X5758039Y-1228889D02*
X5748515Y-1209841D01*
X5748515Y-1209841D02*
X5729468Y-1200317D01*
X5729468Y-1200317D02*
X5700896Y-1200317D01*
X5700896Y-1200317D02*
X5681849Y-1190793D01*
X5681849Y-1190793D02*
X5672325Y-1171746D01*
X5672325Y-1171746D02*
X5672325Y-1162222D01*
X5672325Y-1162222D02*
X5681849Y-1143174D01*
X5681849Y-1143174D02*
X5700896Y-1133650D01*
X5700896Y-1133650D02*
X5729468Y-1133650D01*
X5729468Y-1133650D02*
X5748515Y-1143174D01*
X5872325Y-1266984D02*
X5853277Y-1257460D01*
X5853277Y-1257460D02*
X5843754Y-1238412D01*
X5843754Y-1238412D02*
X5843754Y-1066984D01*
X5977087Y-1266984D02*
X5958039Y-1257460D01*
X5958039Y-1257460D02*
X5948515Y-1247936D01*
X5948515Y-1247936D02*
X5938992Y-1228889D01*
X5938992Y-1228889D02*
X5938992Y-1171746D01*
X5938992Y-1171746D02*
X5948515Y-1152698D01*
X5948515Y-1152698D02*
X5958039Y-1143174D01*
X5958039Y-1143174D02*
X5977087Y-1133650D01*
X5977087Y-1133650D02*
X6005658Y-1133650D01*
X6005658Y-1133650D02*
X6024706Y-1143174D01*
X6024706Y-1143174D02*
X6034230Y-1152698D01*
X6034230Y-1152698D02*
X6043754Y-1171746D01*
X6043754Y-1171746D02*
X6043754Y-1228889D01*
X6043754Y-1228889D02*
X6034230Y-1247936D01*
X6034230Y-1247936D02*
X6024706Y-1257460D01*
X6024706Y-1257460D02*
X6005658Y-1266984D01*
X6005658Y-1266984D02*
X5977087Y-1266984D01*
X6100896Y-1133650D02*
X6177087Y-1133650D01*
X6129468Y-1066984D02*
X6129468Y-1238412D01*
X6129468Y-1238412D02*
X6138992Y-1257460D01*
X6138992Y-1257460D02*
X6158039Y-1266984D01*
X6158039Y-1266984D02*
X6177087Y-1266984D01*
X6234230Y-1257460D02*
X6253277Y-1266984D01*
X6253277Y-1266984D02*
X6291373Y-1266984D01*
X6291373Y-1266984D02*
X6310420Y-1257460D01*
X6310420Y-1257460D02*
X6319944Y-1238412D01*
X6319944Y-1238412D02*
X6319944Y-1228889D01*
X6319944Y-1228889D02*
X6310420Y-1209841D01*
X6310420Y-1209841D02*
X6291373Y-1200317D01*
X6291373Y-1200317D02*
X6262801Y-1200317D01*
X6262801Y-1200317D02*
X6243754Y-1190793D01*
X6243754Y-1190793D02*
X6234230Y-1171746D01*
X6234230Y-1171746D02*
X6234230Y-1162222D01*
X6234230Y-1162222D02*
X6243754Y-1143174D01*
X6243754Y-1143174D02*
X6262801Y-1133650D01*
X6262801Y-1133650D02*
X6291373Y-1133650D01*
X6291373Y-1133650D02*
X6310420Y-1143174D01*
X6386611Y-1343174D02*
X6396135Y-1333650D01*
X6396135Y-1333650D02*
X6415182Y-1305079D01*
X6415182Y-1305079D02*
X6424706Y-1286031D01*
X6424706Y-1286031D02*
X6434230Y-1257460D01*
X6434230Y-1257460D02*
X6443754Y-1209841D01*
X6443754Y-1209841D02*
X6443754Y-1171746D01*
X6443754Y-1171746D02*
X6434230Y-1124127D01*
X6434230Y-1124127D02*
X6424706Y-1095555D01*
X6424706Y-1095555D02*
X6415182Y-1076508D01*
X6415182Y-1076508D02*
X6396135Y-1047936D01*
X6396135Y-1047936D02*
X6386611Y-1038412D01*
D12*
X-20680Y-1471321D02*
X-20680Y-1407679D01*
X-84322Y-1407679D01*
X-84322Y-1471321D01*
X-20680Y-1471321D01*
D11*
X291372Y-1330984D02*
X310420Y-1330984D01*
X310420Y-1330984D02*
X329467Y-1340508D01*
X329467Y-1340508D02*
X338991Y-1350031D01*
X338991Y-1350031D02*
X348515Y-1369079D01*
X348515Y-1369079D02*
X358039Y-1407174D01*
X358039Y-1407174D02*
X358039Y-1454793D01*
X358039Y-1454793D02*
X348515Y-1492888D01*
X348515Y-1492888D02*
X338991Y-1511936D01*
X338991Y-1511936D02*
X329467Y-1521460D01*
X329467Y-1521460D02*
X310420Y-1530984D01*
X310420Y-1530984D02*
X291372Y-1530984D01*
X291372Y-1530984D02*
X272324Y-1521460D01*
X272324Y-1521460D02*
X262801Y-1511936D01*
X262801Y-1511936D02*
X253277Y-1492888D01*
X253277Y-1492888D02*
X243753Y-1454793D01*
X243753Y-1454793D02*
X243753Y-1407174D01*
X243753Y-1407174D02*
X253277Y-1369079D01*
X253277Y-1369079D02*
X262801Y-1350031D01*
X262801Y-1350031D02*
X272324Y-1340508D01*
X272324Y-1340508D02*
X291372Y-1330984D01*
X443753Y-1511936D02*
X453277Y-1521460D01*
X453277Y-1521460D02*
X443753Y-1530984D01*
X443753Y-1530984D02*
X434229Y-1521460D01*
X434229Y-1521460D02*
X443753Y-1511936D01*
X443753Y-1511936D02*
X443753Y-1530984D01*
X548515Y-1530984D02*
X586610Y-1530984D01*
X586610Y-1530984D02*
X605658Y-1521460D01*
X605658Y-1521460D02*
X615182Y-1511936D01*
X615182Y-1511936D02*
X634229Y-1483365D01*
X634229Y-1483365D02*
X643753Y-1445269D01*
X643753Y-1445269D02*
X643753Y-1369079D01*
X643753Y-1369079D02*
X634229Y-1350031D01*
X634229Y-1350031D02*
X624705Y-1340508D01*
X624705Y-1340508D02*
X605658Y-1330984D01*
X605658Y-1330984D02*
X567563Y-1330984D01*
X567563Y-1330984D02*
X548515Y-1340508D01*
X548515Y-1340508D02*
X538991Y-1350031D01*
X538991Y-1350031D02*
X529467Y-1369079D01*
X529467Y-1369079D02*
X529467Y-1416698D01*
X529467Y-1416698D02*
X538991Y-1435746D01*
X538991Y-1435746D02*
X548515Y-1445269D01*
X548515Y-1445269D02*
X567563Y-1454793D01*
X567563Y-1454793D02*
X605658Y-1454793D01*
X605658Y-1454793D02*
X624705Y-1445269D01*
X624705Y-1445269D02*
X634229Y-1435746D01*
X634229Y-1435746D02*
X643753Y-1416698D01*
X767562Y-1330984D02*
X786610Y-1330984D01*
X786610Y-1330984D02*
X805658Y-1340508D01*
X805658Y-1340508D02*
X815182Y-1350031D01*
X815182Y-1350031D02*
X824705Y-1369079D01*
X824705Y-1369079D02*
X834229Y-1407174D01*
X834229Y-1407174D02*
X834229Y-1454793D01*
X834229Y-1454793D02*
X824705Y-1492888D01*
X824705Y-1492888D02*
X815182Y-1511936D01*
X815182Y-1511936D02*
X805658Y-1521460D01*
X805658Y-1521460D02*
X786610Y-1530984D01*
X786610Y-1530984D02*
X767562Y-1530984D01*
X767562Y-1530984D02*
X748515Y-1521460D01*
X748515Y-1521460D02*
X738991Y-1511936D01*
X738991Y-1511936D02*
X729467Y-1492888D01*
X729467Y-1492888D02*
X719943Y-1454793D01*
X719943Y-1454793D02*
X719943Y-1407174D01*
X719943Y-1407174D02*
X729467Y-1369079D01*
X729467Y-1369079D02*
X738991Y-1350031D01*
X738991Y-1350031D02*
X748515Y-1340508D01*
X748515Y-1340508D02*
X767562Y-1330984D01*
X958039Y-1330984D02*
X977086Y-1330984D01*
X977086Y-1330984D02*
X996134Y-1340508D01*
X996134Y-1340508D02*
X1005658Y-1350031D01*
X1005658Y-1350031D02*
X1015182Y-1369079D01*
X1015182Y-1369079D02*
X1024705Y-1407174D01*
X1024705Y-1407174D02*
X1024705Y-1454793D01*
X1024705Y-1454793D02*
X1015182Y-1492888D01*
X1015182Y-1492888D02*
X1005658Y-1511936D01*
X1005658Y-1511936D02*
X996134Y-1521460D01*
X996134Y-1521460D02*
X977086Y-1530984D01*
X977086Y-1530984D02*
X958039Y-1530984D01*
X958039Y-1530984D02*
X938991Y-1521460D01*
X938991Y-1521460D02*
X929467Y-1511936D01*
X929467Y-1511936D02*
X919943Y-1492888D01*
X919943Y-1492888D02*
X910420Y-1454793D01*
X910420Y-1454793D02*
X910420Y-1407174D01*
X910420Y-1407174D02*
X919943Y-1369079D01*
X919943Y-1369079D02*
X929467Y-1350031D01*
X929467Y-1350031D02*
X938991Y-1340508D01*
X938991Y-1340508D02*
X958039Y-1330984D01*
X1110420Y-1530984D02*
X1110420Y-1397650D01*
X1110420Y-1416698D02*
X1119944Y-1407174D01*
X1119944Y-1407174D02*
X1138991Y-1397650D01*
X1138991Y-1397650D02*
X1167563Y-1397650D01*
X1167563Y-1397650D02*
X1186610Y-1407174D01*
X1186610Y-1407174D02*
X1196134Y-1426222D01*
X1196134Y-1426222D02*
X1196134Y-1530984D01*
X1196134Y-1426222D02*
X1205658Y-1407174D01*
X1205658Y-1407174D02*
X1224705Y-1397650D01*
X1224705Y-1397650D02*
X1253277Y-1397650D01*
X1253277Y-1397650D02*
X1272325Y-1407174D01*
X1272325Y-1407174D02*
X1281848Y-1426222D01*
X1281848Y-1426222D02*
X1281848Y-1530984D01*
X1377086Y-1530984D02*
X1377086Y-1397650D01*
X1377086Y-1416698D02*
X1386610Y-1407174D01*
X1386610Y-1407174D02*
X1405658Y-1397650D01*
X1405658Y-1397650D02*
X1434229Y-1397650D01*
X1434229Y-1397650D02*
X1453277Y-1407174D01*
X1453277Y-1407174D02*
X1462801Y-1426222D01*
X1462801Y-1426222D02*
X1462801Y-1530984D01*
X1462801Y-1426222D02*
X1472324Y-1407174D01*
X1472324Y-1407174D02*
X1491372Y-1397650D01*
X1491372Y-1397650D02*
X1519943Y-1397650D01*
X1519943Y-1397650D02*
X1538991Y-1407174D01*
X1538991Y-1407174D02*
X1548515Y-1426222D01*
X1548515Y-1426222D02*
X1548515Y-1530984D01*
X1938991Y-1321460D02*
X1767563Y-1578603D01*
X2196134Y-1330984D02*
X2215182Y-1330984D01*
X2215182Y-1330984D02*
X2234229Y-1340508D01*
X2234229Y-1340508D02*
X2243753Y-1350031D01*
X2243753Y-1350031D02*
X2253277Y-1369079D01*
X2253277Y-1369079D02*
X2262801Y-1407174D01*
X2262801Y-1407174D02*
X2262801Y-1454793D01*
X2262801Y-1454793D02*
X2253277Y-1492888D01*
X2253277Y-1492888D02*
X2243753Y-1511936D01*
X2243753Y-1511936D02*
X2234229Y-1521460D01*
X2234229Y-1521460D02*
X2215182Y-1530984D01*
X2215182Y-1530984D02*
X2196134Y-1530984D01*
X2196134Y-1530984D02*
X2177087Y-1521460D01*
X2177087Y-1521460D02*
X2167563Y-1511936D01*
X2167563Y-1511936D02*
X2158039Y-1492888D01*
X2158039Y-1492888D02*
X2148515Y-1454793D01*
X2148515Y-1454793D02*
X2148515Y-1407174D01*
X2148515Y-1407174D02*
X2158039Y-1369079D01*
X2158039Y-1369079D02*
X2167563Y-1350031D01*
X2167563Y-1350031D02*
X2177087Y-1340508D01*
X2177087Y-1340508D02*
X2196134Y-1330984D01*
X2348515Y-1511936D02*
X2358039Y-1521460D01*
X2358039Y-1521460D02*
X2348515Y-1530984D01*
X2348515Y-1530984D02*
X2338991Y-1521460D01*
X2338991Y-1521460D02*
X2348515Y-1511936D01*
X2348515Y-1511936D02*
X2348515Y-1530984D01*
X2481848Y-1330984D02*
X2500896Y-1330984D01*
X2500896Y-1330984D02*
X2519944Y-1340508D01*
X2519944Y-1340508D02*
X2529468Y-1350031D01*
X2529468Y-1350031D02*
X2538991Y-1369079D01*
X2538991Y-1369079D02*
X2548515Y-1407174D01*
X2548515Y-1407174D02*
X2548515Y-1454793D01*
X2548515Y-1454793D02*
X2538991Y-1492888D01*
X2538991Y-1492888D02*
X2529468Y-1511936D01*
X2529468Y-1511936D02*
X2519944Y-1521460D01*
X2519944Y-1521460D02*
X2500896Y-1530984D01*
X2500896Y-1530984D02*
X2481848Y-1530984D01*
X2481848Y-1530984D02*
X2462801Y-1521460D01*
X2462801Y-1521460D02*
X2453277Y-1511936D01*
X2453277Y-1511936D02*
X2443753Y-1492888D01*
X2443753Y-1492888D02*
X2434229Y-1454793D01*
X2434229Y-1454793D02*
X2434229Y-1407174D01*
X2434229Y-1407174D02*
X2443753Y-1369079D01*
X2443753Y-1369079D02*
X2453277Y-1350031D01*
X2453277Y-1350031D02*
X2462801Y-1340508D01*
X2462801Y-1340508D02*
X2481848Y-1330984D01*
X2615182Y-1330984D02*
X2738991Y-1330984D01*
X2738991Y-1330984D02*
X2672325Y-1407174D01*
X2672325Y-1407174D02*
X2700896Y-1407174D01*
X2700896Y-1407174D02*
X2719944Y-1416698D01*
X2719944Y-1416698D02*
X2729468Y-1426222D01*
X2729468Y-1426222D02*
X2738991Y-1445269D01*
X2738991Y-1445269D02*
X2738991Y-1492888D01*
X2738991Y-1492888D02*
X2729468Y-1511936D01*
X2729468Y-1511936D02*
X2719944Y-1521460D01*
X2719944Y-1521460D02*
X2700896Y-1530984D01*
X2700896Y-1530984D02*
X2643753Y-1530984D01*
X2643753Y-1530984D02*
X2624706Y-1521460D01*
X2624706Y-1521460D02*
X2615182Y-1511936D01*
X2919944Y-1330984D02*
X2824706Y-1330984D01*
X2824706Y-1330984D02*
X2815182Y-1426222D01*
X2815182Y-1426222D02*
X2824706Y-1416698D01*
X2824706Y-1416698D02*
X2843753Y-1407174D01*
X2843753Y-1407174D02*
X2891372Y-1407174D01*
X2891372Y-1407174D02*
X2910420Y-1416698D01*
X2910420Y-1416698D02*
X2919944Y-1426222D01*
X2919944Y-1426222D02*
X2929467Y-1445269D01*
X2929467Y-1445269D02*
X2929467Y-1492888D01*
X2929467Y-1492888D02*
X2919944Y-1511936D01*
X2919944Y-1511936D02*
X2910420Y-1521460D01*
X2910420Y-1521460D02*
X2891372Y-1530984D01*
X2891372Y-1530984D02*
X2843753Y-1530984D01*
X2843753Y-1530984D02*
X2824706Y-1521460D01*
X2824706Y-1521460D02*
X2815182Y-1511936D01*
X3100896Y-1397650D02*
X3100896Y-1530984D01*
X3053277Y-1321460D02*
X3005658Y-1464317D01*
X3005658Y-1464317D02*
X3129467Y-1464317D01*
X3196134Y-1330984D02*
X3196134Y-1369079D01*
X3272325Y-1330984D02*
X3272325Y-1369079D01*
X3567563Y-1607174D02*
X3558039Y-1597650D01*
X3558039Y-1597650D02*
X3538991Y-1569079D01*
X3538991Y-1569079D02*
X3529468Y-1550031D01*
X3529468Y-1550031D02*
X3519944Y-1521460D01*
X3519944Y-1521460D02*
X3510420Y-1473841D01*
X3510420Y-1473841D02*
X3510420Y-1435746D01*
X3510420Y-1435746D02*
X3519944Y-1388127D01*
X3519944Y-1388127D02*
X3529468Y-1359555D01*
X3529468Y-1359555D02*
X3538991Y-1340508D01*
X3538991Y-1340508D02*
X3558039Y-1311936D01*
X3558039Y-1311936D02*
X3567563Y-1302412D01*
X3634229Y-1350031D02*
X3643753Y-1340508D01*
X3643753Y-1340508D02*
X3662801Y-1330984D01*
X3662801Y-1330984D02*
X3710420Y-1330984D01*
X3710420Y-1330984D02*
X3729468Y-1340508D01*
X3729468Y-1340508D02*
X3738991Y-1350031D01*
X3738991Y-1350031D02*
X3748515Y-1369079D01*
X3748515Y-1369079D02*
X3748515Y-1388127D01*
X3748515Y-1388127D02*
X3738991Y-1416698D01*
X3738991Y-1416698D02*
X3624706Y-1530984D01*
X3624706Y-1530984D02*
X3748515Y-1530984D01*
X3872325Y-1330984D02*
X3891372Y-1330984D01*
X3891372Y-1330984D02*
X3910420Y-1340508D01*
X3910420Y-1340508D02*
X3919944Y-1350031D01*
X3919944Y-1350031D02*
X3929468Y-1369079D01*
X3929468Y-1369079D02*
X3938991Y-1407174D01*
X3938991Y-1407174D02*
X3938991Y-1454793D01*
X3938991Y-1454793D02*
X3929468Y-1492888D01*
X3929468Y-1492888D02*
X3919944Y-1511936D01*
X3919944Y-1511936D02*
X3910420Y-1521460D01*
X3910420Y-1521460D02*
X3891372Y-1530984D01*
X3891372Y-1530984D02*
X3872325Y-1530984D01*
X3872325Y-1530984D02*
X3853277Y-1521460D01*
X3853277Y-1521460D02*
X3843753Y-1511936D01*
X3843753Y-1511936D02*
X3834229Y-1492888D01*
X3834229Y-1492888D02*
X3824706Y-1454793D01*
X3824706Y-1454793D02*
X3824706Y-1407174D01*
X3824706Y-1407174D02*
X3834229Y-1369079D01*
X3834229Y-1369079D02*
X3843753Y-1350031D01*
X3843753Y-1350031D02*
X3853277Y-1340508D01*
X3853277Y-1340508D02*
X3872325Y-1330984D01*
X4177087Y-1530984D02*
X4177087Y-1330984D01*
X4262801Y-1530984D02*
X4262801Y-1426222D01*
X4262801Y-1426222D02*
X4253277Y-1407174D01*
X4253277Y-1407174D02*
X4234230Y-1397650D01*
X4234230Y-1397650D02*
X4205658Y-1397650D01*
X4205658Y-1397650D02*
X4186610Y-1407174D01*
X4186610Y-1407174D02*
X4177087Y-1416698D01*
X4386611Y-1530984D02*
X4367563Y-1521460D01*
X4367563Y-1521460D02*
X4358039Y-1511936D01*
X4358039Y-1511936D02*
X4348515Y-1492888D01*
X4348515Y-1492888D02*
X4348515Y-1435746D01*
X4348515Y-1435746D02*
X4358039Y-1416698D01*
X4358039Y-1416698D02*
X4367563Y-1407174D01*
X4367563Y-1407174D02*
X4386611Y-1397650D01*
X4386611Y-1397650D02*
X4415182Y-1397650D01*
X4415182Y-1397650D02*
X4434230Y-1407174D01*
X4434230Y-1407174D02*
X4443753Y-1416698D01*
X4443753Y-1416698D02*
X4453277Y-1435746D01*
X4453277Y-1435746D02*
X4453277Y-1492888D01*
X4453277Y-1492888D02*
X4443753Y-1511936D01*
X4443753Y-1511936D02*
X4434230Y-1521460D01*
X4434230Y-1521460D02*
X4415182Y-1530984D01*
X4415182Y-1530984D02*
X4386611Y-1530984D01*
X4567563Y-1530984D02*
X4548515Y-1521460D01*
X4548515Y-1521460D02*
X4538992Y-1502412D01*
X4538992Y-1502412D02*
X4538992Y-1330984D01*
X4719944Y-1521460D02*
X4700896Y-1530984D01*
X4700896Y-1530984D02*
X4662801Y-1530984D01*
X4662801Y-1530984D02*
X4643753Y-1521460D01*
X4643753Y-1521460D02*
X4634230Y-1502412D01*
X4634230Y-1502412D02*
X4634230Y-1426222D01*
X4634230Y-1426222D02*
X4643753Y-1407174D01*
X4643753Y-1407174D02*
X4662801Y-1397650D01*
X4662801Y-1397650D02*
X4700896Y-1397650D01*
X4700896Y-1397650D02*
X4719944Y-1407174D01*
X4719944Y-1407174D02*
X4729468Y-1426222D01*
X4729468Y-1426222D02*
X4729468Y-1445269D01*
X4729468Y-1445269D02*
X4634230Y-1464317D01*
X4805658Y-1521460D02*
X4824706Y-1530984D01*
X4824706Y-1530984D02*
X4862801Y-1530984D01*
X4862801Y-1530984D02*
X4881849Y-1521460D01*
X4881849Y-1521460D02*
X4891373Y-1502412D01*
X4891373Y-1502412D02*
X4891373Y-1492888D01*
X4891373Y-1492888D02*
X4881849Y-1473841D01*
X4881849Y-1473841D02*
X4862801Y-1464317D01*
X4862801Y-1464317D02*
X4834230Y-1464317D01*
X4834230Y-1464317D02*
X4815182Y-1454793D01*
X4815182Y-1454793D02*
X4805658Y-1435746D01*
X4805658Y-1435746D02*
X4805658Y-1426222D01*
X4805658Y-1426222D02*
X4815182Y-1407174D01*
X4815182Y-1407174D02*
X4834230Y-1397650D01*
X4834230Y-1397650D02*
X4862801Y-1397650D01*
X4862801Y-1397650D02*
X4881849Y-1407174D01*
X4958039Y-1607174D02*
X4967563Y-1597650D01*
X4967563Y-1597650D02*
X4986611Y-1569079D01*
X4986611Y-1569079D02*
X4996134Y-1550031D01*
X4996134Y-1550031D02*
X5005658Y-1521460D01*
X5005658Y-1521460D02*
X5015182Y-1473841D01*
X5015182Y-1473841D02*
X5015182Y-1435746D01*
X5015182Y-1435746D02*
X5005658Y-1388127D01*
X5005658Y-1388127D02*
X4996134Y-1359555D01*
X4996134Y-1359555D02*
X4986611Y-1340508D01*
X4986611Y-1340508D02*
X4967563Y-1311936D01*
X4967563Y-1311936D02*
X4958039Y-1302412D01*
D12*
X-57500Y-1753500D02*
X-7500Y-1703500D01*
X-57500Y-1653500D01*
X-107500Y-1703500D01*
X-57500Y-1753500D01*
D11*
X358039Y-1794984D02*
X243753Y-1794984D01*
X300896Y-1794984D02*
X300896Y-1594984D01*
X300896Y-1594984D02*
X281848Y-1623555D01*
X281848Y-1623555D02*
X262801Y-1642603D01*
X262801Y-1642603D02*
X243753Y-1652127D01*
X443753Y-1775936D02*
X453277Y-1785460D01*
X453277Y-1785460D02*
X443753Y-1794984D01*
X443753Y-1794984D02*
X434229Y-1785460D01*
X434229Y-1785460D02*
X443753Y-1775936D01*
X443753Y-1775936D02*
X443753Y-1794984D01*
X577086Y-1594984D02*
X596134Y-1594984D01*
X596134Y-1594984D02*
X615182Y-1604508D01*
X615182Y-1604508D02*
X624705Y-1614031D01*
X624705Y-1614031D02*
X634229Y-1633079D01*
X634229Y-1633079D02*
X643753Y-1671174D01*
X643753Y-1671174D02*
X643753Y-1718793D01*
X643753Y-1718793D02*
X634229Y-1756888D01*
X634229Y-1756888D02*
X624705Y-1775936D01*
X624705Y-1775936D02*
X615182Y-1785460D01*
X615182Y-1785460D02*
X596134Y-1794984D01*
X596134Y-1794984D02*
X577086Y-1794984D01*
X577086Y-1794984D02*
X558039Y-1785460D01*
X558039Y-1785460D02*
X548515Y-1775936D01*
X548515Y-1775936D02*
X538991Y-1756888D01*
X538991Y-1756888D02*
X529467Y-1718793D01*
X529467Y-1718793D02*
X529467Y-1671174D01*
X529467Y-1671174D02*
X538991Y-1633079D01*
X538991Y-1633079D02*
X548515Y-1614031D01*
X548515Y-1614031D02*
X558039Y-1604508D01*
X558039Y-1604508D02*
X577086Y-1594984D01*
X767562Y-1594984D02*
X786610Y-1594984D01*
X786610Y-1594984D02*
X805658Y-1604508D01*
X805658Y-1604508D02*
X815182Y-1614031D01*
X815182Y-1614031D02*
X824705Y-1633079D01*
X824705Y-1633079D02*
X834229Y-1671174D01*
X834229Y-1671174D02*
X834229Y-1718793D01*
X834229Y-1718793D02*
X824705Y-1756888D01*
X824705Y-1756888D02*
X815182Y-1775936D01*
X815182Y-1775936D02*
X805658Y-1785460D01*
X805658Y-1785460D02*
X786610Y-1794984D01*
X786610Y-1794984D02*
X767562Y-1794984D01*
X767562Y-1794984D02*
X748515Y-1785460D01*
X748515Y-1785460D02*
X738991Y-1775936D01*
X738991Y-1775936D02*
X729467Y-1756888D01*
X729467Y-1756888D02*
X719943Y-1718793D01*
X719943Y-1718793D02*
X719943Y-1671174D01*
X719943Y-1671174D02*
X729467Y-1633079D01*
X729467Y-1633079D02*
X738991Y-1614031D01*
X738991Y-1614031D02*
X748515Y-1604508D01*
X748515Y-1604508D02*
X767562Y-1594984D01*
X958039Y-1594984D02*
X977086Y-1594984D01*
X977086Y-1594984D02*
X996134Y-1604508D01*
X996134Y-1604508D02*
X1005658Y-1614031D01*
X1005658Y-1614031D02*
X1015182Y-1633079D01*
X1015182Y-1633079D02*
X1024705Y-1671174D01*
X1024705Y-1671174D02*
X1024705Y-1718793D01*
X1024705Y-1718793D02*
X1015182Y-1756888D01*
X1015182Y-1756888D02*
X1005658Y-1775936D01*
X1005658Y-1775936D02*
X996134Y-1785460D01*
X996134Y-1785460D02*
X977086Y-1794984D01*
X977086Y-1794984D02*
X958039Y-1794984D01*
X958039Y-1794984D02*
X938991Y-1785460D01*
X938991Y-1785460D02*
X929467Y-1775936D01*
X929467Y-1775936D02*
X919943Y-1756888D01*
X919943Y-1756888D02*
X910420Y-1718793D01*
X910420Y-1718793D02*
X910420Y-1671174D01*
X910420Y-1671174D02*
X919943Y-1633079D01*
X919943Y-1633079D02*
X929467Y-1614031D01*
X929467Y-1614031D02*
X938991Y-1604508D01*
X938991Y-1604508D02*
X958039Y-1594984D01*
X1110420Y-1794984D02*
X1110420Y-1661650D01*
X1110420Y-1680698D02*
X1119944Y-1671174D01*
X1119944Y-1671174D02*
X1138991Y-1661650D01*
X1138991Y-1661650D02*
X1167563Y-1661650D01*
X1167563Y-1661650D02*
X1186610Y-1671174D01*
X1186610Y-1671174D02*
X1196134Y-1690222D01*
X1196134Y-1690222D02*
X1196134Y-1794984D01*
X1196134Y-1690222D02*
X1205658Y-1671174D01*
X1205658Y-1671174D02*
X1224705Y-1661650D01*
X1224705Y-1661650D02*
X1253277Y-1661650D01*
X1253277Y-1661650D02*
X1272325Y-1671174D01*
X1272325Y-1671174D02*
X1281848Y-1690222D01*
X1281848Y-1690222D02*
X1281848Y-1794984D01*
X1377086Y-1794984D02*
X1377086Y-1661650D01*
X1377086Y-1680698D02*
X1386610Y-1671174D01*
X1386610Y-1671174D02*
X1405658Y-1661650D01*
X1405658Y-1661650D02*
X1434229Y-1661650D01*
X1434229Y-1661650D02*
X1453277Y-1671174D01*
X1453277Y-1671174D02*
X1462801Y-1690222D01*
X1462801Y-1690222D02*
X1462801Y-1794984D01*
X1462801Y-1690222D02*
X1472324Y-1671174D01*
X1472324Y-1671174D02*
X1491372Y-1661650D01*
X1491372Y-1661650D02*
X1519943Y-1661650D01*
X1519943Y-1661650D02*
X1538991Y-1671174D01*
X1538991Y-1671174D02*
X1548515Y-1690222D01*
X1548515Y-1690222D02*
X1548515Y-1794984D01*
X1938991Y-1585460D02*
X1767563Y-1842603D01*
X2196134Y-1594984D02*
X2215182Y-1594984D01*
X2215182Y-1594984D02*
X2234229Y-1604508D01*
X2234229Y-1604508D02*
X2243753Y-1614031D01*
X2243753Y-1614031D02*
X2253277Y-1633079D01*
X2253277Y-1633079D02*
X2262801Y-1671174D01*
X2262801Y-1671174D02*
X2262801Y-1718793D01*
X2262801Y-1718793D02*
X2253277Y-1756888D01*
X2253277Y-1756888D02*
X2243753Y-1775936D01*
X2243753Y-1775936D02*
X2234229Y-1785460D01*
X2234229Y-1785460D02*
X2215182Y-1794984D01*
X2215182Y-1794984D02*
X2196134Y-1794984D01*
X2196134Y-1794984D02*
X2177087Y-1785460D01*
X2177087Y-1785460D02*
X2167563Y-1775936D01*
X2167563Y-1775936D02*
X2158039Y-1756888D01*
X2158039Y-1756888D02*
X2148515Y-1718793D01*
X2148515Y-1718793D02*
X2148515Y-1671174D01*
X2148515Y-1671174D02*
X2158039Y-1633079D01*
X2158039Y-1633079D02*
X2167563Y-1614031D01*
X2167563Y-1614031D02*
X2177087Y-1604508D01*
X2177087Y-1604508D02*
X2196134Y-1594984D01*
X2348515Y-1775936D02*
X2358039Y-1785460D01*
X2358039Y-1785460D02*
X2348515Y-1794984D01*
X2348515Y-1794984D02*
X2338991Y-1785460D01*
X2338991Y-1785460D02*
X2348515Y-1775936D01*
X2348515Y-1775936D02*
X2348515Y-1794984D01*
X2481848Y-1594984D02*
X2500896Y-1594984D01*
X2500896Y-1594984D02*
X2519944Y-1604508D01*
X2519944Y-1604508D02*
X2529468Y-1614031D01*
X2529468Y-1614031D02*
X2538991Y-1633079D01*
X2538991Y-1633079D02*
X2548515Y-1671174D01*
X2548515Y-1671174D02*
X2548515Y-1718793D01*
X2548515Y-1718793D02*
X2538991Y-1756888D01*
X2538991Y-1756888D02*
X2529468Y-1775936D01*
X2529468Y-1775936D02*
X2519944Y-1785460D01*
X2519944Y-1785460D02*
X2500896Y-1794984D01*
X2500896Y-1794984D02*
X2481848Y-1794984D01*
X2481848Y-1794984D02*
X2462801Y-1785460D01*
X2462801Y-1785460D02*
X2453277Y-1775936D01*
X2453277Y-1775936D02*
X2443753Y-1756888D01*
X2443753Y-1756888D02*
X2434229Y-1718793D01*
X2434229Y-1718793D02*
X2434229Y-1671174D01*
X2434229Y-1671174D02*
X2443753Y-1633079D01*
X2443753Y-1633079D02*
X2453277Y-1614031D01*
X2453277Y-1614031D02*
X2462801Y-1604508D01*
X2462801Y-1604508D02*
X2481848Y-1594984D01*
X2615182Y-1594984D02*
X2738991Y-1594984D01*
X2738991Y-1594984D02*
X2672325Y-1671174D01*
X2672325Y-1671174D02*
X2700896Y-1671174D01*
X2700896Y-1671174D02*
X2719944Y-1680698D01*
X2719944Y-1680698D02*
X2729468Y-1690222D01*
X2729468Y-1690222D02*
X2738991Y-1709269D01*
X2738991Y-1709269D02*
X2738991Y-1756888D01*
X2738991Y-1756888D02*
X2729468Y-1775936D01*
X2729468Y-1775936D02*
X2719944Y-1785460D01*
X2719944Y-1785460D02*
X2700896Y-1794984D01*
X2700896Y-1794984D02*
X2643753Y-1794984D01*
X2643753Y-1794984D02*
X2624706Y-1785460D01*
X2624706Y-1785460D02*
X2615182Y-1775936D01*
X2834229Y-1794984D02*
X2872325Y-1794984D01*
X2872325Y-1794984D02*
X2891372Y-1785460D01*
X2891372Y-1785460D02*
X2900896Y-1775936D01*
X2900896Y-1775936D02*
X2919944Y-1747365D01*
X2919944Y-1747365D02*
X2929467Y-1709269D01*
X2929467Y-1709269D02*
X2929467Y-1633079D01*
X2929467Y-1633079D02*
X2919944Y-1614031D01*
X2919944Y-1614031D02*
X2910420Y-1604508D01*
X2910420Y-1604508D02*
X2891372Y-1594984D01*
X2891372Y-1594984D02*
X2853277Y-1594984D01*
X2853277Y-1594984D02*
X2834229Y-1604508D01*
X2834229Y-1604508D02*
X2824706Y-1614031D01*
X2824706Y-1614031D02*
X2815182Y-1633079D01*
X2815182Y-1633079D02*
X2815182Y-1680698D01*
X2815182Y-1680698D02*
X2824706Y-1699746D01*
X2824706Y-1699746D02*
X2834229Y-1709269D01*
X2834229Y-1709269D02*
X2853277Y-1718793D01*
X2853277Y-1718793D02*
X2891372Y-1718793D01*
X2891372Y-1718793D02*
X2910420Y-1709269D01*
X2910420Y-1709269D02*
X2919944Y-1699746D01*
X2919944Y-1699746D02*
X2929467Y-1680698D01*
X3100896Y-1661650D02*
X3100896Y-1794984D01*
X3053277Y-1585460D02*
X3005658Y-1728317D01*
X3005658Y-1728317D02*
X3129467Y-1728317D01*
X3196134Y-1594984D02*
X3196134Y-1633079D01*
X3272325Y-1594984D02*
X3272325Y-1633079D01*
X3567563Y-1871174D02*
X3558039Y-1861650D01*
X3558039Y-1861650D02*
X3538991Y-1833079D01*
X3538991Y-1833079D02*
X3529468Y-1814031D01*
X3529468Y-1814031D02*
X3519944Y-1785460D01*
X3519944Y-1785460D02*
X3510420Y-1737841D01*
X3510420Y-1737841D02*
X3510420Y-1699746D01*
X3510420Y-1699746D02*
X3519944Y-1652127D01*
X3519944Y-1652127D02*
X3529468Y-1623555D01*
X3529468Y-1623555D02*
X3538991Y-1604508D01*
X3538991Y-1604508D02*
X3558039Y-1575936D01*
X3558039Y-1575936D02*
X3567563Y-1566412D01*
X3634229Y-1614031D02*
X3643753Y-1604508D01*
X3643753Y-1604508D02*
X3662801Y-1594984D01*
X3662801Y-1594984D02*
X3710420Y-1594984D01*
X3710420Y-1594984D02*
X3729468Y-1604508D01*
X3729468Y-1604508D02*
X3738991Y-1614031D01*
X3738991Y-1614031D02*
X3748515Y-1633079D01*
X3748515Y-1633079D02*
X3748515Y-1652127D01*
X3748515Y-1652127D02*
X3738991Y-1680698D01*
X3738991Y-1680698D02*
X3624706Y-1794984D01*
X3624706Y-1794984D02*
X3748515Y-1794984D01*
X3986610Y-1794984D02*
X3986610Y-1594984D01*
X4072325Y-1794984D02*
X4072325Y-1690222D01*
X4072325Y-1690222D02*
X4062801Y-1671174D01*
X4062801Y-1671174D02*
X4043753Y-1661650D01*
X4043753Y-1661650D02*
X4015182Y-1661650D01*
X4015182Y-1661650D02*
X3996134Y-1671174D01*
X3996134Y-1671174D02*
X3986610Y-1680698D01*
X4196134Y-1794984D02*
X4177087Y-1785460D01*
X4177087Y-1785460D02*
X4167563Y-1775936D01*
X4167563Y-1775936D02*
X4158039Y-1756888D01*
X4158039Y-1756888D02*
X4158039Y-1699746D01*
X4158039Y-1699746D02*
X4167563Y-1680698D01*
X4167563Y-1680698D02*
X4177087Y-1671174D01*
X4177087Y-1671174D02*
X4196134Y-1661650D01*
X4196134Y-1661650D02*
X4224706Y-1661650D01*
X4224706Y-1661650D02*
X4243753Y-1671174D01*
X4243753Y-1671174D02*
X4253277Y-1680698D01*
X4253277Y-1680698D02*
X4262801Y-1699746D01*
X4262801Y-1699746D02*
X4262801Y-1756888D01*
X4262801Y-1756888D02*
X4253277Y-1775936D01*
X4253277Y-1775936D02*
X4243753Y-1785460D01*
X4243753Y-1785460D02*
X4224706Y-1794984D01*
X4224706Y-1794984D02*
X4196134Y-1794984D01*
X4377087Y-1794984D02*
X4358039Y-1785460D01*
X4358039Y-1785460D02*
X4348515Y-1766412D01*
X4348515Y-1766412D02*
X4348515Y-1594984D01*
X4529468Y-1785460D02*
X4510420Y-1794984D01*
X4510420Y-1794984D02*
X4472325Y-1794984D01*
X4472325Y-1794984D02*
X4453277Y-1785460D01*
X4453277Y-1785460D02*
X4443753Y-1766412D01*
X4443753Y-1766412D02*
X4443753Y-1690222D01*
X4443753Y-1690222D02*
X4453277Y-1671174D01*
X4453277Y-1671174D02*
X4472325Y-1661650D01*
X4472325Y-1661650D02*
X4510420Y-1661650D01*
X4510420Y-1661650D02*
X4529468Y-1671174D01*
X4529468Y-1671174D02*
X4538992Y-1690222D01*
X4538992Y-1690222D02*
X4538992Y-1709269D01*
X4538992Y-1709269D02*
X4443753Y-1728317D01*
X4615182Y-1785460D02*
X4634230Y-1794984D01*
X4634230Y-1794984D02*
X4672325Y-1794984D01*
X4672325Y-1794984D02*
X4691373Y-1785460D01*
X4691373Y-1785460D02*
X4700896Y-1766412D01*
X4700896Y-1766412D02*
X4700896Y-1756888D01*
X4700896Y-1756888D02*
X4691373Y-1737841D01*
X4691373Y-1737841D02*
X4672325Y-1728317D01*
X4672325Y-1728317D02*
X4643753Y-1728317D01*
X4643753Y-1728317D02*
X4624706Y-1718793D01*
X4624706Y-1718793D02*
X4615182Y-1699746D01*
X4615182Y-1699746D02*
X4615182Y-1690222D01*
X4615182Y-1690222D02*
X4624706Y-1671174D01*
X4624706Y-1671174D02*
X4643753Y-1661650D01*
X4643753Y-1661650D02*
X4672325Y-1661650D01*
X4672325Y-1661650D02*
X4691373Y-1671174D01*
X4767563Y-1871174D02*
X4777087Y-1861650D01*
X4777087Y-1861650D02*
X4796134Y-1833079D01*
X4796134Y-1833079D02*
X4805658Y-1814031D01*
X4805658Y-1814031D02*
X4815182Y-1785460D01*
X4815182Y-1785460D02*
X4824706Y-1737841D01*
X4824706Y-1737841D02*
X4824706Y-1699746D01*
X4824706Y-1699746D02*
X4815182Y-1652127D01*
X4815182Y-1652127D02*
X4805658Y-1623555D01*
X4805658Y-1623555D02*
X4796134Y-1604508D01*
X4796134Y-1604508D02*
X4777087Y-1575936D01*
X4777087Y-1575936D02*
X4767563Y-1566412D01*
D12*
X-107500Y-1917500D02*
X-7500Y-2017500D01*
X-7500Y-1917500D02*
X-107500Y-2017500D01*
X-7500Y-1967500D02*
G75*
G02*
X-107500Y-1967500I-50000J0D01*
G01*
X-107500Y-1967500D02*
G75*
G02*
X-7500Y-1967500I50000J0D01*
G01*
D11*
X358039Y-2058984D02*
X243753Y-2058984D01*
X300896Y-2058984D02*
X300896Y-1858984D01*
X300896Y-1858984D02*
X281848Y-1887555D01*
X281848Y-1887555D02*
X262801Y-1906603D01*
X262801Y-1906603D02*
X243753Y-1916127D01*
X443753Y-2039936D02*
X453277Y-2049460D01*
X453277Y-2049460D02*
X443753Y-2058984D01*
X443753Y-2058984D02*
X434229Y-2049460D01*
X434229Y-2049460D02*
X443753Y-2039936D01*
X443753Y-2039936D02*
X443753Y-2058984D01*
X577086Y-1858984D02*
X596134Y-1858984D01*
X596134Y-1858984D02*
X615182Y-1868508D01*
X615182Y-1868508D02*
X624705Y-1878031D01*
X624705Y-1878031D02*
X634229Y-1897079D01*
X634229Y-1897079D02*
X643753Y-1935174D01*
X643753Y-1935174D02*
X643753Y-1982793D01*
X643753Y-1982793D02*
X634229Y-2020888D01*
X634229Y-2020888D02*
X624705Y-2039936D01*
X624705Y-2039936D02*
X615182Y-2049460D01*
X615182Y-2049460D02*
X596134Y-2058984D01*
X596134Y-2058984D02*
X577086Y-2058984D01*
X577086Y-2058984D02*
X558039Y-2049460D01*
X558039Y-2049460D02*
X548515Y-2039936D01*
X548515Y-2039936D02*
X538991Y-2020888D01*
X538991Y-2020888D02*
X529467Y-1982793D01*
X529467Y-1982793D02*
X529467Y-1935174D01*
X529467Y-1935174D02*
X538991Y-1897079D01*
X538991Y-1897079D02*
X548515Y-1878031D01*
X548515Y-1878031D02*
X558039Y-1868508D01*
X558039Y-1868508D02*
X577086Y-1858984D01*
X767562Y-1858984D02*
X786610Y-1858984D01*
X786610Y-1858984D02*
X805658Y-1868508D01*
X805658Y-1868508D02*
X815182Y-1878031D01*
X815182Y-1878031D02*
X824705Y-1897079D01*
X824705Y-1897079D02*
X834229Y-1935174D01*
X834229Y-1935174D02*
X834229Y-1982793D01*
X834229Y-1982793D02*
X824705Y-2020888D01*
X824705Y-2020888D02*
X815182Y-2039936D01*
X815182Y-2039936D02*
X805658Y-2049460D01*
X805658Y-2049460D02*
X786610Y-2058984D01*
X786610Y-2058984D02*
X767562Y-2058984D01*
X767562Y-2058984D02*
X748515Y-2049460D01*
X748515Y-2049460D02*
X738991Y-2039936D01*
X738991Y-2039936D02*
X729467Y-2020888D01*
X729467Y-2020888D02*
X719943Y-1982793D01*
X719943Y-1982793D02*
X719943Y-1935174D01*
X719943Y-1935174D02*
X729467Y-1897079D01*
X729467Y-1897079D02*
X738991Y-1878031D01*
X738991Y-1878031D02*
X748515Y-1868508D01*
X748515Y-1868508D02*
X767562Y-1858984D01*
X958039Y-1858984D02*
X977086Y-1858984D01*
X977086Y-1858984D02*
X996134Y-1868508D01*
X996134Y-1868508D02*
X1005658Y-1878031D01*
X1005658Y-1878031D02*
X1015182Y-1897079D01*
X1015182Y-1897079D02*
X1024705Y-1935174D01*
X1024705Y-1935174D02*
X1024705Y-1982793D01*
X1024705Y-1982793D02*
X1015182Y-2020888D01*
X1015182Y-2020888D02*
X1005658Y-2039936D01*
X1005658Y-2039936D02*
X996134Y-2049460D01*
X996134Y-2049460D02*
X977086Y-2058984D01*
X977086Y-2058984D02*
X958039Y-2058984D01*
X958039Y-2058984D02*
X938991Y-2049460D01*
X938991Y-2049460D02*
X929467Y-2039936D01*
X929467Y-2039936D02*
X919943Y-2020888D01*
X919943Y-2020888D02*
X910420Y-1982793D01*
X910420Y-1982793D02*
X910420Y-1935174D01*
X910420Y-1935174D02*
X919943Y-1897079D01*
X919943Y-1897079D02*
X929467Y-1878031D01*
X929467Y-1878031D02*
X938991Y-1868508D01*
X938991Y-1868508D02*
X958039Y-1858984D01*
X1110420Y-2058984D02*
X1110420Y-1925650D01*
X1110420Y-1944698D02*
X1119944Y-1935174D01*
X1119944Y-1935174D02*
X1138991Y-1925650D01*
X1138991Y-1925650D02*
X1167563Y-1925650D01*
X1167563Y-1925650D02*
X1186610Y-1935174D01*
X1186610Y-1935174D02*
X1196134Y-1954222D01*
X1196134Y-1954222D02*
X1196134Y-2058984D01*
X1196134Y-1954222D02*
X1205658Y-1935174D01*
X1205658Y-1935174D02*
X1224705Y-1925650D01*
X1224705Y-1925650D02*
X1253277Y-1925650D01*
X1253277Y-1925650D02*
X1272325Y-1935174D01*
X1272325Y-1935174D02*
X1281848Y-1954222D01*
X1281848Y-1954222D02*
X1281848Y-2058984D01*
X1377086Y-2058984D02*
X1377086Y-1925650D01*
X1377086Y-1944698D02*
X1386610Y-1935174D01*
X1386610Y-1935174D02*
X1405658Y-1925650D01*
X1405658Y-1925650D02*
X1434229Y-1925650D01*
X1434229Y-1925650D02*
X1453277Y-1935174D01*
X1453277Y-1935174D02*
X1462801Y-1954222D01*
X1462801Y-1954222D02*
X1462801Y-2058984D01*
X1462801Y-1954222D02*
X1472324Y-1935174D01*
X1472324Y-1935174D02*
X1491372Y-1925650D01*
X1491372Y-1925650D02*
X1519943Y-1925650D01*
X1519943Y-1925650D02*
X1538991Y-1935174D01*
X1538991Y-1935174D02*
X1548515Y-1954222D01*
X1548515Y-1954222D02*
X1548515Y-2058984D01*
X1938991Y-1849460D02*
X1767563Y-2106603D01*
X2196134Y-1858984D02*
X2215182Y-1858984D01*
X2215182Y-1858984D02*
X2234229Y-1868508D01*
X2234229Y-1868508D02*
X2243753Y-1878031D01*
X2243753Y-1878031D02*
X2253277Y-1897079D01*
X2253277Y-1897079D02*
X2262801Y-1935174D01*
X2262801Y-1935174D02*
X2262801Y-1982793D01*
X2262801Y-1982793D02*
X2253277Y-2020888D01*
X2253277Y-2020888D02*
X2243753Y-2039936D01*
X2243753Y-2039936D02*
X2234229Y-2049460D01*
X2234229Y-2049460D02*
X2215182Y-2058984D01*
X2215182Y-2058984D02*
X2196134Y-2058984D01*
X2196134Y-2058984D02*
X2177087Y-2049460D01*
X2177087Y-2049460D02*
X2167563Y-2039936D01*
X2167563Y-2039936D02*
X2158039Y-2020888D01*
X2158039Y-2020888D02*
X2148515Y-1982793D01*
X2148515Y-1982793D02*
X2148515Y-1935174D01*
X2148515Y-1935174D02*
X2158039Y-1897079D01*
X2158039Y-1897079D02*
X2167563Y-1878031D01*
X2167563Y-1878031D02*
X2177087Y-1868508D01*
X2177087Y-1868508D02*
X2196134Y-1858984D01*
X2348515Y-2039936D02*
X2358039Y-2049460D01*
X2358039Y-2049460D02*
X2348515Y-2058984D01*
X2348515Y-2058984D02*
X2338991Y-2049460D01*
X2338991Y-2049460D02*
X2348515Y-2039936D01*
X2348515Y-2039936D02*
X2348515Y-2058984D01*
X2481848Y-1858984D02*
X2500896Y-1858984D01*
X2500896Y-1858984D02*
X2519944Y-1868508D01*
X2519944Y-1868508D02*
X2529468Y-1878031D01*
X2529468Y-1878031D02*
X2538991Y-1897079D01*
X2538991Y-1897079D02*
X2548515Y-1935174D01*
X2548515Y-1935174D02*
X2548515Y-1982793D01*
X2548515Y-1982793D02*
X2538991Y-2020888D01*
X2538991Y-2020888D02*
X2529468Y-2039936D01*
X2529468Y-2039936D02*
X2519944Y-2049460D01*
X2519944Y-2049460D02*
X2500896Y-2058984D01*
X2500896Y-2058984D02*
X2481848Y-2058984D01*
X2481848Y-2058984D02*
X2462801Y-2049460D01*
X2462801Y-2049460D02*
X2453277Y-2039936D01*
X2453277Y-2039936D02*
X2443753Y-2020888D01*
X2443753Y-2020888D02*
X2434229Y-1982793D01*
X2434229Y-1982793D02*
X2434229Y-1935174D01*
X2434229Y-1935174D02*
X2443753Y-1897079D01*
X2443753Y-1897079D02*
X2453277Y-1878031D01*
X2453277Y-1878031D02*
X2462801Y-1868508D01*
X2462801Y-1868508D02*
X2481848Y-1858984D01*
X2615182Y-1858984D02*
X2738991Y-1858984D01*
X2738991Y-1858984D02*
X2672325Y-1935174D01*
X2672325Y-1935174D02*
X2700896Y-1935174D01*
X2700896Y-1935174D02*
X2719944Y-1944698D01*
X2719944Y-1944698D02*
X2729468Y-1954222D01*
X2729468Y-1954222D02*
X2738991Y-1973269D01*
X2738991Y-1973269D02*
X2738991Y-2020888D01*
X2738991Y-2020888D02*
X2729468Y-2039936D01*
X2729468Y-2039936D02*
X2719944Y-2049460D01*
X2719944Y-2049460D02*
X2700896Y-2058984D01*
X2700896Y-2058984D02*
X2643753Y-2058984D01*
X2643753Y-2058984D02*
X2624706Y-2049460D01*
X2624706Y-2049460D02*
X2615182Y-2039936D01*
X2834229Y-2058984D02*
X2872325Y-2058984D01*
X2872325Y-2058984D02*
X2891372Y-2049460D01*
X2891372Y-2049460D02*
X2900896Y-2039936D01*
X2900896Y-2039936D02*
X2919944Y-2011365D01*
X2919944Y-2011365D02*
X2929467Y-1973269D01*
X2929467Y-1973269D02*
X2929467Y-1897079D01*
X2929467Y-1897079D02*
X2919944Y-1878031D01*
X2919944Y-1878031D02*
X2910420Y-1868508D01*
X2910420Y-1868508D02*
X2891372Y-1858984D01*
X2891372Y-1858984D02*
X2853277Y-1858984D01*
X2853277Y-1858984D02*
X2834229Y-1868508D01*
X2834229Y-1868508D02*
X2824706Y-1878031D01*
X2824706Y-1878031D02*
X2815182Y-1897079D01*
X2815182Y-1897079D02*
X2815182Y-1944698D01*
X2815182Y-1944698D02*
X2824706Y-1963746D01*
X2824706Y-1963746D02*
X2834229Y-1973269D01*
X2834229Y-1973269D02*
X2853277Y-1982793D01*
X2853277Y-1982793D02*
X2891372Y-1982793D01*
X2891372Y-1982793D02*
X2910420Y-1973269D01*
X2910420Y-1973269D02*
X2919944Y-1963746D01*
X2919944Y-1963746D02*
X2929467Y-1944698D01*
X3100896Y-1925650D02*
X3100896Y-2058984D01*
X3053277Y-1849460D02*
X3005658Y-1992317D01*
X3005658Y-1992317D02*
X3129467Y-1992317D01*
X3196134Y-1858984D02*
X3196134Y-1897079D01*
X3272325Y-1858984D02*
X3272325Y-1897079D01*
X3567563Y-2135174D02*
X3558039Y-2125650D01*
X3558039Y-2125650D02*
X3538991Y-2097079D01*
X3538991Y-2097079D02*
X3529468Y-2078031D01*
X3529468Y-2078031D02*
X3519944Y-2049460D01*
X3519944Y-2049460D02*
X3510420Y-2001841D01*
X3510420Y-2001841D02*
X3510420Y-1963746D01*
X3510420Y-1963746D02*
X3519944Y-1916127D01*
X3519944Y-1916127D02*
X3529468Y-1887555D01*
X3529468Y-1887555D02*
X3538991Y-1868508D01*
X3538991Y-1868508D02*
X3558039Y-1839936D01*
X3558039Y-1839936D02*
X3567563Y-1830412D01*
X3729468Y-1858984D02*
X3691372Y-1858984D01*
X3691372Y-1858984D02*
X3672325Y-1868508D01*
X3672325Y-1868508D02*
X3662801Y-1878031D01*
X3662801Y-1878031D02*
X3643753Y-1906603D01*
X3643753Y-1906603D02*
X3634229Y-1944698D01*
X3634229Y-1944698D02*
X3634229Y-2020888D01*
X3634229Y-2020888D02*
X3643753Y-2039936D01*
X3643753Y-2039936D02*
X3653277Y-2049460D01*
X3653277Y-2049460D02*
X3672325Y-2058984D01*
X3672325Y-2058984D02*
X3710420Y-2058984D01*
X3710420Y-2058984D02*
X3729468Y-2049460D01*
X3729468Y-2049460D02*
X3738991Y-2039936D01*
X3738991Y-2039936D02*
X3748515Y-2020888D01*
X3748515Y-2020888D02*
X3748515Y-1973269D01*
X3748515Y-1973269D02*
X3738991Y-1954222D01*
X3738991Y-1954222D02*
X3729468Y-1944698D01*
X3729468Y-1944698D02*
X3710420Y-1935174D01*
X3710420Y-1935174D02*
X3672325Y-1935174D01*
X3672325Y-1935174D02*
X3653277Y-1944698D01*
X3653277Y-1944698D02*
X3643753Y-1954222D01*
X3643753Y-1954222D02*
X3634229Y-1973269D01*
X3872325Y-1858984D02*
X3891372Y-1858984D01*
X3891372Y-1858984D02*
X3910420Y-1868508D01*
X3910420Y-1868508D02*
X3919944Y-1878031D01*
X3919944Y-1878031D02*
X3929468Y-1897079D01*
X3929468Y-1897079D02*
X3938991Y-1935174D01*
X3938991Y-1935174D02*
X3938991Y-1982793D01*
X3938991Y-1982793D02*
X3929468Y-2020888D01*
X3929468Y-2020888D02*
X3919944Y-2039936D01*
X3919944Y-2039936D02*
X3910420Y-2049460D01*
X3910420Y-2049460D02*
X3891372Y-2058984D01*
X3891372Y-2058984D02*
X3872325Y-2058984D01*
X3872325Y-2058984D02*
X3853277Y-2049460D01*
X3853277Y-2049460D02*
X3843753Y-2039936D01*
X3843753Y-2039936D02*
X3834229Y-2020888D01*
X3834229Y-2020888D02*
X3824706Y-1982793D01*
X3824706Y-1982793D02*
X3824706Y-1935174D01*
X3824706Y-1935174D02*
X3834229Y-1897079D01*
X3834229Y-1897079D02*
X3843753Y-1878031D01*
X3843753Y-1878031D02*
X3853277Y-1868508D01*
X3853277Y-1868508D02*
X3872325Y-1858984D01*
X4177087Y-2058984D02*
X4177087Y-1858984D01*
X4262801Y-2058984D02*
X4262801Y-1954222D01*
X4262801Y-1954222D02*
X4253277Y-1935174D01*
X4253277Y-1935174D02*
X4234230Y-1925650D01*
X4234230Y-1925650D02*
X4205658Y-1925650D01*
X4205658Y-1925650D02*
X4186610Y-1935174D01*
X4186610Y-1935174D02*
X4177087Y-1944698D01*
X4386611Y-2058984D02*
X4367563Y-2049460D01*
X4367563Y-2049460D02*
X4358039Y-2039936D01*
X4358039Y-2039936D02*
X4348515Y-2020888D01*
X4348515Y-2020888D02*
X4348515Y-1963746D01*
X4348515Y-1963746D02*
X4358039Y-1944698D01*
X4358039Y-1944698D02*
X4367563Y-1935174D01*
X4367563Y-1935174D02*
X4386611Y-1925650D01*
X4386611Y-1925650D02*
X4415182Y-1925650D01*
X4415182Y-1925650D02*
X4434230Y-1935174D01*
X4434230Y-1935174D02*
X4443753Y-1944698D01*
X4443753Y-1944698D02*
X4453277Y-1963746D01*
X4453277Y-1963746D02*
X4453277Y-2020888D01*
X4453277Y-2020888D02*
X4443753Y-2039936D01*
X4443753Y-2039936D02*
X4434230Y-2049460D01*
X4434230Y-2049460D02*
X4415182Y-2058984D01*
X4415182Y-2058984D02*
X4386611Y-2058984D01*
X4567563Y-2058984D02*
X4548515Y-2049460D01*
X4548515Y-2049460D02*
X4538992Y-2030412D01*
X4538992Y-2030412D02*
X4538992Y-1858984D01*
X4719944Y-2049460D02*
X4700896Y-2058984D01*
X4700896Y-2058984D02*
X4662801Y-2058984D01*
X4662801Y-2058984D02*
X4643753Y-2049460D01*
X4643753Y-2049460D02*
X4634230Y-2030412D01*
X4634230Y-2030412D02*
X4634230Y-1954222D01*
X4634230Y-1954222D02*
X4643753Y-1935174D01*
X4643753Y-1935174D02*
X4662801Y-1925650D01*
X4662801Y-1925650D02*
X4700896Y-1925650D01*
X4700896Y-1925650D02*
X4719944Y-1935174D01*
X4719944Y-1935174D02*
X4729468Y-1954222D01*
X4729468Y-1954222D02*
X4729468Y-1973269D01*
X4729468Y-1973269D02*
X4634230Y-1992317D01*
X4805658Y-2049460D02*
X4824706Y-2058984D01*
X4824706Y-2058984D02*
X4862801Y-2058984D01*
X4862801Y-2058984D02*
X4881849Y-2049460D01*
X4881849Y-2049460D02*
X4891373Y-2030412D01*
X4891373Y-2030412D02*
X4891373Y-2020888D01*
X4891373Y-2020888D02*
X4881849Y-2001841D01*
X4881849Y-2001841D02*
X4862801Y-1992317D01*
X4862801Y-1992317D02*
X4834230Y-1992317D01*
X4834230Y-1992317D02*
X4815182Y-1982793D01*
X4815182Y-1982793D02*
X4805658Y-1963746D01*
X4805658Y-1963746D02*
X4805658Y-1954222D01*
X4805658Y-1954222D02*
X4815182Y-1935174D01*
X4815182Y-1935174D02*
X4834230Y-1925650D01*
X4834230Y-1925650D02*
X4862801Y-1925650D01*
X4862801Y-1925650D02*
X4881849Y-1935174D01*
X4958039Y-2135174D02*
X4967563Y-2125650D01*
X4967563Y-2125650D02*
X4986611Y-2097079D01*
X4986611Y-2097079D02*
X4996134Y-2078031D01*
X4996134Y-2078031D02*
X5005658Y-2049460D01*
X5005658Y-2049460D02*
X5015182Y-2001841D01*
X5015182Y-2001841D02*
X5015182Y-1963746D01*
X5015182Y-1963746D02*
X5005658Y-1916127D01*
X5005658Y-1916127D02*
X4996134Y-1887555D01*
X4996134Y-1887555D02*
X4986611Y-1868508D01*
X4986611Y-1868508D02*
X4967563Y-1839936D01*
X4967563Y-1839936D02*
X4958039Y-1830412D01*
M02*
