G04 #@! TF.GenerationSoftware,KiCad,Pcbnew,9.0.4*
G04 #@! TF.CreationDate,2025-10-26T21:25:07+02:00*
G04 #@! TF.ProjectId,ResumeCard,52657375-6d65-4436-9172-642e6b696361,rev?*
G04 #@! TF.SameCoordinates,Original*
G04 #@! TF.FileFunction,Soldermask,Bot*
G04 #@! TF.FilePolarity,Negative*
%FSLAX46Y46*%
G04 Gerber Fmt 4.6, Leading zero omitted, Abs format (unit mm)*
G04 Created by KiCad (PCBNEW 9.0.4) date 2025-10-26 21:25:07*
%MOMM*%
%LPD*%
G01*
G04 APERTURE LIST*
%ADD10R,1.700000X1.700000*%
%ADD11C,1.700000*%
%ADD12R,2.000000X1.500000*%
%ADD13O,2.000000X1.500000*%
%ADD14O,2.000000X1.520000*%
%ADD15C,0.750000*%
%ADD16O,2.000000X1.200000*%
%ADD17O,1.800000X1.200000*%
%ADD18C,2.700000*%
%ADD19C,1.600000*%
G04 APERTURE END LIST*
D10*
G04 #@! TO.C,SW16*
X21250000Y25300000D03*
D11*
X23790000Y25300000D03*
G04 #@! TD*
D10*
G04 #@! TO.C,SW17*
X39250000Y25300000D03*
D11*
X41790000Y25300000D03*
G04 #@! TD*
D10*
G04 #@! TO.C,SW12*
X39250000Y43300000D03*
D11*
X41790000Y43300000D03*
G04 #@! TD*
D10*
G04 #@! TO.C,SW6*
X21250000Y61300000D03*
D11*
X23790000Y61300000D03*
G04 #@! TD*
D10*
G04 #@! TO.C,SW2*
X39250000Y79300000D03*
D11*
X41790000Y79300000D03*
G04 #@! TD*
D10*
G04 #@! TO.C,SW11*
X21250000Y43300000D03*
D11*
X23790000Y43300000D03*
G04 #@! TD*
D12*
G04 #@! TO.C,U1*
X107515000Y61090000D03*
D13*
X107515000Y58550000D03*
X107515000Y56010000D03*
X107515000Y53470000D03*
X107515000Y50930000D03*
X107515000Y48390000D03*
X107515000Y45850000D03*
X107515000Y43310000D03*
X107515000Y40770000D03*
D14*
X107515000Y38230000D03*
X115135000Y38230000D03*
X115135000Y40770000D03*
X115135000Y43310000D03*
X115135000Y45850000D03*
X115135000Y48390000D03*
X115135000Y50930000D03*
X115135000Y53470000D03*
X115135000Y56010000D03*
X115135000Y58550000D03*
X115135000Y61090000D03*
G04 #@! TD*
D10*
G04 #@! TO.C,SW19*
X75250000Y25300000D03*
D11*
X77790000Y25300000D03*
G04 #@! TD*
D10*
G04 #@! TO.C,SW21*
X21250000Y7300000D03*
D11*
X23790000Y7300000D03*
G04 #@! TD*
D15*
G04 #@! TO.C,J1*
X152700000Y75300000D03*
X152700000Y81100000D03*
D16*
X152200000Y82530000D03*
D17*
X156380000Y82530000D03*
X156380000Y73870000D03*
D16*
X152200000Y73870000D03*
G04 #@! TD*
D10*
G04 #@! TO.C,SW5*
X93250000Y79300000D03*
D11*
X95790000Y79300000D03*
G04 #@! TD*
G04 #@! TO.C,SW26*
X113525000Y74800000D03*
X113525000Y68300000D03*
X109025000Y74800000D03*
X109025000Y68300000D03*
G04 #@! TD*
D10*
G04 #@! TO.C,SW1*
X21250000Y79300000D03*
D11*
X23790000Y79300000D03*
G04 #@! TD*
D18*
G04 #@! TO.C,MH4*
X157240000Y5550000D03*
G04 #@! TD*
D10*
G04 #@! TO.C,SW23*
X57250000Y7300000D03*
D11*
X59790000Y7300000D03*
G04 #@! TD*
D10*
G04 #@! TO.C,J2*
X135350000Y94600000D03*
D11*
X132810000Y94600000D03*
X130270000Y94600000D03*
X127730000Y94600000D03*
X125190000Y94600000D03*
X122650000Y94600000D03*
G04 #@! TD*
D10*
G04 #@! TO.C,SW8*
X57250000Y61300000D03*
D11*
X59790000Y61300000D03*
G04 #@! TD*
D18*
G04 #@! TO.C,MH1*
X3200000Y94450000D03*
G04 #@! TD*
D10*
G04 #@! TO.C,SW4*
X75250000Y79300000D03*
D11*
X77790000Y79300000D03*
G04 #@! TD*
D18*
G04 #@! TO.C,MH2*
X3570000Y5550000D03*
G04 #@! TD*
D10*
G04 #@! TO.C,SW7*
X39250000Y61300000D03*
D11*
X41790000Y61300000D03*
G04 #@! TD*
D19*
G04 #@! TO.C,C27*
X137395000Y75115000D03*
X134855000Y75115000D03*
G04 #@! TD*
D10*
G04 #@! TO.C,SW13*
X57250000Y43300000D03*
D11*
X59790000Y43300000D03*
G04 #@! TD*
D10*
G04 #@! TO.C,SW18*
X57250000Y25300000D03*
D11*
X59790000Y25300000D03*
G04 #@! TD*
D10*
G04 #@! TO.C,SW22*
X39250000Y7300000D03*
D11*
X41790000Y7300000D03*
G04 #@! TD*
D18*
G04 #@! TO.C,MH3*
X157240000Y94450000D03*
G04 #@! TD*
D10*
G04 #@! TO.C,SW3*
X57250000Y79300000D03*
D11*
X59790000Y79300000D03*
G04 #@! TD*
D10*
G04 #@! TO.C,SW20*
X93250000Y25300000D03*
D11*
X95790000Y25300000D03*
G04 #@! TD*
D10*
G04 #@! TO.C,SW14*
X75250000Y43300000D03*
D11*
X77790000Y43300000D03*
G04 #@! TD*
D10*
G04 #@! TO.C,SW25*
X93250000Y7300000D03*
D11*
X95790000Y7300000D03*
G04 #@! TD*
D10*
G04 #@! TO.C,SW9*
X75250000Y61300000D03*
D11*
X77790000Y61300000D03*
G04 #@! TD*
D10*
G04 #@! TO.C,SW24*
X75250000Y7300000D03*
D11*
X77790000Y7300000D03*
G04 #@! TD*
D10*
G04 #@! TO.C,SW10*
X93250000Y61300000D03*
D11*
X95790000Y61300000D03*
G04 #@! TD*
D10*
G04 #@! TO.C,SW15*
X93250000Y43300000D03*
D11*
X95790000Y43300000D03*
G04 #@! TD*
M02*
