G04 #@! TF.GenerationSoftware,KiCad,Pcbnew,9.0.4*
G04 #@! TF.CreationDate,2025-10-26T21:25:07+02:00*
G04 #@! TF.ProjectId,ResumeCard,52657375-6d65-4436-9172-642e6b696361,rev?*
G04 #@! TF.SameCoordinates,Original*
G04 #@! TF.FileFunction,Copper,L2,Bot*
G04 #@! TF.FilePolarity,Positive*
%FSLAX46Y46*%
G04 Gerber Fmt 4.6, Leading zero omitted, Abs format (unit mm)*
G04 Created by KiCad (PCBNEW 9.0.4) date 2025-10-26 21:25:07*
%MOMM*%
%LPD*%
G01*
G04 APERTURE LIST*
G04 #@! TA.AperFunction,ComponentPad*
%ADD10R,1.700000X1.700000*%
G04 #@! TD*
G04 #@! TA.AperFunction,ComponentPad*
%ADD11C,1.700000*%
G04 #@! TD*
G04 #@! TA.AperFunction,ComponentPad*
%ADD12R,2.000000X1.500000*%
G04 #@! TD*
G04 #@! TA.AperFunction,ComponentPad*
%ADD13O,2.000000X1.500000*%
G04 #@! TD*
G04 #@! TA.AperFunction,ComponentPad*
%ADD14O,2.000000X1.520000*%
G04 #@! TD*
G04 #@! TA.AperFunction,ComponentPad*
%ADD15O,2.000000X1.200000*%
G04 #@! TD*
G04 #@! TA.AperFunction,ComponentPad*
%ADD16O,1.800000X1.200000*%
G04 #@! TD*
G04 #@! TA.AperFunction,ComponentPad*
%ADD17C,1.600000*%
G04 #@! TD*
G04 #@! TA.AperFunction,ViaPad*
%ADD18C,0.600000*%
G04 #@! TD*
G04 #@! TA.AperFunction,ViaPad*
%ADD19C,0.800000*%
G04 #@! TD*
G04 #@! TA.AperFunction,Conductor*
%ADD20C,0.250000*%
G04 #@! TD*
G04 #@! TA.AperFunction,Conductor*
%ADD21C,0.635000*%
G04 #@! TD*
G04 APERTURE END LIST*
D10*
G04 #@! TO.P,SW16,1,1*
G04 #@! TO.N,/CR4*
X21250000Y25300000D03*
D11*
G04 #@! TO.P,SW16,2,2*
G04 #@! TO.N,/C1*
X23790000Y25300000D03*
G04 #@! TD*
D10*
G04 #@! TO.P,SW17,1,1*
G04 #@! TO.N,Net-(D32-A)*
X39250000Y25300000D03*
D11*
G04 #@! TO.P,SW17,2,2*
G04 #@! TO.N,/C2*
X41790000Y25300000D03*
G04 #@! TD*
D10*
G04 #@! TO.P,SW12,1,1*
G04 #@! TO.N,Net-(D31-A)*
X39250000Y43300000D03*
D11*
G04 #@! TO.P,SW12,2,2*
G04 #@! TO.N,/C2*
X41790000Y43300000D03*
G04 #@! TD*
D10*
G04 #@! TO.P,SW6,1,1*
G04 #@! TO.N,/CR2*
X21250000Y61300000D03*
D11*
G04 #@! TO.P,SW6,2,2*
G04 #@! TO.N,/C1*
X23790000Y61300000D03*
G04 #@! TD*
D10*
G04 #@! TO.P,SW2,1,1*
G04 #@! TO.N,Net-(D47-A)*
X39250000Y79300000D03*
D11*
G04 #@! TO.P,SW2,2,2*
G04 #@! TO.N,/C2*
X41790000Y79300000D03*
G04 #@! TD*
D10*
G04 #@! TO.P,SW11,1,1*
G04 #@! TO.N,/CR3*
X21250000Y43300000D03*
D11*
G04 #@! TO.P,SW11,2,2*
G04 #@! TO.N,/C1*
X23790000Y43300000D03*
G04 #@! TD*
D12*
G04 #@! TO.P,U1,1,PD1*
G04 #@! TO.N,/UART option (TXD)*
X107515000Y61090000D03*
D13*
G04 #@! TO.P,U1,2,PA1/XTAL2*
G04 #@! TO.N,/BTN*
X107515000Y58550000D03*
G04 #@! TO.P,U1,3,PA0/XTAL1*
G04 #@! TO.N,/DIN*
X107515000Y56010000D03*
G04 #@! TO.P,U1,4,PD2*
G04 #@! TO.N,/R1*
X107515000Y53470000D03*
G04 #@! TO.P,U1,5,PD3*
G04 #@! TO.N,/R2*
X107515000Y50930000D03*
G04 #@! TO.P,U1,6,PD4*
G04 #@! TO.N,/R3*
X107515000Y48390000D03*
G04 #@! TO.P,U1,7,PD5*
G04 #@! TO.N,/R4*
X107515000Y45850000D03*
G04 #@! TO.P,U1,8,GND*
G04 #@! TO.N,GND*
X107515000Y43310000D03*
G04 #@! TO.P,U1,9,PD6*
G04 #@! TO.N,/R5*
X107515000Y40770000D03*
D14*
G04 #@! TO.P,U1,10,PB0*
G04 #@! TO.N,/C5*
X107515000Y38230000D03*
G04 #@! TO.P,U1,11,PB1*
G04 #@! TO.N,/C4*
X115135000Y38230000D03*
G04 #@! TO.P,U1,12,PB2*
G04 #@! TO.N,/C3*
X115135000Y40770000D03*
G04 #@! TO.P,U1,13,PB3*
G04 #@! TO.N,/C2*
X115135000Y43310000D03*
G04 #@! TO.P,U1,14,PB4*
G04 #@! TO.N,/C1*
X115135000Y45850000D03*
G04 #@! TO.P,U1,15,PB5*
G04 #@! TO.N,Net-(J2-MOSI)*
X115135000Y48390000D03*
G04 #@! TO.P,U1,16,PB6*
G04 #@! TO.N,Net-(J2-MISO)*
X115135000Y50930000D03*
G04 #@! TO.P,U1,17,PB7*
G04 #@! TO.N,Net-(J2-SCK)*
X115135000Y53470000D03*
G04 #@! TO.P,U1,18,VCC*
G04 #@! TO.N,/PWR*
X115135000Y56010000D03*
G04 #@! TO.P,U1,19,PA2/~{RESET}*
G04 #@! TO.N,Net-(J2-~{RST})*
X115135000Y58550000D03*
G04 #@! TO.P,U1,20,PD0*
G04 #@! TO.N,/UART option (RXD)*
X115135000Y61090000D03*
G04 #@! TD*
D10*
G04 #@! TO.P,SW19,1,1*
G04 #@! TO.N,Net-(D40-A)*
X75250000Y25300000D03*
D11*
G04 #@! TO.P,SW19,2,2*
G04 #@! TO.N,/C4*
X77790000Y25300000D03*
G04 #@! TD*
D10*
G04 #@! TO.P,SW21,1,1*
G04 #@! TO.N,/CR5*
X21250000Y7300000D03*
D11*
G04 #@! TO.P,SW21,2,2*
G04 #@! TO.N,/C1*
X23790000Y7300000D03*
G04 #@! TD*
D15*
G04 #@! TO.P,J1,1*
G04 #@! TO.N,GND*
X152200000Y82530000D03*
D16*
G04 #@! TO.P,J1,2*
X156380000Y82530000D03*
G04 #@! TO.P,J1,3*
X156380000Y73870000D03*
D15*
G04 #@! TO.P,J1,e*
X152200000Y73870000D03*
G04 #@! TD*
D10*
G04 #@! TO.P,SW5,1,1*
G04 #@! TO.N,Net-(D42-A)*
X93250000Y79300000D03*
D11*
G04 #@! TO.P,SW5,2,2*
G04 #@! TO.N,/C5*
X95790000Y79300000D03*
G04 #@! TD*
G04 #@! TO.P,SW26,1,1*
G04 #@! TO.N,/PWR*
X113525000Y74800000D03*
X113525000Y68300000D03*
G04 #@! TO.P,SW26,2,2*
G04 #@! TO.N,/BTN*
X109025000Y74800000D03*
X109025000Y68300000D03*
G04 #@! TD*
D10*
G04 #@! TO.P,SW1,1,1*
G04 #@! TO.N,/CR1*
X21250000Y79300000D03*
D11*
G04 #@! TO.P,SW1,2,2*
G04 #@! TO.N,/C1*
X23790000Y79300000D03*
G04 #@! TD*
D10*
G04 #@! TO.P,SW23,1,1*
G04 #@! TO.N,Net-(D37-A)*
X57250000Y7300000D03*
D11*
G04 #@! TO.P,SW23,2,2*
G04 #@! TO.N,/C3*
X59790000Y7300000D03*
G04 #@! TD*
D10*
G04 #@! TO.P,J2,1,MISO*
G04 #@! TO.N,Net-(J2-MISO)*
X135350000Y94600000D03*
D11*
G04 #@! TO.P,J2,2,VCC*
G04 #@! TO.N,/PWR*
X132810000Y94600000D03*
G04 #@! TO.P,J2,3,SCK*
G04 #@! TO.N,Net-(J2-SCK)*
X130270000Y94600000D03*
G04 #@! TO.P,J2,4,MOSI*
G04 #@! TO.N,Net-(J2-MOSI)*
X127730000Y94600000D03*
G04 #@! TO.P,J2,5,~{RST}*
G04 #@! TO.N,Net-(J2-~{RST})*
X125190000Y94600000D03*
G04 #@! TO.P,J2,6,GND*
G04 #@! TO.N,GND*
X122650000Y94600000D03*
G04 #@! TD*
D10*
G04 #@! TO.P,SW8,1,1*
G04 #@! TO.N,Net-(D34-A)*
X57250000Y61300000D03*
D11*
G04 #@! TO.P,SW8,2,2*
G04 #@! TO.N,/C3*
X59790000Y61300000D03*
G04 #@! TD*
D10*
G04 #@! TO.P,SW4,1,1*
G04 #@! TO.N,Net-(D49-A)*
X75250000Y79300000D03*
D11*
G04 #@! TO.P,SW4,2,2*
G04 #@! TO.N,/C4*
X77790000Y79300000D03*
G04 #@! TD*
D10*
G04 #@! TO.P,SW7,1,1*
G04 #@! TO.N,Net-(D30-A)*
X39250000Y61300000D03*
D11*
G04 #@! TO.P,SW7,2,2*
G04 #@! TO.N,/C2*
X41790000Y61300000D03*
G04 #@! TD*
D17*
G04 #@! TO.P,C27,1*
G04 #@! TO.N,GND*
X137395000Y75115000D03*
G04 #@! TO.P,C27,2*
G04 #@! TO.N,/PWR*
X134855000Y75115000D03*
G04 #@! TD*
D10*
G04 #@! TO.P,SW13,1,1*
G04 #@! TO.N,Net-(D35-A)*
X57250000Y43300000D03*
D11*
G04 #@! TO.P,SW13,2,2*
G04 #@! TO.N,/C3*
X59790000Y43300000D03*
G04 #@! TD*
D10*
G04 #@! TO.P,SW18,1,1*
G04 #@! TO.N,Net-(D36-A)*
X57250000Y25300000D03*
D11*
G04 #@! TO.P,SW18,2,2*
G04 #@! TO.N,/C3*
X59790000Y25300000D03*
G04 #@! TD*
D10*
G04 #@! TO.P,SW22,1,1*
G04 #@! TO.N,Net-(D33-A)*
X39250000Y7300000D03*
D11*
G04 #@! TO.P,SW22,2,2*
G04 #@! TO.N,/C2*
X41790000Y7300000D03*
G04 #@! TD*
D10*
G04 #@! TO.P,SW3,1,1*
G04 #@! TO.N,Net-(D48-A)*
X57250000Y79300000D03*
D11*
G04 #@! TO.P,SW3,2,2*
G04 #@! TO.N,/C3*
X59790000Y79300000D03*
G04 #@! TD*
D10*
G04 #@! TO.P,SW20,1,1*
G04 #@! TO.N,Net-(D45-A)*
X93250000Y25300000D03*
D11*
G04 #@! TO.P,SW20,2,2*
G04 #@! TO.N,/C5*
X95790000Y25300000D03*
G04 #@! TD*
D10*
G04 #@! TO.P,SW14,1,1*
G04 #@! TO.N,Net-(D39-A)*
X75250000Y43300000D03*
D11*
G04 #@! TO.P,SW14,2,2*
G04 #@! TO.N,/C4*
X77790000Y43300000D03*
G04 #@! TD*
D10*
G04 #@! TO.P,SW25,1,1*
G04 #@! TO.N,Net-(D50-A)*
X93250000Y7300000D03*
D11*
G04 #@! TO.P,SW25,2,2*
G04 #@! TO.N,/C5*
X95790000Y7300000D03*
G04 #@! TD*
D10*
G04 #@! TO.P,SW9,1,1*
G04 #@! TO.N,Net-(D38-A)*
X75250000Y61300000D03*
D11*
G04 #@! TO.P,SW9,2,2*
G04 #@! TO.N,/C4*
X77790000Y61300000D03*
G04 #@! TD*
D10*
G04 #@! TO.P,SW24,1,1*
G04 #@! TO.N,Net-(D41-A)*
X75250000Y7300000D03*
D11*
G04 #@! TO.P,SW24,2,2*
G04 #@! TO.N,/C4*
X77790000Y7300000D03*
G04 #@! TD*
D10*
G04 #@! TO.P,SW10,1,1*
G04 #@! TO.N,Net-(D43-A)*
X93250000Y61300000D03*
D11*
G04 #@! TO.P,SW10,2,2*
G04 #@! TO.N,/C5*
X95790000Y61300000D03*
G04 #@! TD*
D10*
G04 #@! TO.P,SW15,1,1*
G04 #@! TO.N,Net-(D44-A)*
X93250000Y43300000D03*
D11*
G04 #@! TO.P,SW15,2,2*
G04 #@! TO.N,/C5*
X95790000Y43300000D03*
G04 #@! TD*
D18*
G04 #@! TO.N,/R5*
X93300000Y10725000D03*
X82550000Y12025000D03*
X64700000Y11700000D03*
X75300000Y10700000D03*
X57200000Y10600000D03*
X46725000Y11525000D03*
X39150000Y10700000D03*
X28450000Y11825000D03*
G04 #@! TO.N,/R4*
X96925000Y35800000D03*
X82525000Y29750000D03*
X93150000Y28800000D03*
X75075000Y28600000D03*
X64725000Y29600000D03*
X57175000Y28600000D03*
X46625000Y29750000D03*
X38925000Y28475000D03*
X28650000Y29800000D03*
G04 #@! TO.N,/R3*
X96975000Y54125000D03*
X93025000Y46500000D03*
X82750000Y47850000D03*
X64525000Y48275000D03*
X75025000Y46500000D03*
X46550000Y47800000D03*
X56825000Y46400000D03*
X38750000Y46275000D03*
X29000000Y46625000D03*
G04 #@! TO.N,/R2*
X99000000Y69550000D03*
X81775000Y66450000D03*
X92950000Y64325000D03*
X75100000Y64325000D03*
X64375000Y66875000D03*
X46650000Y66900000D03*
X57200000Y64450000D03*
X38725000Y64225000D03*
X28650000Y66150000D03*
G04 #@! TO.N,/R1*
X88350000Y78400000D03*
D19*
G04 #@! TO.N,Net-(D1-DOUT)*
X76700000Y75900000D03*
X38200000Y75900000D03*
X54000000Y76000000D03*
X34800000Y75800000D03*
X72000000Y75800000D03*
X14500000Y82300000D03*
X83200000Y75900000D03*
X21000000Y75800000D03*
X57400000Y76100000D03*
X93300000Y70800000D03*
G04 #@! TO.N,Net-(D11-DOUT)*
X57000000Y40000000D03*
X89700000Y39900000D03*
X54000000Y40000000D03*
X35800000Y39800000D03*
X75100000Y40000000D03*
X71900000Y39900000D03*
X93500000Y34700000D03*
X39300000Y39800000D03*
X21100000Y40000000D03*
X14450000Y46300000D03*
G04 #@! TO.N,Net-(J2-~{RST})*
X123250000Y67675000D03*
X123275000Y59875000D03*
G04 #@! TO.N,Net-(J2-MISO)*
X118250000Y61900000D03*
X126775000Y77575000D03*
X118400000Y57325000D03*
X122325000Y74575000D03*
G04 #@! TO.N,Net-(J2-MOSI)*
X119425000Y61850000D03*
X122450000Y72850000D03*
X119950000Y57350000D03*
G04 #@! TO.N,Net-(J2-SCK)*
X117400000Y57300000D03*
X122242500Y77025000D03*
X126725000Y81325000D03*
X117250000Y62975000D03*
G04 #@! TO.N,/DIN*
X99000000Y83350000D03*
G04 #@! TO.N,/UART option (TXD)*
X121600000Y57350000D03*
X135400000Y40100000D03*
D18*
G04 #@! TO.N,/R1*
X104200000Y73625000D03*
X100000000Y81100000D03*
G04 #@! TO.N,/R5*
X99000000Y16400000D03*
D19*
G04 #@! TO.N,/UART option (RXD)*
X135500000Y41400000D03*
G04 #@! TO.N,Net-(D15-DIN)*
X20800000Y57900000D03*
X14500000Y64200000D03*
X75300000Y58000000D03*
X38700000Y57900000D03*
X57600000Y57800000D03*
X35800000Y57800000D03*
X72100000Y57900000D03*
X89900000Y57900000D03*
X93500000Y52800000D03*
X54100000Y57800000D03*
G04 #@! TO.N,Net-(D16-DOUT)*
X57500000Y22000000D03*
X74900000Y22000000D03*
X53800000Y22000000D03*
X35700000Y21900000D03*
X89900000Y21900000D03*
X39700000Y22000000D03*
X71900000Y21900000D03*
X93400000Y16700000D03*
X20750000Y21950000D03*
X14450000Y28250000D03*
G04 #@! TO.N,Net-(J1-CC1)*
X142100000Y80300000D03*
X141800000Y76200000D03*
G04 #@! TO.N,Net-(U2-UD-)*
X146100000Y80100000D03*
X135800000Y36300000D03*
G04 #@! TO.N,Net-(U2-UD+)*
X135800000Y37500000D03*
X148300000Y78200000D03*
X149600304Y79225001D03*
G04 #@! TO.N,Net-(J1-CC2)*
X144600000Y83800000D03*
X147051229Y81332500D03*
D18*
G04 #@! TO.N,/R1*
X45675000Y86250000D03*
X81100000Y85650000D03*
X28400000Y86250000D03*
X63650000Y86250000D03*
G04 #@! TD*
D20*
G04 #@! TO.N,/R5*
X82550000Y12025000D02*
X92000000Y12025000D01*
X92000000Y12025000D02*
X93300000Y10725000D01*
X65700000Y10700000D02*
X75300000Y10700000D01*
X64700000Y11700000D02*
X65700000Y10700000D01*
X56275000Y11525000D02*
X57200000Y10600000D01*
X46725000Y11525000D02*
X56275000Y11525000D01*
X38025000Y11825000D02*
X39150000Y10700000D01*
X28450000Y11825000D02*
X38025000Y11825000D01*
G04 #@! TO.N,/R4*
X96925000Y35800000D02*
X98975000Y37850000D01*
X98975000Y37850000D02*
X98975000Y39050000D01*
X98975000Y39050000D02*
X105775000Y45850000D01*
X105775000Y45850000D02*
X107515000Y45850000D01*
X82525000Y29750000D02*
X92200000Y29750000D01*
X92200000Y29750000D02*
X93150000Y28800000D01*
X64725000Y29600000D02*
X65725000Y28600000D01*
X65725000Y28600000D02*
X75075000Y28600000D01*
X56025000Y29750000D02*
X57175000Y28600000D01*
X46625000Y29750000D02*
X56025000Y29750000D01*
X29975000Y28475000D02*
X38925000Y28475000D01*
X28650000Y29800000D02*
X29975000Y28475000D01*
G04 #@! TO.N,Net-(D11-DOUT)*
X93500000Y34700000D02*
X93500000Y36100000D01*
X93500000Y36100000D02*
X89700000Y39900000D01*
G04 #@! TO.N,/R3*
X98665000Y54125000D02*
X104400000Y48390000D01*
X96975000Y54125000D02*
X98665000Y54125000D01*
X84100000Y46500000D02*
X93025000Y46500000D01*
X82750000Y47850000D02*
X84100000Y46500000D01*
X64525000Y48275000D02*
X73250000Y48275000D01*
X73250000Y48275000D02*
X75025000Y46500000D01*
X47950000Y46400000D02*
X56825000Y46400000D01*
X46550000Y47800000D02*
X47950000Y46400000D01*
X29350000Y46275000D02*
X38750000Y46275000D01*
X29000000Y46625000D02*
X29350000Y46275000D01*
G04 #@! TO.N,/R2*
X102600000Y65950000D02*
X102600000Y63700000D01*
X99000000Y69550000D02*
X102600000Y65950000D01*
X81775000Y66450000D02*
X83900000Y64325000D01*
X83900000Y64325000D02*
X92950000Y64325000D01*
X72550000Y66875000D02*
X75100000Y64325000D01*
X64375000Y66875000D02*
X72550000Y66875000D01*
X46650000Y66900000D02*
X49100000Y64450000D01*
X49100000Y64450000D02*
X57200000Y64450000D01*
X30575000Y64225000D02*
X38725000Y64225000D01*
X28650000Y66150000D02*
X30575000Y64225000D01*
G04 #@! TO.N,/R1*
X80500000Y86250000D02*
X88350000Y78400000D01*
G04 #@! TO.N,Net-(D1-DOUT)*
X93300000Y70800000D02*
X88200000Y75900000D01*
X57400000Y76100000D02*
X54100000Y76100000D01*
X72100000Y75900000D02*
X72000000Y75800000D01*
X54200000Y76000000D02*
X54000000Y76000000D01*
X34800000Y75800000D02*
X34900000Y75900000D01*
X54100000Y76100000D02*
X54000000Y76000000D01*
X76700000Y75900000D02*
X72100000Y75900000D01*
X88200000Y75900000D02*
X83200000Y75900000D01*
X34900000Y75900000D02*
X38200000Y75900000D01*
X21000000Y75800000D02*
X14500000Y82300000D01*
D21*
G04 #@! TO.N,GND*
X156380000Y73870000D02*
X156380000Y82530000D01*
X152200000Y73870000D02*
X156380000Y73870000D01*
X156380000Y82530000D02*
X152200000Y82530000D01*
D20*
G04 #@! TO.N,Net-(D11-DOUT)*
X14800000Y46300000D02*
X14450000Y46300000D01*
X39300000Y39800000D02*
X35800000Y39800000D01*
X75100000Y40000000D02*
X72000000Y40000000D01*
X21100000Y40000000D02*
X14800000Y46300000D01*
X57000000Y40000000D02*
X54000000Y40000000D01*
X72000000Y40000000D02*
X71900000Y39900000D01*
G04 #@! TO.N,Net-(J2-~{RST})*
X125190000Y91965000D02*
X125190000Y94600000D01*
X123975000Y90750000D02*
X124087500Y90862500D01*
X123275000Y59875000D02*
X123275000Y60000000D01*
X115135000Y58550000D02*
X121950000Y58550000D01*
X123250000Y67675000D02*
X123250000Y71675000D01*
X123250000Y71675000D02*
X123975000Y72400000D01*
X123975000Y72400000D02*
X123975000Y90750000D01*
X121950000Y58550000D02*
X123275000Y59875000D01*
X124087500Y90862500D02*
X125190000Y91965000D01*
G04 #@! TO.N,Net-(J2-MISO)*
X118050000Y52550000D02*
X118400000Y52900000D01*
X118250000Y67725000D02*
X118250000Y70500000D01*
X116430000Y50930000D02*
X118050000Y52550000D01*
X135350000Y94600000D02*
X135350000Y91300000D01*
X135350000Y86150000D02*
X135350000Y91300000D01*
X126775000Y77575000D02*
X135350000Y86150000D01*
X118250000Y61900000D02*
X118250000Y67725000D01*
X115135000Y50930000D02*
X116430000Y50930000D01*
X118400000Y52900000D02*
X118400000Y57325000D01*
X118250000Y70500000D02*
X122325000Y74575000D01*
G04 #@! TO.N,Net-(J2-MOSI)*
X119425000Y68575000D02*
X119425000Y69825000D01*
X119875000Y57275000D02*
X119950000Y57350000D01*
X119425000Y61850000D02*
X119425000Y68575000D01*
X115135000Y48390000D02*
X115990000Y48390000D01*
X115990000Y48390000D02*
X119875000Y52275000D01*
X119875000Y52275000D02*
X119875000Y57275000D01*
X119425000Y69825000D02*
X122450000Y72850000D01*
X127730000Y94600000D02*
X127600000Y94600000D01*
G04 #@! TO.N,Net-(J2-SCK)*
X116770000Y53470000D02*
X117250000Y53950000D01*
X130270000Y84870000D02*
X130270000Y94600000D01*
X117250000Y62975000D02*
X117250000Y66925000D01*
X117250000Y72032500D02*
X122242500Y77025000D01*
X117250000Y66925000D02*
X117250000Y72032500D01*
X117250000Y53950000D02*
X117250000Y57150000D01*
X115135000Y53470000D02*
X116770000Y53470000D01*
X126725000Y81325000D02*
X130270000Y84870000D01*
X117250000Y57150000D02*
X117400000Y57300000D01*
G04 #@! TO.N,/DIN*
X103700000Y57350000D02*
X103700000Y72675000D01*
X105040000Y56010000D02*
X103700000Y57350000D01*
X99000000Y77375000D02*
X99000000Y83350000D01*
X103700000Y72675000D02*
X99000000Y77375000D01*
X107515000Y56010000D02*
X105040000Y56010000D01*
G04 #@! TO.N,/UART option (TXD)*
X121612500Y57337500D02*
X121600000Y57350000D01*
X121612500Y53487500D02*
X121612500Y57337500D01*
X135000000Y40100000D02*
X128100000Y47000000D01*
X128100000Y47000000D02*
X121612500Y53487500D01*
X135400000Y40100000D02*
X135000000Y40100000D01*
G04 #@! TO.N,/R1*
X104200000Y73625000D02*
X104200000Y76900000D01*
X100000000Y81100000D02*
X104200000Y76900000D01*
G04 #@! TO.N,/C3*
X59790000Y7300000D02*
X59790000Y25300000D01*
X121155000Y40770000D02*
X115135000Y40770000D01*
X124800000Y37125000D02*
X121155000Y40770000D01*
X59790000Y43300000D02*
X59790000Y25300000D01*
X59790000Y43300000D02*
X59790000Y61300000D01*
X59790000Y79300000D02*
X59790000Y61300000D01*
X61990000Y5100000D02*
X104600000Y5100000D01*
X59800000Y62000000D02*
X60000000Y62000000D01*
X124800000Y25300000D02*
X124800000Y37125000D01*
X59790000Y7300000D02*
X61990000Y5100000D01*
X104600000Y5100000D02*
X124800000Y25300000D01*
G04 #@! TO.N,/C2*
X120515000Y43310000D02*
X115135000Y43310000D01*
X41790000Y7300000D02*
X44490000Y4600000D01*
X44490000Y4600000D02*
X105100000Y4600000D01*
X105100000Y4600000D02*
X125600000Y25100000D01*
X125600000Y38225000D02*
X120515000Y43310000D01*
X41790000Y43300000D02*
X41790000Y61300000D01*
X41790000Y79300000D02*
X41790000Y61300000D01*
X41790000Y43300000D02*
X41790000Y25300000D01*
X41790000Y25300000D02*
X41790000Y7300000D01*
X125600000Y25100000D02*
X125600000Y38225000D01*
G04 #@! TO.N,/R3*
X104400000Y48390000D02*
X107515000Y48390000D01*
G04 #@! TO.N,/C5*
X95790000Y7300000D02*
X95790000Y25300000D01*
X95790000Y43300000D02*
X95790000Y25300000D01*
X105000000Y16510000D02*
X105000000Y37400000D01*
X95790000Y79300000D02*
X95790000Y61300000D01*
X95790000Y7300000D02*
X105000000Y16510000D01*
X105000000Y37400000D02*
X105830000Y38230000D01*
X105830000Y38230000D02*
X107515000Y38230000D01*
X95790000Y43300000D02*
X95790000Y61300000D01*
G04 #@! TO.N,/R2*
X105745000Y50930000D02*
X102600000Y54075000D01*
X107515000Y50930000D02*
X105745000Y50930000D01*
X102600000Y54075000D02*
X102600000Y63700000D01*
G04 #@! TO.N,/C1*
X126500000Y39225000D02*
X119875000Y45850000D01*
X23790000Y42600000D02*
X23790000Y61300000D01*
X23790000Y79300000D02*
X23790000Y79460000D01*
X126500000Y24300000D02*
X126500000Y39225000D01*
X23800000Y79310000D02*
X23790000Y79300000D01*
X23790000Y7300000D02*
X28090000Y3000000D01*
X23790000Y79460000D02*
X23787500Y79462500D01*
X105200000Y3000000D02*
X126500000Y24300000D01*
X23790000Y25300000D02*
X23790000Y43300000D01*
X23790000Y61300000D02*
X23790000Y79300000D01*
X119875000Y45850000D02*
X115135000Y45850000D01*
X28090000Y3000000D02*
X105200000Y3000000D01*
X23790000Y7300000D02*
X23790000Y25300000D01*
G04 #@! TO.N,/C4*
X77800000Y62000000D02*
X78000000Y62000000D01*
X77790000Y7300000D02*
X77790000Y7110000D01*
X124100000Y36075000D02*
X121945000Y38230000D01*
X104100000Y5600000D02*
X124100000Y25600000D01*
X77790000Y43300000D02*
X77790000Y61300000D01*
X79490000Y5600000D02*
X104100000Y5600000D01*
X77790000Y43300000D02*
X77790000Y25300000D01*
X77790000Y61300000D02*
X77790000Y79300000D01*
X124100000Y25600000D02*
X124100000Y36075000D01*
X121945000Y38230000D02*
X115135000Y38230000D01*
X77790000Y7300000D02*
X79490000Y5600000D01*
X77790000Y25300000D02*
X77790000Y7300000D01*
G04 #@! TO.N,/R5*
X105170000Y40770000D02*
X107515000Y40770000D01*
X101900000Y20925000D02*
X101900000Y37500000D01*
X99000000Y16400000D02*
X99000000Y18025000D01*
X99000000Y18025000D02*
X101900000Y20925000D01*
X101900000Y37500000D02*
X105170000Y40770000D01*
G04 #@! TO.N,/UART option (RXD)*
X121875000Y63125000D02*
X125225000Y63125000D01*
X131600000Y45300000D02*
X135500000Y41400000D01*
X131600000Y62900000D02*
X131600000Y45300000D01*
X125225000Y63125000D02*
X125250000Y63150000D01*
X125250000Y63150000D02*
X125275000Y63125000D01*
X131375000Y63125000D02*
X131600000Y62900000D01*
X121875000Y63125000D02*
X119840000Y61090000D01*
X125275000Y63125000D02*
X131375000Y63125000D01*
X119840000Y61090000D02*
X115135000Y61090000D01*
G04 #@! TO.N,Net-(D15-DIN)*
X20800000Y57900000D02*
X14500000Y64200000D01*
X93500000Y54300000D02*
X89900000Y57900000D01*
X38700000Y57900000D02*
X35900000Y57900000D01*
X35900000Y57900000D02*
X35800000Y57800000D01*
X93500000Y52800000D02*
X93500000Y54300000D01*
X75300000Y58000000D02*
X72200000Y58000000D01*
X54100000Y57800000D02*
X57600000Y57800000D01*
X72200000Y58000000D02*
X72100000Y57900000D01*
G04 #@! TO.N,Net-(D16-DOUT)*
X39700000Y22000000D02*
X35800000Y22000000D01*
X93400000Y18400000D02*
X89900000Y21900000D01*
X53800000Y22000000D02*
X53800000Y22250000D01*
X93400000Y16700000D02*
X93400000Y18400000D01*
X20750000Y21950000D02*
X14450000Y28250000D01*
X35800000Y22000000D02*
X35700000Y21900000D01*
X57500000Y22000000D02*
X53800000Y22000000D01*
X74900000Y22000000D02*
X72000000Y22000000D01*
X72000000Y22000000D02*
X71900000Y21900000D01*
G04 #@! TO.N,/BTN*
X106750000Y73900000D02*
X106800000Y73900000D01*
X107000000Y66275000D02*
X109025000Y68300000D01*
X105000000Y66275000D02*
X105000000Y59225000D01*
X107700000Y74800000D02*
X109025000Y74800000D01*
X105000000Y59225000D02*
X105675000Y58550000D01*
X105000000Y66275000D02*
X105000000Y72150000D01*
X105000000Y66275000D02*
X107000000Y66275000D01*
X106800000Y73900000D02*
X107700000Y74800000D01*
X105000000Y72150000D02*
X106750000Y73900000D01*
X105675000Y58550000D02*
X107515000Y58550000D01*
G04 #@! TO.N,/CR3*
X21400000Y42750000D02*
X21250000Y42600000D01*
G04 #@! TO.N,/CR4*
X21500000Y25550000D02*
X21250000Y25300000D01*
G04 #@! TO.N,/CR5*
X21400000Y7450000D02*
X21250000Y7300000D01*
G04 #@! TO.N,Net-(J1-CC1)*
X141800000Y80000000D02*
X142100000Y80300000D01*
X141800000Y76200000D02*
X141800000Y80000000D01*
G04 #@! TO.N,Net-(U2-UD-)*
X137000000Y31200000D02*
X145000000Y31200000D01*
X148100000Y34300000D02*
X148100000Y56000000D01*
X145000000Y31200000D02*
X148100000Y34300000D01*
X146100000Y76100000D02*
X146100000Y80100000D01*
X142000000Y72000000D02*
X142000000Y62100000D01*
X135800000Y36300000D02*
X135600000Y36100000D01*
X142000000Y62100000D02*
X148100000Y56000000D01*
X142000000Y72000000D02*
X146100000Y76100000D01*
X135600000Y36100000D02*
X135600000Y32600000D01*
X135600000Y32600000D02*
X137000000Y31200000D01*
G04 #@! TO.N,Net-(U2-UD+)*
X149100000Y56650000D02*
X143000000Y62750000D01*
X143000000Y71750000D02*
X148300000Y77050000D01*
X145600000Y30600000D02*
X149100000Y34100000D01*
X136700000Y30600000D02*
X145600000Y30600000D01*
X143000000Y62750000D02*
X143000000Y71750000D01*
X148300000Y77050000D02*
X148300000Y78200000D01*
X134900000Y32400000D02*
X136700000Y30600000D01*
X148300000Y78200000D02*
X148575303Y78200000D01*
X148575303Y78200000D02*
X149600304Y79225001D01*
X149100000Y34100000D02*
X149100000Y56650000D01*
X134900000Y37300000D02*
X134900000Y32400000D01*
X135800000Y37500000D02*
X135100000Y37500000D01*
X135100000Y37500000D02*
X134900000Y37300000D01*
G04 #@! TO.N,Net-(J1-CC2)*
X146200000Y82183729D02*
X147051229Y81332500D01*
X144600000Y83800000D02*
X146200000Y82200000D01*
X146200000Y82200000D02*
X146200000Y82183729D01*
G04 #@! TO.N,/R1*
X28400000Y86250000D02*
X80500000Y86250000D01*
G04 #@! TD*
M02*
