M48
; DRILL file {KiCad 9.0.4} date 2025-10-26T21:25:07+0200
; FORMAT={-:-/ absolute / metric / decimal}
; #@! TF.CreationDate,2025-10-26T21:25:07+02:00
; #@! TF.GenerationSoftware,Kicad,Pcbnew,9.0.4
; #@! TF.FileFunction,Plated,1,2,PTH
FMAT,2
METRIC
; #@! TA.AperFunction,Plated,PTH,ViaDrill
T1C0.300
; #@! TA.AperFunction,Plated,PTH,ViaDrill
T2C0.400
; #@! TA.AperFunction,Plated,PTH,ComponentDrill
T3C0.800
; #@! TA.AperFunction,Plated,PTH,ComponentDrill
T4C0.900
; #@! TA.AperFunction,Plated,PTH,ComponentDrill
T5C1.000
; #@! TA.AperFunction,Plated,PTH,ComponentDrill
T6C1.000
%
G90
G05
T1
X28.4Y86.25
X28.45Y11.825
X28.65Y66.15
X28.65Y29.8
X29.0Y46.625
X38.725Y64.225
X38.75Y46.275
X38.925Y28.475
X39.15Y10.7
X45.675Y86.25
X46.55Y47.8
X46.625Y29.75
X46.65Y66.9
X46.725Y11.525
X56.825Y46.4
X57.175Y28.6
X57.2Y64.45
X57.2Y10.6
X63.65Y86.25
X64.375Y66.875
X64.525Y48.275
X64.7Y11.7
X64.725Y29.6
X75.025Y46.5
X75.075Y28.6
X75.1Y64.325
X75.3Y10.7
X81.1Y85.65
X81.775Y66.45
X82.525Y29.75
X82.55Y12.025
X82.75Y47.85
X88.35Y78.4
X92.95Y64.325
X93.025Y46.5
X93.15Y28.8
X93.3Y10.725
X96.925Y35.8
X96.975Y54.125
X99.0Y69.55
X99.0Y16.4
X100.0Y81.1
X104.2Y73.625
T2
X14.45Y46.3
X14.45Y28.25
X14.5Y82.3
X14.5Y64.2
X20.75Y21.95
X20.8Y57.9
X21.0Y75.8
X21.1Y40.0
X34.8Y75.8
X35.7Y21.9
X35.8Y57.8
X35.8Y39.8
X38.2Y75.9
X38.7Y57.9
X39.3Y39.8
X39.7Y22.0
X53.8Y22.0
X54.0Y76.0
X54.0Y40.0
X54.1Y57.8
X57.0Y40.0
X57.4Y76.1
X57.5Y22.0
X57.6Y57.8
X71.9Y39.9
X71.9Y21.9
X72.0Y75.8
X72.1Y57.9
X74.9Y22.0
X75.1Y40.0
X75.3Y58.0
X76.7Y75.9
X83.2Y75.9
X89.7Y39.9
X89.9Y57.9
X89.9Y21.9
X93.3Y70.8
X93.4Y16.7
X93.5Y52.8
X93.5Y34.7
X99.0Y83.35
X117.25Y62.975
X117.4Y57.3
X118.25Y61.9
X118.4Y57.325
X119.425Y61.85
X119.95Y57.35
X121.6Y57.35
X122.242Y77.025
X122.325Y74.575
X122.45Y72.85
X123.25Y67.675
X123.275Y59.875
X126.725Y81.325
X126.775Y77.575
X135.4Y40.1
X135.5Y41.4
X135.8Y37.5
X135.8Y36.3
X141.8Y76.2
X142.1Y80.3
X144.6Y83.8
X146.1Y80.1
X147.051Y81.332
X148.3Y78.2
X149.6Y79.225
T4
X107.515Y61.09
X107.515Y58.55
X107.515Y56.01
X107.515Y53.47
X107.515Y50.93
X107.515Y48.39
X107.515Y45.85
X107.515Y43.31
X107.515Y40.77
X107.515Y38.23
X115.135Y61.09
X115.135Y58.55
X115.135Y56.01
X115.135Y53.47
X115.135Y50.93
X115.135Y48.39
X115.135Y45.85
X115.135Y43.31
X115.135Y40.77
X115.135Y38.23
T5
X134.855Y75.115
X137.395Y75.115
T6
X21.25Y79.3
X21.25Y61.3
X21.25Y43.3
X21.25Y25.3
X21.25Y7.3
X23.79Y79.3
X23.79Y61.3
X23.79Y43.3
X23.79Y25.3
X23.79Y7.3
X39.25Y79.3
X39.25Y61.3
X39.25Y43.3
X39.25Y25.3
X39.25Y7.3
X41.79Y79.3
X41.79Y61.3
X41.79Y43.3
X41.79Y25.3
X41.79Y7.3
X57.25Y79.3
X57.25Y61.3
X57.25Y43.3
X57.25Y25.3
X57.25Y7.3
X59.79Y79.3
X59.79Y61.3
X59.79Y43.3
X59.79Y25.3
X59.79Y7.3
X75.25Y79.3
X75.25Y61.3
X75.25Y43.3
X75.25Y25.3
X75.25Y7.3
X77.79Y79.3
X77.79Y61.3
X77.79Y43.3
X77.79Y25.3
X77.79Y7.3
X93.25Y79.3
X93.25Y61.3
X93.25Y43.3
X93.25Y25.3
X93.25Y7.3
X95.79Y79.3
X95.79Y61.3
X95.79Y43.3
X95.79Y25.3
X95.79Y7.3
X109.025Y74.8
X109.025Y68.3
X113.525Y74.8
X113.525Y68.3
X122.65Y94.6
X125.19Y94.6
X127.73Y94.6
X130.27Y94.6
X132.81Y94.6
X135.35Y94.6
T3
G00X151.8Y82.53
M15
G01X152.6Y82.53
M16
G05
G00X151.8Y73.87
M15
G01X152.6Y73.87
M16
G05
G00X156.08Y82.53
M15
G01X156.68Y82.53
M16
G05
G00X156.08Y73.87
M15
G01X156.68Y73.87
M16
G05
M30
