G04 #@! TF.GenerationSoftware,KiCad,Pcbnew,9.0.4*
G04 #@! TF.CreationDate,2025-10-26T21:25:07+02:00*
G04 #@! TF.ProjectId,ResumeCard,52657375-6d65-4436-9172-642e6b696361,rev?*
G04 #@! TF.SameCoordinates,Original*
G04 #@! TF.FileFunction,Legend,Bot*
G04 #@! TF.FilePolarity,Positive*
%FSLAX46Y46*%
G04 Gerber Fmt 4.6, Leading zero omitted, Abs format (unit mm)*
G04 Created by KiCad (PCBNEW 9.0.4) date 2025-10-26 21:25:07*
%MOMM*%
%LPD*%
G01*
G04 APERTURE LIST*
%ADD10C,0.300000*%
%ADD11C,0.325000*%
%ADD12C,0.320000*%
%ADD13C,0.200000*%
%ADD14C,0.150000*%
%ADD15C,0.260000*%
%ADD16R,1.700000X1.700000*%
%ADD17C,1.700000*%
%ADD18R,2.000000X1.500000*%
%ADD19O,2.000000X1.500000*%
%ADD20O,2.000000X1.520000*%
%ADD21C,0.750000*%
%ADD22O,2.000000X1.200000*%
%ADD23O,1.800000X1.200000*%
%ADD24C,2.700000*%
%ADD25C,1.600000*%
G04 APERTURE END LIST*
D10*
X83875000Y71250000D02*
X83350000Y70725000D01*
D11*
X84062500Y66725000D02*
G75*
G02*
X83737500Y66725000I-162500J0D01*
G01*
X83737500Y66725000D02*
G75*
G02*
X84062500Y66725000I162500J0D01*
G01*
D12*
X102825000Y65925000D02*
X113075000Y65925000D01*
X113075000Y33675000D01*
X102825000Y33675000D01*
X102825000Y65925000D01*
D13*
X18250000Y31950000D02*
G75*
G02*
X15650000Y31950000I-1300000J0D01*
G01*
X15650000Y31950000D02*
G75*
G02*
X18250000Y31950000I1300000J0D01*
G01*
D14*
X86550000Y85900000D02*
X86950000Y86350000D01*
D13*
X150400000Y84600000D02*
X158300000Y84600000D01*
X158300000Y71900000D01*
X150400000Y71900000D01*
X150400000Y84600000D01*
X83900000Y71275000D02*
X88575000Y71275000D01*
X88575000Y66700000D01*
X83900000Y66700000D01*
X83900000Y71275000D01*
D14*
X87750000Y85900000D02*
X86550000Y85900000D01*
D10*
X83875000Y71250000D02*
X84400000Y70725000D01*
D12*
X136710000Y45130000D02*
X144860000Y45130000D01*
X144860000Y31630000D01*
X136710000Y31630000D01*
X136710000Y45130000D01*
D10*
X88587500Y66687500D02*
X88062500Y67212500D01*
D12*
X49400000Y53100000D02*
X56100000Y53100000D01*
X56100000Y47700000D01*
X49400000Y47700000D01*
X49400000Y53100000D01*
D13*
X90350000Y85900000D02*
G75*
G02*
X87750000Y85900000I-1300000J0D01*
G01*
X87750000Y85900000D02*
G75*
G02*
X90350000Y85900000I1300000J0D01*
G01*
D10*
X88587500Y66687500D02*
X88062500Y66162500D01*
D14*
X86950000Y85450000D02*
X86550000Y85900000D01*
D10*
X158578570Y86921672D02*
X157721428Y86921672D01*
X158149999Y85421672D02*
X158149999Y86921672D01*
X156935713Y86135958D02*
X156935713Y85421672D01*
X157435713Y86921672D02*
X156935713Y86135958D01*
X156935713Y86135958D02*
X156435713Y86921672D01*
X155935714Y85421672D02*
X155935714Y86921672D01*
X155935714Y86921672D02*
X155364285Y86921672D01*
X155364285Y86921672D02*
X155221428Y86850243D01*
X155221428Y86850243D02*
X155149999Y86778815D01*
X155149999Y86778815D02*
X155078571Y86635958D01*
X155078571Y86635958D02*
X155078571Y86421672D01*
X155078571Y86421672D02*
X155149999Y86278815D01*
X155149999Y86278815D02*
X155221428Y86207386D01*
X155221428Y86207386D02*
X155364285Y86135958D01*
X155364285Y86135958D02*
X155935714Y86135958D01*
X154435714Y86207386D02*
X153935714Y86207386D01*
X153721428Y85421672D02*
X154435714Y85421672D01*
X154435714Y85421672D02*
X154435714Y86921672D01*
X154435714Y86921672D02*
X153721428Y86921672D01*
X153078571Y85993100D02*
X151935714Y85993100D01*
X150364285Y85564529D02*
X150435713Y85493100D01*
X150435713Y85493100D02*
X150649999Y85421672D01*
X150649999Y85421672D02*
X150792856Y85421672D01*
X150792856Y85421672D02*
X151007142Y85493100D01*
X151007142Y85493100D02*
X151149999Y85635958D01*
X151149999Y85635958D02*
X151221428Y85778815D01*
X151221428Y85778815D02*
X151292856Y86064529D01*
X151292856Y86064529D02*
X151292856Y86278815D01*
X151292856Y86278815D02*
X151221428Y86564529D01*
X151221428Y86564529D02*
X151149999Y86707386D01*
X151149999Y86707386D02*
X151007142Y86850243D01*
X151007142Y86850243D02*
X150792856Y86921672D01*
X150792856Y86921672D02*
X150649999Y86921672D01*
X150649999Y86921672D02*
X150435713Y86850243D01*
X150435713Y86850243D02*
X150364285Y86778815D01*
D15*
X9919424Y3172616D02*
X9919424Y4472616D01*
X9300376Y3172616D02*
X9300376Y4472616D01*
X9300376Y4472616D02*
X8867042Y3544044D01*
X8867042Y3544044D02*
X8433709Y4472616D01*
X8433709Y4472616D02*
X8433709Y3172616D01*
D14*
X138539411Y92082562D02*
X138634649Y92130181D01*
X138634649Y92130181D02*
X138777506Y92130181D01*
X138777506Y92130181D02*
X138920363Y92082562D01*
X138920363Y92082562D02*
X139015601Y91987324D01*
X139015601Y91987324D02*
X139063220Y91892086D01*
X139063220Y91892086D02*
X139110839Y91701610D01*
X139110839Y91701610D02*
X139110839Y91558753D01*
X139110839Y91558753D02*
X139063220Y91368277D01*
X139063220Y91368277D02*
X139015601Y91273039D01*
X139015601Y91273039D02*
X138920363Y91177800D01*
X138920363Y91177800D02*
X138777506Y91130181D01*
X138777506Y91130181D02*
X138682268Y91130181D01*
X138682268Y91130181D02*
X138539411Y91177800D01*
X138539411Y91177800D02*
X138491792Y91225420D01*
X138491792Y91225420D02*
X138491792Y91558753D01*
X138491792Y91558753D02*
X138682268Y91558753D01*
X138063220Y91130181D02*
X138063220Y92130181D01*
X138063220Y92130181D02*
X137491792Y91130181D01*
X137491792Y91130181D02*
X137491792Y92130181D01*
X137015601Y91130181D02*
X137015601Y92130181D01*
X137015601Y92130181D02*
X136777506Y92130181D01*
X136777506Y92130181D02*
X136634649Y92082562D01*
X136634649Y92082562D02*
X136539411Y91987324D01*
X136539411Y91987324D02*
X136491792Y91892086D01*
X136491792Y91892086D02*
X136444173Y91701610D01*
X136444173Y91701610D02*
X136444173Y91558753D01*
X136444173Y91558753D02*
X136491792Y91368277D01*
X136491792Y91368277D02*
X136539411Y91273039D01*
X136539411Y91273039D02*
X136634649Y91177800D01*
X136634649Y91177800D02*
X136777506Y91130181D01*
X136777506Y91130181D02*
X137015601Y91130181D01*
X134682268Y91130181D02*
X135015601Y91606372D01*
X135253696Y91130181D02*
X135253696Y92130181D01*
X135253696Y92130181D02*
X134872744Y92130181D01*
X134872744Y92130181D02*
X134777506Y92082562D01*
X134777506Y92082562D02*
X134729887Y92034943D01*
X134729887Y92034943D02*
X134682268Y91939705D01*
X134682268Y91939705D02*
X134682268Y91796848D01*
X134682268Y91796848D02*
X134729887Y91701610D01*
X134729887Y91701610D02*
X134777506Y91653991D01*
X134777506Y91653991D02*
X134872744Y91606372D01*
X134872744Y91606372D02*
X135253696Y91606372D01*
X134301315Y91177800D02*
X134158458Y91130181D01*
X134158458Y91130181D02*
X133920363Y91130181D01*
X133920363Y91130181D02*
X133825125Y91177800D01*
X133825125Y91177800D02*
X133777506Y91225420D01*
X133777506Y91225420D02*
X133729887Y91320658D01*
X133729887Y91320658D02*
X133729887Y91415896D01*
X133729887Y91415896D02*
X133777506Y91511134D01*
X133777506Y91511134D02*
X133825125Y91558753D01*
X133825125Y91558753D02*
X133920363Y91606372D01*
X133920363Y91606372D02*
X134110839Y91653991D01*
X134110839Y91653991D02*
X134206077Y91701610D01*
X134206077Y91701610D02*
X134253696Y91749229D01*
X134253696Y91749229D02*
X134301315Y91844467D01*
X134301315Y91844467D02*
X134301315Y91939705D01*
X134301315Y91939705D02*
X134253696Y92034943D01*
X134253696Y92034943D02*
X134206077Y92082562D01*
X134206077Y92082562D02*
X134110839Y92130181D01*
X134110839Y92130181D02*
X133872744Y92130181D01*
X133872744Y92130181D02*
X133729887Y92082562D01*
X133444172Y92130181D02*
X132872744Y92130181D01*
X133158458Y91130181D02*
X133158458Y92130181D01*
X131777505Y91130181D02*
X131777505Y92130181D01*
X131777505Y92130181D02*
X131444172Y91415896D01*
X131444172Y91415896D02*
X131110839Y92130181D01*
X131110839Y92130181D02*
X131110839Y91130181D01*
X130444172Y92130181D02*
X130253696Y92130181D01*
X130253696Y92130181D02*
X130158458Y92082562D01*
X130158458Y92082562D02*
X130063220Y91987324D01*
X130063220Y91987324D02*
X130015601Y91796848D01*
X130015601Y91796848D02*
X130015601Y91463515D01*
X130015601Y91463515D02*
X130063220Y91273039D01*
X130063220Y91273039D02*
X130158458Y91177800D01*
X130158458Y91177800D02*
X130253696Y91130181D01*
X130253696Y91130181D02*
X130444172Y91130181D01*
X130444172Y91130181D02*
X130539410Y91177800D01*
X130539410Y91177800D02*
X130634648Y91273039D01*
X130634648Y91273039D02*
X130682267Y91463515D01*
X130682267Y91463515D02*
X130682267Y91796848D01*
X130682267Y91796848D02*
X130634648Y91987324D01*
X130634648Y91987324D02*
X130539410Y92082562D01*
X130539410Y92082562D02*
X130444172Y92130181D01*
X129634648Y91177800D02*
X129491791Y91130181D01*
X129491791Y91130181D02*
X129253696Y91130181D01*
X129253696Y91130181D02*
X129158458Y91177800D01*
X129158458Y91177800D02*
X129110839Y91225420D01*
X129110839Y91225420D02*
X129063220Y91320658D01*
X129063220Y91320658D02*
X129063220Y91415896D01*
X129063220Y91415896D02*
X129110839Y91511134D01*
X129110839Y91511134D02*
X129158458Y91558753D01*
X129158458Y91558753D02*
X129253696Y91606372D01*
X129253696Y91606372D02*
X129444172Y91653991D01*
X129444172Y91653991D02*
X129539410Y91701610D01*
X129539410Y91701610D02*
X129587029Y91749229D01*
X129587029Y91749229D02*
X129634648Y91844467D01*
X129634648Y91844467D02*
X129634648Y91939705D01*
X129634648Y91939705D02*
X129587029Y92034943D01*
X129587029Y92034943D02*
X129539410Y92082562D01*
X129539410Y92082562D02*
X129444172Y92130181D01*
X129444172Y92130181D02*
X129206077Y92130181D01*
X129206077Y92130181D02*
X129063220Y92082562D01*
X128634648Y91130181D02*
X128634648Y92130181D01*
X127444172Y91177800D02*
X127301315Y91130181D01*
X127301315Y91130181D02*
X127063220Y91130181D01*
X127063220Y91130181D02*
X126967982Y91177800D01*
X126967982Y91177800D02*
X126920363Y91225420D01*
X126920363Y91225420D02*
X126872744Y91320658D01*
X126872744Y91320658D02*
X126872744Y91415896D01*
X126872744Y91415896D02*
X126920363Y91511134D01*
X126920363Y91511134D02*
X126967982Y91558753D01*
X126967982Y91558753D02*
X127063220Y91606372D01*
X127063220Y91606372D02*
X127253696Y91653991D01*
X127253696Y91653991D02*
X127348934Y91701610D01*
X127348934Y91701610D02*
X127396553Y91749229D01*
X127396553Y91749229D02*
X127444172Y91844467D01*
X127444172Y91844467D02*
X127444172Y91939705D01*
X127444172Y91939705D02*
X127396553Y92034943D01*
X127396553Y92034943D02*
X127348934Y92082562D01*
X127348934Y92082562D02*
X127253696Y92130181D01*
X127253696Y92130181D02*
X127015601Y92130181D01*
X127015601Y92130181D02*
X126872744Y92082562D01*
X125872744Y91225420D02*
X125920363Y91177800D01*
X125920363Y91177800D02*
X126063220Y91130181D01*
X126063220Y91130181D02*
X126158458Y91130181D01*
X126158458Y91130181D02*
X126301315Y91177800D01*
X126301315Y91177800D02*
X126396553Y91273039D01*
X126396553Y91273039D02*
X126444172Y91368277D01*
X126444172Y91368277D02*
X126491791Y91558753D01*
X126491791Y91558753D02*
X126491791Y91701610D01*
X126491791Y91701610D02*
X126444172Y91892086D01*
X126444172Y91892086D02*
X126396553Y91987324D01*
X126396553Y91987324D02*
X126301315Y92082562D01*
X126301315Y92082562D02*
X126158458Y92130181D01*
X126158458Y92130181D02*
X126063220Y92130181D01*
X126063220Y92130181D02*
X125920363Y92082562D01*
X125920363Y92082562D02*
X125872744Y92034943D01*
X125444172Y91130181D02*
X125444172Y92130181D01*
X124872744Y91130181D02*
X125301315Y91701610D01*
X124872744Y92130181D02*
X125444172Y91558753D01*
X123682267Y91130181D02*
X123682267Y92130181D01*
X123682267Y92130181D02*
X123301315Y92130181D01*
X123301315Y92130181D02*
X123206077Y92082562D01*
X123206077Y92082562D02*
X123158458Y92034943D01*
X123158458Y92034943D02*
X123110839Y91939705D01*
X123110839Y91939705D02*
X123110839Y91796848D01*
X123110839Y91796848D02*
X123158458Y91701610D01*
X123158458Y91701610D02*
X123206077Y91653991D01*
X123206077Y91653991D02*
X123301315Y91606372D01*
X123301315Y91606372D02*
X123682267Y91606372D01*
X122777505Y92130181D02*
X122539410Y91130181D01*
X122539410Y91130181D02*
X122348934Y91844467D01*
X122348934Y91844467D02*
X122158458Y91130181D01*
X122158458Y91130181D02*
X121920363Y92130181D01*
X120967982Y91130181D02*
X121301315Y91606372D01*
X121539410Y91130181D02*
X121539410Y92130181D01*
X121539410Y92130181D02*
X121158458Y92130181D01*
X121158458Y92130181D02*
X121063220Y92082562D01*
X121063220Y92082562D02*
X121015601Y92034943D01*
X121015601Y92034943D02*
X120967982Y91939705D01*
X120967982Y91939705D02*
X120967982Y91796848D01*
X120967982Y91796848D02*
X121015601Y91701610D01*
X121015601Y91701610D02*
X121063220Y91653991D01*
X121063220Y91653991D02*
X121158458Y91606372D01*
X121158458Y91606372D02*
X121539410Y91606372D01*
X119777505Y91130181D02*
X119777505Y92130181D01*
X119777505Y92130181D02*
X119444172Y91415896D01*
X119444172Y91415896D02*
X119110839Y92130181D01*
X119110839Y92130181D02*
X119110839Y91130181D01*
X118634648Y91130181D02*
X118634648Y92130181D01*
X118206077Y91177800D02*
X118063220Y91130181D01*
X118063220Y91130181D02*
X117825125Y91130181D01*
X117825125Y91130181D02*
X117729887Y91177800D01*
X117729887Y91177800D02*
X117682268Y91225420D01*
X117682268Y91225420D02*
X117634649Y91320658D01*
X117634649Y91320658D02*
X117634649Y91415896D01*
X117634649Y91415896D02*
X117682268Y91511134D01*
X117682268Y91511134D02*
X117729887Y91558753D01*
X117729887Y91558753D02*
X117825125Y91606372D01*
X117825125Y91606372D02*
X118015601Y91653991D01*
X118015601Y91653991D02*
X118110839Y91701610D01*
X118110839Y91701610D02*
X118158458Y91749229D01*
X118158458Y91749229D02*
X118206077Y91844467D01*
X118206077Y91844467D02*
X118206077Y91939705D01*
X118206077Y91939705D02*
X118158458Y92034943D01*
X118158458Y92034943D02*
X118110839Y92082562D01*
X118110839Y92082562D02*
X118015601Y92130181D01*
X118015601Y92130181D02*
X117777506Y92130181D01*
X117777506Y92130181D02*
X117634649Y92082562D01*
X117015601Y92130181D02*
X116825125Y92130181D01*
X116825125Y92130181D02*
X116729887Y92082562D01*
X116729887Y92082562D02*
X116634649Y91987324D01*
X116634649Y91987324D02*
X116587030Y91796848D01*
X116587030Y91796848D02*
X116587030Y91463515D01*
X116587030Y91463515D02*
X116634649Y91273039D01*
X116634649Y91273039D02*
X116729887Y91177800D01*
X116729887Y91177800D02*
X116825125Y91130181D01*
X116825125Y91130181D02*
X117015601Y91130181D01*
X117015601Y91130181D02*
X117110839Y91177800D01*
X117110839Y91177800D02*
X117206077Y91273039D01*
X117206077Y91273039D02*
X117253696Y91463515D01*
X117253696Y91463515D02*
X117253696Y91796848D01*
X117253696Y91796848D02*
X117206077Y91987324D01*
X117206077Y91987324D02*
X117110839Y92082562D01*
X117110839Y92082562D02*
X117015601Y92130181D01*
D13*
X140142857Y4728020D02*
X140190476Y4680400D01*
X140190476Y4680400D02*
X140333333Y4632781D01*
X140333333Y4632781D02*
X140428571Y4632781D01*
X140428571Y4632781D02*
X140571428Y4680400D01*
X140571428Y4680400D02*
X140666666Y4775639D01*
X140666666Y4775639D02*
X140714285Y4870877D01*
X140714285Y4870877D02*
X140761904Y5061353D01*
X140761904Y5061353D02*
X140761904Y5204210D01*
X140761904Y5204210D02*
X140714285Y5394686D01*
X140714285Y5394686D02*
X140666666Y5489924D01*
X140666666Y5489924D02*
X140571428Y5585162D01*
X140571428Y5585162D02*
X140428571Y5632781D01*
X140428571Y5632781D02*
X140333333Y5632781D01*
X140333333Y5632781D02*
X140190476Y5585162D01*
X140190476Y5585162D02*
X140142857Y5537543D01*
X139571428Y4632781D02*
X139666666Y4680400D01*
X139666666Y4680400D02*
X139714285Y4728020D01*
X139714285Y4728020D02*
X139761904Y4823258D01*
X139761904Y4823258D02*
X139761904Y5108972D01*
X139761904Y5108972D02*
X139714285Y5204210D01*
X139714285Y5204210D02*
X139666666Y5251829D01*
X139666666Y5251829D02*
X139571428Y5299448D01*
X139571428Y5299448D02*
X139428571Y5299448D01*
X139428571Y5299448D02*
X139333333Y5251829D01*
X139333333Y5251829D02*
X139285714Y5204210D01*
X139285714Y5204210D02*
X139238095Y5108972D01*
X139238095Y5108972D02*
X139238095Y4823258D01*
X139238095Y4823258D02*
X139285714Y4728020D01*
X139285714Y4728020D02*
X139333333Y4680400D01*
X139333333Y4680400D02*
X139428571Y4632781D01*
X139428571Y4632781D02*
X139571428Y4632781D01*
X138666666Y4632781D02*
X138761904Y4680400D01*
X138761904Y4680400D02*
X138809523Y4775639D01*
X138809523Y4775639D02*
X138809523Y5632781D01*
X137857142Y5299448D02*
X137857142Y4632781D01*
X138285713Y5299448D02*
X138285713Y4775639D01*
X138285713Y4775639D02*
X138238094Y4680400D01*
X138238094Y4680400D02*
X138142856Y4632781D01*
X138142856Y4632781D02*
X137999999Y4632781D01*
X137999999Y4632781D02*
X137904761Y4680400D01*
X137904761Y4680400D02*
X137857142Y4728020D01*
X137380951Y4632781D02*
X137380951Y5299448D01*
X137380951Y5204210D02*
X137333332Y5251829D01*
X137333332Y5251829D02*
X137238094Y5299448D01*
X137238094Y5299448D02*
X137095237Y5299448D01*
X137095237Y5299448D02*
X136999999Y5251829D01*
X136999999Y5251829D02*
X136952380Y5156591D01*
X136952380Y5156591D02*
X136952380Y4632781D01*
X136952380Y5156591D02*
X136904761Y5251829D01*
X136904761Y5251829D02*
X136809523Y5299448D01*
X136809523Y5299448D02*
X136666666Y5299448D01*
X136666666Y5299448D02*
X136571427Y5251829D01*
X136571427Y5251829D02*
X136523808Y5156591D01*
X136523808Y5156591D02*
X136523808Y4632781D01*
X136047618Y5299448D02*
X136047618Y4632781D01*
X136047618Y5204210D02*
X135999999Y5251829D01*
X135999999Y5251829D02*
X135904761Y5299448D01*
X135904761Y5299448D02*
X135761904Y5299448D01*
X135761904Y5299448D02*
X135666666Y5251829D01*
X135666666Y5251829D02*
X135619047Y5156591D01*
X135619047Y5156591D02*
X135619047Y4632781D01*
X135190475Y4680400D02*
X135095237Y4632781D01*
X135095237Y4632781D02*
X134904761Y4632781D01*
X134904761Y4632781D02*
X134809523Y4680400D01*
X134809523Y4680400D02*
X134761904Y4775639D01*
X134761904Y4775639D02*
X134761904Y4823258D01*
X134761904Y4823258D02*
X134809523Y4918496D01*
X134809523Y4918496D02*
X134904761Y4966115D01*
X134904761Y4966115D02*
X135047618Y4966115D01*
X135047618Y4966115D02*
X135142856Y5013734D01*
X135142856Y5013734D02*
X135190475Y5108972D01*
X135190475Y5108972D02*
X135190475Y5156591D01*
X135190475Y5156591D02*
X135142856Y5251829D01*
X135142856Y5251829D02*
X135047618Y5299448D01*
X135047618Y5299448D02*
X134904761Y5299448D01*
X134904761Y5299448D02*
X134809523Y5251829D01*
X133571427Y5299448D02*
X133571427Y4299448D01*
X133571427Y5251829D02*
X133476189Y5299448D01*
X133476189Y5299448D02*
X133285713Y5299448D01*
X133285713Y5299448D02*
X133190475Y5251829D01*
X133190475Y5251829D02*
X133142856Y5204210D01*
X133142856Y5204210D02*
X133095237Y5108972D01*
X133095237Y5108972D02*
X133095237Y4823258D01*
X133095237Y4823258D02*
X133142856Y4728020D01*
X133142856Y4728020D02*
X133190475Y4680400D01*
X133190475Y4680400D02*
X133285713Y4632781D01*
X133285713Y4632781D02*
X133476189Y4632781D01*
X133476189Y4632781D02*
X133571427Y4680400D01*
X132666665Y4632781D02*
X132666665Y5299448D01*
X132666665Y5632781D02*
X132714284Y5585162D01*
X132714284Y5585162D02*
X132666665Y5537543D01*
X132666665Y5537543D02*
X132619046Y5585162D01*
X132619046Y5585162D02*
X132666665Y5632781D01*
X132666665Y5632781D02*
X132666665Y5537543D01*
X132190475Y5299448D02*
X132190475Y4632781D01*
X132190475Y5204210D02*
X132142856Y5251829D01*
X132142856Y5251829D02*
X132047618Y5299448D01*
X132047618Y5299448D02*
X131904761Y5299448D01*
X131904761Y5299448D02*
X131809523Y5251829D01*
X131809523Y5251829D02*
X131761904Y5156591D01*
X131761904Y5156591D02*
X131761904Y4632781D01*
X131333332Y4680400D02*
X131238094Y4632781D01*
X131238094Y4632781D02*
X131047618Y4632781D01*
X131047618Y4632781D02*
X130952380Y4680400D01*
X130952380Y4680400D02*
X130904761Y4775639D01*
X130904761Y4775639D02*
X130904761Y4823258D01*
X130904761Y4823258D02*
X130952380Y4918496D01*
X130952380Y4918496D02*
X131047618Y4966115D01*
X131047618Y4966115D02*
X131190475Y4966115D01*
X131190475Y4966115D02*
X131285713Y5013734D01*
X131285713Y5013734D02*
X131333332Y5108972D01*
X131333332Y5108972D02*
X131333332Y5156591D01*
X131333332Y5156591D02*
X131285713Y5251829D01*
X131285713Y5251829D02*
X131190475Y5299448D01*
X131190475Y5299448D02*
X131047618Y5299448D01*
X131047618Y5299448D02*
X130952380Y5251829D01*
X129714284Y5013734D02*
X128952380Y5013734D01*
X128476189Y5299448D02*
X127714285Y5013734D01*
X127714285Y5013734D02*
X128476189Y4728020D01*
X126285713Y5632781D02*
X126095237Y5632781D01*
X126095237Y5632781D02*
X125999999Y5585162D01*
X125999999Y5585162D02*
X125904761Y5489924D01*
X125904761Y5489924D02*
X125857142Y5299448D01*
X125857142Y5299448D02*
X125857142Y4966115D01*
X125857142Y4966115D02*
X125904761Y4775639D01*
X125904761Y4775639D02*
X125999999Y4680400D01*
X125999999Y4680400D02*
X126095237Y4632781D01*
X126095237Y4632781D02*
X126285713Y4632781D01*
X126285713Y4632781D02*
X126380951Y4680400D01*
X126380951Y4680400D02*
X126476189Y4775639D01*
X126476189Y4775639D02*
X126523808Y4966115D01*
X126523808Y4966115D02*
X126523808Y5299448D01*
X126523808Y5299448D02*
X126476189Y5489924D01*
X126476189Y5489924D02*
X126380951Y5585162D01*
X126380951Y5585162D02*
X126285713Y5632781D01*
X125428570Y5632781D02*
X125428570Y4823258D01*
X125428570Y4823258D02*
X125380951Y4728020D01*
X125380951Y4728020D02*
X125333332Y4680400D01*
X125333332Y4680400D02*
X125238094Y4632781D01*
X125238094Y4632781D02*
X125047618Y4632781D01*
X125047618Y4632781D02*
X124952380Y4680400D01*
X124952380Y4680400D02*
X124904761Y4728020D01*
X124904761Y4728020D02*
X124857142Y4823258D01*
X124857142Y4823258D02*
X124857142Y5632781D01*
X124523808Y5632781D02*
X123952380Y5632781D01*
X124238094Y4632781D02*
X124238094Y5632781D01*
X123619046Y4632781D02*
X123619046Y5632781D01*
X123619046Y5632781D02*
X123238094Y5632781D01*
X123238094Y5632781D02*
X123142856Y5585162D01*
X123142856Y5585162D02*
X123095237Y5537543D01*
X123095237Y5537543D02*
X123047618Y5442305D01*
X123047618Y5442305D02*
X123047618Y5299448D01*
X123047618Y5299448D02*
X123095237Y5204210D01*
X123095237Y5204210D02*
X123142856Y5156591D01*
X123142856Y5156591D02*
X123238094Y5108972D01*
X123238094Y5108972D02*
X123619046Y5108972D01*
X122619046Y5632781D02*
X122619046Y4823258D01*
X122619046Y4823258D02*
X122571427Y4728020D01*
X122571427Y4728020D02*
X122523808Y4680400D01*
X122523808Y4680400D02*
X122428570Y4632781D01*
X122428570Y4632781D02*
X122238094Y4632781D01*
X122238094Y4632781D02*
X122142856Y4680400D01*
X122142856Y4680400D02*
X122095237Y4728020D01*
X122095237Y4728020D02*
X122047618Y4823258D01*
X122047618Y4823258D02*
X122047618Y5632781D01*
X121714284Y5632781D02*
X121142856Y5632781D01*
X121428570Y4632781D02*
X121428570Y5632781D01*
D14*
X17140476Y31495181D02*
X17711904Y31495181D01*
X17426190Y31495181D02*
X17426190Y32495181D01*
X17426190Y32495181D02*
X17521428Y32352324D01*
X17521428Y32352324D02*
X17616666Y32257086D01*
X17616666Y32257086D02*
X17711904Y32209467D01*
X16235714Y32495181D02*
X16711904Y32495181D01*
X16711904Y32495181D02*
X16759523Y32018991D01*
X16759523Y32018991D02*
X16711904Y32066610D01*
X16711904Y32066610D02*
X16616666Y32114229D01*
X16616666Y32114229D02*
X16378571Y32114229D01*
X16378571Y32114229D02*
X16283333Y32066610D01*
X16283333Y32066610D02*
X16235714Y32018991D01*
X16235714Y32018991D02*
X16188095Y31923753D01*
X16188095Y31923753D02*
X16188095Y31685658D01*
X16188095Y31685658D02*
X16235714Y31590420D01*
X16235714Y31590420D02*
X16283333Y31542800D01*
X16283333Y31542800D02*
X16378571Y31495181D01*
X16378571Y31495181D02*
X16616666Y31495181D01*
X16616666Y31495181D02*
X16711904Y31542800D01*
X16711904Y31542800D02*
X16759523Y31590420D01*
D10*
X101072257Y63016918D02*
X101072257Y62302632D01*
X101500828Y63159775D02*
X100000828Y62659775D01*
X100000828Y62659775D02*
X101500828Y62159775D01*
X100500828Y61874061D02*
X100500828Y61302633D01*
X100000828Y61659776D02*
X101286542Y61659776D01*
X101286542Y61659776D02*
X101429400Y61588347D01*
X101429400Y61588347D02*
X101500828Y61445490D01*
X101500828Y61445490D02*
X101500828Y61302633D01*
X100500828Y61016918D02*
X100500828Y60445490D01*
X100000828Y60802633D02*
X101286542Y60802633D01*
X101286542Y60802633D02*
X101429400Y60731204D01*
X101429400Y60731204D02*
X101500828Y60588347D01*
X101500828Y60588347D02*
X101500828Y60445490D01*
X101500828Y59945490D02*
X100500828Y59945490D01*
X100000828Y59945490D02*
X100072257Y60016918D01*
X100072257Y60016918D02*
X100143685Y59945490D01*
X100143685Y59945490D02*
X100072257Y59874061D01*
X100072257Y59874061D02*
X100000828Y59945490D01*
X100000828Y59945490D02*
X100143685Y59945490D01*
X100500828Y59231204D02*
X101500828Y59231204D01*
X100643685Y59231204D02*
X100572257Y59159775D01*
X100572257Y59159775D02*
X100500828Y59016918D01*
X100500828Y59016918D02*
X100500828Y58802632D01*
X100500828Y58802632D02*
X100572257Y58659775D01*
X100572257Y58659775D02*
X100715114Y58588346D01*
X100715114Y58588346D02*
X101500828Y58588346D01*
X100500828Y58016918D02*
X101500828Y57659775D01*
X100500828Y57302632D02*
X101500828Y57659775D01*
X101500828Y57659775D02*
X101857971Y57802632D01*
X101857971Y57802632D02*
X101929400Y57874061D01*
X101929400Y57874061D02*
X102000828Y58016918D01*
X100143685Y56802632D02*
X100072257Y56731204D01*
X100072257Y56731204D02*
X100000828Y56588346D01*
X100000828Y56588346D02*
X100000828Y56231204D01*
X100000828Y56231204D02*
X100072257Y56088346D01*
X100072257Y56088346D02*
X100143685Y56016918D01*
X100143685Y56016918D02*
X100286542Y55945489D01*
X100286542Y55945489D02*
X100429400Y55945489D01*
X100429400Y55945489D02*
X100643685Y56016918D01*
X100643685Y56016918D02*
X101500828Y56874061D01*
X101500828Y56874061D02*
X101500828Y55945489D01*
X100000828Y55445490D02*
X100000828Y54516918D01*
X100000828Y54516918D02*
X100572257Y55016918D01*
X100572257Y55016918D02*
X100572257Y54802633D01*
X100572257Y54802633D02*
X100643685Y54659775D01*
X100643685Y54659775D02*
X100715114Y54588347D01*
X100715114Y54588347D02*
X100857971Y54516918D01*
X100857971Y54516918D02*
X101215114Y54516918D01*
X101215114Y54516918D02*
X101357971Y54588347D01*
X101357971Y54588347D02*
X101429400Y54659775D01*
X101429400Y54659775D02*
X101500828Y54802633D01*
X101500828Y54802633D02*
X101500828Y55231204D01*
X101500828Y55231204D02*
X101429400Y55374061D01*
X101429400Y55374061D02*
X101357971Y55445490D01*
X101500828Y53088347D02*
X101500828Y53945490D01*
X101500828Y53516919D02*
X100000828Y53516919D01*
X100000828Y53516919D02*
X100215114Y53659776D01*
X100215114Y53659776D02*
X100357971Y53802633D01*
X100357971Y53802633D02*
X100429400Y53945490D01*
X100000828Y52588348D02*
X100000828Y51659776D01*
X100000828Y51659776D02*
X100572257Y52159776D01*
X100572257Y52159776D02*
X100572257Y51945491D01*
X100572257Y51945491D02*
X100643685Y51802633D01*
X100643685Y51802633D02*
X100715114Y51731205D01*
X100715114Y51731205D02*
X100857971Y51659776D01*
X100857971Y51659776D02*
X101215114Y51659776D01*
X101215114Y51659776D02*
X101357971Y51731205D01*
X101357971Y51731205D02*
X101429400Y51802633D01*
X101429400Y51802633D02*
X101500828Y51945491D01*
X101500828Y51945491D02*
X101500828Y52374062D01*
X101500828Y52374062D02*
X101429400Y52516919D01*
X101429400Y52516919D02*
X101357971Y52588348D01*
D13*
X151311279Y24780162D02*
X150930326Y24780162D01*
X150930326Y24780162D02*
X150739850Y24684924D01*
X150739850Y24684924D02*
X150549374Y24494448D01*
X150549374Y24494448D02*
X150454136Y24113496D01*
X150454136Y24113496D02*
X150454136Y23446829D01*
X150454136Y23446829D02*
X150549374Y23065877D01*
X150549374Y23065877D02*
X150739850Y22875400D01*
X150739850Y22875400D02*
X150930326Y22780162D01*
X150930326Y22780162D02*
X151311279Y22780162D01*
X151311279Y22780162D02*
X151501755Y22875400D01*
X151501755Y22875400D02*
X151692231Y23065877D01*
X151692231Y23065877D02*
X151787469Y23446829D01*
X151787469Y23446829D02*
X151787469Y24113496D01*
X151787469Y24113496D02*
X151692231Y24494448D01*
X151692231Y24494448D02*
X151501755Y24684924D01*
X151501755Y24684924D02*
X151311279Y24780162D01*
X149596993Y22780162D02*
X149596993Y24780162D01*
X149596993Y24780162D02*
X148835088Y24780162D01*
X148835088Y24780162D02*
X148644612Y24684924D01*
X148644612Y24684924D02*
X148549374Y24589686D01*
X148549374Y24589686D02*
X148454136Y24399210D01*
X148454136Y24399210D02*
X148454136Y24113496D01*
X148454136Y24113496D02*
X148549374Y23923020D01*
X148549374Y23923020D02*
X148644612Y23827781D01*
X148644612Y23827781D02*
X148835088Y23732543D01*
X148835088Y23732543D02*
X149596993Y23732543D01*
X147596993Y23827781D02*
X146930326Y23827781D01*
X146644612Y22780162D02*
X147596993Y22780162D01*
X147596993Y22780162D02*
X147596993Y24780162D01*
X147596993Y24780162D02*
X146644612Y24780162D01*
X145787469Y22780162D02*
X145787469Y24780162D01*
X145787469Y24780162D02*
X144644612Y22780162D01*
X144644612Y22780162D02*
X144644612Y24780162D01*
X143692231Y23542067D02*
X142168422Y23542067D01*
X141311279Y22875400D02*
X141025565Y22780162D01*
X141025565Y22780162D02*
X140549374Y22780162D01*
X140549374Y22780162D02*
X140358898Y22875400D01*
X140358898Y22875400D02*
X140263660Y22970639D01*
X140263660Y22970639D02*
X140168422Y23161115D01*
X140168422Y23161115D02*
X140168422Y23351591D01*
X140168422Y23351591D02*
X140263660Y23542067D01*
X140263660Y23542067D02*
X140358898Y23637305D01*
X140358898Y23637305D02*
X140549374Y23732543D01*
X140549374Y23732543D02*
X140930327Y23827781D01*
X140930327Y23827781D02*
X141120803Y23923020D01*
X141120803Y23923020D02*
X141216041Y24018258D01*
X141216041Y24018258D02*
X141311279Y24208734D01*
X141311279Y24208734D02*
X141311279Y24399210D01*
X141311279Y24399210D02*
X141216041Y24589686D01*
X141216041Y24589686D02*
X141120803Y24684924D01*
X141120803Y24684924D02*
X140930327Y24780162D01*
X140930327Y24780162D02*
X140454136Y24780162D01*
X140454136Y24780162D02*
X140168422Y24684924D01*
X138930327Y24780162D02*
X138549374Y24780162D01*
X138549374Y24780162D02*
X138358898Y24684924D01*
X138358898Y24684924D02*
X138168422Y24494448D01*
X138168422Y24494448D02*
X138073184Y24113496D01*
X138073184Y24113496D02*
X138073184Y23446829D01*
X138073184Y23446829D02*
X138168422Y23065877D01*
X138168422Y23065877D02*
X138358898Y22875400D01*
X138358898Y22875400D02*
X138549374Y22780162D01*
X138549374Y22780162D02*
X138930327Y22780162D01*
X138930327Y22780162D02*
X139120803Y22875400D01*
X139120803Y22875400D02*
X139311279Y23065877D01*
X139311279Y23065877D02*
X139406517Y23446829D01*
X139406517Y23446829D02*
X139406517Y24113496D01*
X139406517Y24113496D02*
X139311279Y24494448D01*
X139311279Y24494448D02*
X139120803Y24684924D01*
X139120803Y24684924D02*
X138930327Y24780162D01*
X137216041Y24780162D02*
X137216041Y23161115D01*
X137216041Y23161115D02*
X137120803Y22970639D01*
X137120803Y22970639D02*
X137025565Y22875400D01*
X137025565Y22875400D02*
X136835089Y22780162D01*
X136835089Y22780162D02*
X136454136Y22780162D01*
X136454136Y22780162D02*
X136263660Y22875400D01*
X136263660Y22875400D02*
X136168422Y22970639D01*
X136168422Y22970639D02*
X136073184Y23161115D01*
X136073184Y23161115D02*
X136073184Y24780162D01*
X133977946Y22780162D02*
X134644613Y23732543D01*
X135120803Y22780162D02*
X135120803Y24780162D01*
X135120803Y24780162D02*
X134358898Y24780162D01*
X134358898Y24780162D02*
X134168422Y24684924D01*
X134168422Y24684924D02*
X134073184Y24589686D01*
X134073184Y24589686D02*
X133977946Y24399210D01*
X133977946Y24399210D02*
X133977946Y24113496D01*
X133977946Y24113496D02*
X134073184Y23923020D01*
X134073184Y23923020D02*
X134168422Y23827781D01*
X134168422Y23827781D02*
X134358898Y23732543D01*
X134358898Y23732543D02*
X135120803Y23732543D01*
X131977946Y22970639D02*
X132073184Y22875400D01*
X132073184Y22875400D02*
X132358898Y22780162D01*
X132358898Y22780162D02*
X132549374Y22780162D01*
X132549374Y22780162D02*
X132835089Y22875400D01*
X132835089Y22875400D02*
X133025565Y23065877D01*
X133025565Y23065877D02*
X133120803Y23256353D01*
X133120803Y23256353D02*
X133216041Y23637305D01*
X133216041Y23637305D02*
X133216041Y23923020D01*
X133216041Y23923020D02*
X133120803Y24303972D01*
X133120803Y24303972D02*
X133025565Y24494448D01*
X133025565Y24494448D02*
X132835089Y24684924D01*
X132835089Y24684924D02*
X132549374Y24780162D01*
X132549374Y24780162D02*
X132358898Y24780162D01*
X132358898Y24780162D02*
X132073184Y24684924D01*
X132073184Y24684924D02*
X131977946Y24589686D01*
X131120803Y23827781D02*
X130454136Y23827781D01*
X130168422Y22780162D02*
X131120803Y22780162D01*
X131120803Y22780162D02*
X131120803Y24780162D01*
X131120803Y24780162D02*
X130168422Y24780162D01*
X87519048Y68540305D02*
X87976191Y68540305D01*
X87747619Y68540305D02*
X87747619Y69340305D01*
X87747619Y69340305D02*
X87823810Y69226020D01*
X87823810Y69226020D02*
X87900000Y69149829D01*
X87900000Y69149829D02*
X87976191Y69111734D01*
X87061905Y68997448D02*
X87138095Y69035543D01*
X87138095Y69035543D02*
X87176190Y69073639D01*
X87176190Y69073639D02*
X87214286Y69149829D01*
X87214286Y69149829D02*
X87214286Y69187924D01*
X87214286Y69187924D02*
X87176190Y69264115D01*
X87176190Y69264115D02*
X87138095Y69302210D01*
X87138095Y69302210D02*
X87061905Y69340305D01*
X87061905Y69340305D02*
X86909524Y69340305D01*
X86909524Y69340305D02*
X86833333Y69302210D01*
X86833333Y69302210D02*
X86795238Y69264115D01*
X86795238Y69264115D02*
X86757143Y69187924D01*
X86757143Y69187924D02*
X86757143Y69149829D01*
X86757143Y69149829D02*
X86795238Y69073639D01*
X86795238Y69073639D02*
X86833333Y69035543D01*
X86833333Y69035543D02*
X86909524Y68997448D01*
X86909524Y68997448D02*
X87061905Y68997448D01*
X87061905Y68997448D02*
X87138095Y68959353D01*
X87138095Y68959353D02*
X87176190Y68921258D01*
X87176190Y68921258D02*
X87214286Y68845067D01*
X87214286Y68845067D02*
X87214286Y68692686D01*
X87214286Y68692686D02*
X87176190Y68616496D01*
X87176190Y68616496D02*
X87138095Y68578400D01*
X87138095Y68578400D02*
X87061905Y68540305D01*
X87061905Y68540305D02*
X86909524Y68540305D01*
X86909524Y68540305D02*
X86833333Y68578400D01*
X86833333Y68578400D02*
X86795238Y68616496D01*
X86795238Y68616496D02*
X86757143Y68692686D01*
X86757143Y68692686D02*
X86757143Y68845067D01*
X86757143Y68845067D02*
X86795238Y68921258D01*
X86795238Y68921258D02*
X86833333Y68959353D01*
X86833333Y68959353D02*
X86909524Y68997448D01*
X86414285Y68540305D02*
X86414285Y69073639D01*
X86414285Y68997448D02*
X86376190Y69035543D01*
X86376190Y69035543D02*
X86300000Y69073639D01*
X86300000Y69073639D02*
X86185714Y69073639D01*
X86185714Y69073639D02*
X86109523Y69035543D01*
X86109523Y69035543D02*
X86071428Y68959353D01*
X86071428Y68959353D02*
X86071428Y68540305D01*
X86071428Y68959353D02*
X86033333Y69035543D01*
X86033333Y69035543D02*
X85957142Y69073639D01*
X85957142Y69073639D02*
X85842857Y69073639D01*
X85842857Y69073639D02*
X85766666Y69035543D01*
X85766666Y69035543D02*
X85728571Y68959353D01*
X85728571Y68959353D02*
X85728571Y68540305D01*
X85347618Y68540305D02*
X85347618Y69073639D01*
X85347618Y68997448D02*
X85309523Y69035543D01*
X85309523Y69035543D02*
X85233333Y69073639D01*
X85233333Y69073639D02*
X85119047Y69073639D01*
X85119047Y69073639D02*
X85042856Y69035543D01*
X85042856Y69035543D02*
X85004761Y68959353D01*
X85004761Y68959353D02*
X85004761Y68540305D01*
X85004761Y68959353D02*
X84966666Y69035543D01*
X84966666Y69035543D02*
X84890475Y69073639D01*
X84890475Y69073639D02*
X84776190Y69073639D01*
X84776190Y69073639D02*
X84699999Y69035543D01*
X84699999Y69035543D02*
X84661904Y68959353D01*
X84661904Y68959353D02*
X84661904Y68540305D01*
D10*
X5617257Y59250000D02*
X4188685Y60250000D01*
X5617257Y60964286D02*
X2617257Y60964286D01*
X2617257Y60964286D02*
X2617257Y59821429D01*
X2617257Y59821429D02*
X2760114Y59535714D01*
X2760114Y59535714D02*
X2902971Y59392857D01*
X2902971Y59392857D02*
X3188685Y59250000D01*
X3188685Y59250000D02*
X3617257Y59250000D01*
X3617257Y59250000D02*
X3902971Y59392857D01*
X3902971Y59392857D02*
X4045828Y59535714D01*
X4045828Y59535714D02*
X4188685Y59821429D01*
X4188685Y59821429D02*
X4188685Y60964286D01*
X4045828Y57964286D02*
X4045828Y56964286D01*
X5617257Y56535714D02*
X5617257Y57964286D01*
X5617257Y57964286D02*
X2617257Y57964286D01*
X2617257Y57964286D02*
X2617257Y56535714D01*
X5474400Y55392857D02*
X5617257Y54964285D01*
X5617257Y54964285D02*
X5617257Y54250000D01*
X5617257Y54250000D02*
X5474400Y53964285D01*
X5474400Y53964285D02*
X5331542Y53821428D01*
X5331542Y53821428D02*
X5045828Y53678571D01*
X5045828Y53678571D02*
X4760114Y53678571D01*
X4760114Y53678571D02*
X4474400Y53821428D01*
X4474400Y53821428D02*
X4331542Y53964285D01*
X4331542Y53964285D02*
X4188685Y54250000D01*
X4188685Y54250000D02*
X4045828Y54821428D01*
X4045828Y54821428D02*
X3902971Y55107143D01*
X3902971Y55107143D02*
X3760114Y55250000D01*
X3760114Y55250000D02*
X3474400Y55392857D01*
X3474400Y55392857D02*
X3188685Y55392857D01*
X3188685Y55392857D02*
X2902971Y55250000D01*
X2902971Y55250000D02*
X2760114Y55107143D01*
X2760114Y55107143D02*
X2617257Y54821428D01*
X2617257Y54821428D02*
X2617257Y54107143D01*
X2617257Y54107143D02*
X2760114Y53678571D01*
X2617257Y52392857D02*
X5045828Y52392857D01*
X5045828Y52392857D02*
X5331542Y52250000D01*
X5331542Y52250000D02*
X5474400Y52107142D01*
X5474400Y52107142D02*
X5617257Y51821428D01*
X5617257Y51821428D02*
X5617257Y51250000D01*
X5617257Y51250000D02*
X5474400Y50964285D01*
X5474400Y50964285D02*
X5331542Y50821428D01*
X5331542Y50821428D02*
X5045828Y50678571D01*
X5045828Y50678571D02*
X2617257Y50678571D01*
X5617257Y49250000D02*
X2617257Y49250000D01*
X2617257Y49250000D02*
X4760114Y48250000D01*
X4760114Y48250000D02*
X2617257Y47250000D01*
X2617257Y47250000D02*
X5617257Y47250000D01*
X4045828Y45821429D02*
X4045828Y44821429D01*
X5617257Y44392857D02*
X5617257Y45821429D01*
X5617257Y45821429D02*
X2617257Y45821429D01*
X2617257Y45821429D02*
X2617257Y44392857D01*
D14*
X130063220Y96330181D02*
X130063220Y97330181D01*
X129634649Y96377800D02*
X129491792Y96330181D01*
X129491792Y96330181D02*
X129253697Y96330181D01*
X129253697Y96330181D02*
X129158459Y96377800D01*
X129158459Y96377800D02*
X129110840Y96425420D01*
X129110840Y96425420D02*
X129063221Y96520658D01*
X129063221Y96520658D02*
X129063221Y96615896D01*
X129063221Y96615896D02*
X129110840Y96711134D01*
X129110840Y96711134D02*
X129158459Y96758753D01*
X129158459Y96758753D02*
X129253697Y96806372D01*
X129253697Y96806372D02*
X129444173Y96853991D01*
X129444173Y96853991D02*
X129539411Y96901610D01*
X129539411Y96901610D02*
X129587030Y96949229D01*
X129587030Y96949229D02*
X129634649Y97044467D01*
X129634649Y97044467D02*
X129634649Y97139705D01*
X129634649Y97139705D02*
X129587030Y97234943D01*
X129587030Y97234943D02*
X129539411Y97282562D01*
X129539411Y97282562D02*
X129444173Y97330181D01*
X129444173Y97330181D02*
X129206078Y97330181D01*
X129206078Y97330181D02*
X129063221Y97282562D01*
X128634649Y96330181D02*
X128634649Y97330181D01*
X128634649Y97330181D02*
X128253697Y97330181D01*
X128253697Y97330181D02*
X128158459Y97282562D01*
X128158459Y97282562D02*
X128110840Y97234943D01*
X128110840Y97234943D02*
X128063221Y97139705D01*
X128063221Y97139705D02*
X128063221Y96996848D01*
X128063221Y96996848D02*
X128110840Y96901610D01*
X128110840Y96901610D02*
X128158459Y96853991D01*
X128158459Y96853991D02*
X128253697Y96806372D01*
X128253697Y96806372D02*
X128634649Y96806372D01*
D10*
X143939285Y49656945D02*
X144010713Y49585516D01*
X144010713Y49585516D02*
X144224999Y49514088D01*
X144224999Y49514088D02*
X144367856Y49514088D01*
X144367856Y49514088D02*
X144582142Y49585516D01*
X144582142Y49585516D02*
X144724999Y49728374D01*
X144724999Y49728374D02*
X144796428Y49871231D01*
X144796428Y49871231D02*
X144867856Y50156945D01*
X144867856Y50156945D02*
X144867856Y50371231D01*
X144867856Y50371231D02*
X144796428Y50656945D01*
X144796428Y50656945D02*
X144724999Y50799802D01*
X144724999Y50799802D02*
X144582142Y50942659D01*
X144582142Y50942659D02*
X144367856Y51014088D01*
X144367856Y51014088D02*
X144224999Y51014088D01*
X144224999Y51014088D02*
X144010713Y50942659D01*
X144010713Y50942659D02*
X143939285Y50871231D01*
X143296428Y49514088D02*
X143296428Y51014088D01*
X143296428Y50299802D02*
X142439285Y50299802D01*
X142439285Y49514088D02*
X142439285Y51014088D01*
X141867856Y51014088D02*
X140939284Y51014088D01*
X140939284Y51014088D02*
X141439284Y50442659D01*
X141439284Y50442659D02*
X141224999Y50442659D01*
X141224999Y50442659D02*
X141082142Y50371231D01*
X141082142Y50371231D02*
X141010713Y50299802D01*
X141010713Y50299802D02*
X140939284Y50156945D01*
X140939284Y50156945D02*
X140939284Y49799802D01*
X140939284Y49799802D02*
X141010713Y49656945D01*
X141010713Y49656945D02*
X141082142Y49585516D01*
X141082142Y49585516D02*
X141224999Y49514088D01*
X141224999Y49514088D02*
X141653570Y49514088D01*
X141653570Y49514088D02*
X141796427Y49585516D01*
X141796427Y49585516D02*
X141867856Y49656945D01*
X139653571Y50514088D02*
X139653571Y49514088D01*
X140010713Y51085516D02*
X140367856Y50014088D01*
X140367856Y50014088D02*
X139439285Y50014088D01*
X138582142Y51014088D02*
X138439285Y51014088D01*
X138439285Y51014088D02*
X138296428Y50942659D01*
X138296428Y50942659D02*
X138225000Y50871231D01*
X138225000Y50871231D02*
X138153571Y50728374D01*
X138153571Y50728374D02*
X138082142Y50442659D01*
X138082142Y50442659D02*
X138082142Y50085516D01*
X138082142Y50085516D02*
X138153571Y49799802D01*
X138153571Y49799802D02*
X138225000Y49656945D01*
X138225000Y49656945D02*
X138296428Y49585516D01*
X138296428Y49585516D02*
X138439285Y49514088D01*
X138439285Y49514088D02*
X138582142Y49514088D01*
X138582142Y49514088D02*
X138725000Y49585516D01*
X138725000Y49585516D02*
X138796428Y49656945D01*
X138796428Y49656945D02*
X138867857Y49799802D01*
X138867857Y49799802D02*
X138939285Y50085516D01*
X138939285Y50085516D02*
X138939285Y50442659D01*
X138939285Y50442659D02*
X138867857Y50728374D01*
X138867857Y50728374D02*
X138796428Y50871231D01*
X138796428Y50871231D02*
X138725000Y50942659D01*
X138725000Y50942659D02*
X138582142Y51014088D01*
X136582143Y49656945D02*
X136653571Y49585516D01*
X136653571Y49585516D02*
X136867857Y49514088D01*
X136867857Y49514088D02*
X137010714Y49514088D01*
X137010714Y49514088D02*
X137225000Y49585516D01*
X137225000Y49585516D02*
X137367857Y49728374D01*
X137367857Y49728374D02*
X137439286Y49871231D01*
X137439286Y49871231D02*
X137510714Y50156945D01*
X137510714Y50156945D02*
X137510714Y50371231D01*
X137510714Y50371231D02*
X137439286Y50656945D01*
X137439286Y50656945D02*
X137367857Y50799802D01*
X137367857Y50799802D02*
X137225000Y50942659D01*
X137225000Y50942659D02*
X137010714Y51014088D01*
X137010714Y51014088D02*
X136867857Y51014088D01*
X136867857Y51014088D02*
X136653571Y50942659D01*
X136653571Y50942659D02*
X136582143Y50871231D01*
X147939285Y48599172D02*
X147939285Y47384886D01*
X147939285Y47384886D02*
X147867856Y47242029D01*
X147867856Y47242029D02*
X147796428Y47170600D01*
X147796428Y47170600D02*
X147653570Y47099172D01*
X147653570Y47099172D02*
X147367856Y47099172D01*
X147367856Y47099172D02*
X147224999Y47170600D01*
X147224999Y47170600D02*
X147153570Y47242029D01*
X147153570Y47242029D02*
X147082142Y47384886D01*
X147082142Y47384886D02*
X147082142Y48599172D01*
X146439284Y47527743D02*
X145724999Y47527743D01*
X146582141Y47099172D02*
X146082141Y48599172D01*
X146082141Y48599172D02*
X145582141Y47099172D01*
X144224999Y47099172D02*
X144724999Y47813458D01*
X145082142Y47099172D02*
X145082142Y48599172D01*
X145082142Y48599172D02*
X144510713Y48599172D01*
X144510713Y48599172D02*
X144367856Y48527743D01*
X144367856Y48527743D02*
X144296427Y48456315D01*
X144296427Y48456315D02*
X144224999Y48313458D01*
X144224999Y48313458D02*
X144224999Y48099172D01*
X144224999Y48099172D02*
X144296427Y47956315D01*
X144296427Y47956315D02*
X144367856Y47884886D01*
X144367856Y47884886D02*
X144510713Y47813458D01*
X144510713Y47813458D02*
X145082142Y47813458D01*
X143796427Y48599172D02*
X142939285Y48599172D01*
X143367856Y47099172D02*
X143367856Y48599172D01*
X142439285Y47670600D02*
X141296428Y47670600D01*
X140653570Y48456315D02*
X140582142Y48527743D01*
X140582142Y48527743D02*
X140439285Y48599172D01*
X140439285Y48599172D02*
X140082142Y48599172D01*
X140082142Y48599172D02*
X139939285Y48527743D01*
X139939285Y48527743D02*
X139867856Y48456315D01*
X139867856Y48456315D02*
X139796427Y48313458D01*
X139796427Y48313458D02*
X139796427Y48170600D01*
X139796427Y48170600D02*
X139867856Y47956315D01*
X139867856Y47956315D02*
X140724999Y47099172D01*
X140724999Y47099172D02*
X139796427Y47099172D01*
X139153571Y47670600D02*
X138010714Y47670600D01*
X137296428Y48599172D02*
X137296428Y47384886D01*
X137296428Y47384886D02*
X137224999Y47242029D01*
X137224999Y47242029D02*
X137153571Y47170600D01*
X137153571Y47170600D02*
X137010713Y47099172D01*
X137010713Y47099172D02*
X136724999Y47099172D01*
X136724999Y47099172D02*
X136582142Y47170600D01*
X136582142Y47170600D02*
X136510713Y47242029D01*
X136510713Y47242029D02*
X136439285Y47384886D01*
X136439285Y47384886D02*
X136439285Y48599172D01*
X135796427Y47170600D02*
X135582142Y47099172D01*
X135582142Y47099172D02*
X135224999Y47099172D01*
X135224999Y47099172D02*
X135082142Y47170600D01*
X135082142Y47170600D02*
X135010713Y47242029D01*
X135010713Y47242029D02*
X134939284Y47384886D01*
X134939284Y47384886D02*
X134939284Y47527743D01*
X134939284Y47527743D02*
X135010713Y47670600D01*
X135010713Y47670600D02*
X135082142Y47742029D01*
X135082142Y47742029D02*
X135224999Y47813458D01*
X135224999Y47813458D02*
X135510713Y47884886D01*
X135510713Y47884886D02*
X135653570Y47956315D01*
X135653570Y47956315D02*
X135724999Y48027743D01*
X135724999Y48027743D02*
X135796427Y48170600D01*
X135796427Y48170600D02*
X135796427Y48313458D01*
X135796427Y48313458D02*
X135724999Y48456315D01*
X135724999Y48456315D02*
X135653570Y48527743D01*
X135653570Y48527743D02*
X135510713Y48599172D01*
X135510713Y48599172D02*
X135153570Y48599172D01*
X135153570Y48599172D02*
X134939284Y48527743D01*
X133796428Y47884886D02*
X133582142Y47813458D01*
X133582142Y47813458D02*
X133510713Y47742029D01*
X133510713Y47742029D02*
X133439285Y47599172D01*
X133439285Y47599172D02*
X133439285Y47384886D01*
X133439285Y47384886D02*
X133510713Y47242029D01*
X133510713Y47242029D02*
X133582142Y47170600D01*
X133582142Y47170600D02*
X133724999Y47099172D01*
X133724999Y47099172D02*
X134296428Y47099172D01*
X134296428Y47099172D02*
X134296428Y48599172D01*
X134296428Y48599172D02*
X133796428Y48599172D01*
X133796428Y48599172D02*
X133653571Y48527743D01*
X133653571Y48527743D02*
X133582142Y48456315D01*
X133582142Y48456315D02*
X133510713Y48313458D01*
X133510713Y48313458D02*
X133510713Y48170600D01*
X133510713Y48170600D02*
X133582142Y48027743D01*
X133582142Y48027743D02*
X133653571Y47956315D01*
X133653571Y47956315D02*
X133796428Y47884886D01*
X133796428Y47884886D02*
X134296428Y47884886D01*
D14*
X68690000Y95290529D02*
X68690000Y96550529D01*
X68690000Y96550529D02*
X68390000Y96550529D01*
X68390000Y96550529D02*
X68210000Y96490529D01*
X68210000Y96490529D02*
X68090000Y96370529D01*
X68090000Y96370529D02*
X68030000Y96250529D01*
X68030000Y96250529D02*
X67970000Y96010529D01*
X67970000Y96010529D02*
X67970000Y95830529D01*
X67970000Y95830529D02*
X68030000Y95590529D01*
X68030000Y95590529D02*
X68090000Y95470529D01*
X68090000Y95470529D02*
X68210000Y95350529D01*
X68210000Y95350529D02*
X68390000Y95290529D01*
X68390000Y95290529D02*
X68690000Y95290529D01*
X67250000Y95290529D02*
X67370000Y95350529D01*
X67370000Y95350529D02*
X67430000Y95410529D01*
X67430000Y95410529D02*
X67490000Y95530529D01*
X67490000Y95530529D02*
X67490000Y95890529D01*
X67490000Y95890529D02*
X67430000Y96010529D01*
X67430000Y96010529D02*
X67370000Y96070529D01*
X67370000Y96070529D02*
X67250000Y96130529D01*
X67250000Y96130529D02*
X67070000Y96130529D01*
X67070000Y96130529D02*
X66950000Y96070529D01*
X66950000Y96070529D02*
X66890000Y96010529D01*
X66890000Y96010529D02*
X66830000Y95890529D01*
X66830000Y95890529D02*
X66830000Y95530529D01*
X66830000Y95530529D02*
X66890000Y95410529D01*
X66890000Y95410529D02*
X66950000Y95350529D01*
X66950000Y95350529D02*
X67070000Y95290529D01*
X67070000Y95290529D02*
X67250000Y95290529D01*
X66290000Y96130529D02*
X66290000Y95290529D01*
X66290000Y96010529D02*
X66230000Y96070529D01*
X66230000Y96070529D02*
X66110000Y96130529D01*
X66110000Y96130529D02*
X65930000Y96130529D01*
X65930000Y96130529D02*
X65810000Y96070529D01*
X65810000Y96070529D02*
X65750000Y95950529D01*
X65750000Y95950529D02*
X65750000Y95290529D01*
X65330000Y96130529D02*
X64850000Y96130529D01*
X65150000Y96550529D02*
X65150000Y95470529D01*
X65150000Y95470529D02*
X65090000Y95350529D01*
X65090000Y95350529D02*
X64970000Y95290529D01*
X64970000Y95290529D02*
X64850000Y95290529D01*
X62930000Y96130529D02*
X62930000Y95290529D01*
X63470000Y96130529D02*
X63470000Y95470529D01*
X63470000Y95470529D02*
X63410000Y95350529D01*
X63410000Y95350529D02*
X63290000Y95290529D01*
X63290000Y95290529D02*
X63110000Y95290529D01*
X63110000Y95290529D02*
X62990000Y95350529D01*
X62990000Y95350529D02*
X62930000Y95410529D01*
X62390000Y95350529D02*
X62270000Y95290529D01*
X62270000Y95290529D02*
X62030000Y95290529D01*
X62030000Y95290529D02*
X61910000Y95350529D01*
X61910000Y95350529D02*
X61850000Y95470529D01*
X61850000Y95470529D02*
X61850000Y95530529D01*
X61850000Y95530529D02*
X61910000Y95650529D01*
X61910000Y95650529D02*
X62030000Y95710529D01*
X62030000Y95710529D02*
X62210000Y95710529D01*
X62210000Y95710529D02*
X62330000Y95770529D01*
X62330000Y95770529D02*
X62390000Y95890529D01*
X62390000Y95890529D02*
X62390000Y95950529D01*
X62390000Y95950529D02*
X62330000Y96070529D01*
X62330000Y96070529D02*
X62210000Y96130529D01*
X62210000Y96130529D02*
X62030000Y96130529D01*
X62030000Y96130529D02*
X61910000Y96070529D01*
X60830000Y95350529D02*
X60950000Y95290529D01*
X60950000Y95290529D02*
X61190000Y95290529D01*
X61190000Y95290529D02*
X61310000Y95350529D01*
X61310000Y95350529D02*
X61370000Y95470529D01*
X61370000Y95470529D02*
X61370000Y95950529D01*
X61370000Y95950529D02*
X61310000Y96070529D01*
X61310000Y96070529D02*
X61190000Y96130529D01*
X61190000Y96130529D02*
X60950000Y96130529D01*
X60950000Y96130529D02*
X60830000Y96070529D01*
X60830000Y96070529D02*
X60770000Y95950529D01*
X60770000Y95950529D02*
X60770000Y95830529D01*
X60770000Y95830529D02*
X61370000Y95710529D01*
X59450000Y96130529D02*
X58970000Y96130529D01*
X59270000Y96550529D02*
X59270000Y95470529D01*
X59270000Y95470529D02*
X59210000Y95350529D01*
X59210000Y95350529D02*
X59090000Y95290529D01*
X59090000Y95290529D02*
X58970000Y95290529D01*
X58370000Y95290529D02*
X58490000Y95350529D01*
X58490000Y95350529D02*
X58550000Y95410529D01*
X58550000Y95410529D02*
X58610000Y95530529D01*
X58610000Y95530529D02*
X58610000Y95890529D01*
X58610000Y95890529D02*
X58550000Y96010529D01*
X58550000Y96010529D02*
X58490000Y96070529D01*
X58490000Y96070529D02*
X58370000Y96130529D01*
X58370000Y96130529D02*
X58190000Y96130529D01*
X58190000Y96130529D02*
X58070000Y96070529D01*
X58070000Y96070529D02*
X58010000Y96010529D01*
X58010000Y96010529D02*
X57950000Y95890529D01*
X57950000Y95890529D02*
X57950000Y95530529D01*
X57950000Y95530529D02*
X58010000Y95410529D01*
X58010000Y95410529D02*
X58070000Y95350529D01*
X58070000Y95350529D02*
X58190000Y95290529D01*
X58190000Y95290529D02*
X58370000Y95290529D01*
X57230000Y95290529D02*
X57350000Y95350529D01*
X57350000Y95350529D02*
X57410000Y95410529D01*
X57410000Y95410529D02*
X57470000Y95530529D01*
X57470000Y95530529D02*
X57470000Y95890529D01*
X57470000Y95890529D02*
X57410000Y96010529D01*
X57410000Y96010529D02*
X57350000Y96070529D01*
X57350000Y96070529D02*
X57230000Y96130529D01*
X57230000Y96130529D02*
X57050000Y96130529D01*
X57050000Y96130529D02*
X56930000Y96070529D01*
X56930000Y96070529D02*
X56870000Y96010529D01*
X56870000Y96010529D02*
X56810000Y95890529D01*
X56810000Y95890529D02*
X56810000Y95530529D01*
X56810000Y95530529D02*
X56870000Y95410529D01*
X56870000Y95410529D02*
X56930000Y95350529D01*
X56930000Y95350529D02*
X57050000Y95290529D01*
X57050000Y95290529D02*
X57230000Y95290529D01*
X55310000Y95290529D02*
X55310000Y96130529D01*
X55310000Y96010529D02*
X55250000Y96070529D01*
X55250000Y96070529D02*
X55130000Y96130529D01*
X55130000Y96130529D02*
X54950000Y96130529D01*
X54950000Y96130529D02*
X54830000Y96070529D01*
X54830000Y96070529D02*
X54770000Y95950529D01*
X54770000Y95950529D02*
X54770000Y95290529D01*
X54770000Y95950529D02*
X54710000Y96070529D01*
X54710000Y96070529D02*
X54590000Y96130529D01*
X54590000Y96130529D02*
X54410000Y96130529D01*
X54410000Y96130529D02*
X54290000Y96070529D01*
X54290000Y96070529D02*
X54230000Y95950529D01*
X54230000Y95950529D02*
X54230000Y95290529D01*
X53090000Y96130529D02*
X53090000Y95290529D01*
X53630000Y96130529D02*
X53630000Y95470529D01*
X53630000Y95470529D02*
X53570000Y95350529D01*
X53570000Y95350529D02*
X53450000Y95290529D01*
X53450000Y95290529D02*
X53270000Y95290529D01*
X53270000Y95290529D02*
X53150000Y95350529D01*
X53150000Y95350529D02*
X53090000Y95410529D01*
X51950000Y95350529D02*
X52070000Y95290529D01*
X52070000Y95290529D02*
X52310000Y95290529D01*
X52310000Y95290529D02*
X52430000Y95350529D01*
X52430000Y95350529D02*
X52490000Y95410529D01*
X52490000Y95410529D02*
X52550000Y95530529D01*
X52550000Y95530529D02*
X52550000Y95890529D01*
X52550000Y95890529D02*
X52490000Y96010529D01*
X52490000Y96010529D02*
X52430000Y96070529D01*
X52430000Y96070529D02*
X52310000Y96130529D01*
X52310000Y96130529D02*
X52070000Y96130529D01*
X52070000Y96130529D02*
X51950000Y96070529D01*
X51410000Y95290529D02*
X51410000Y96550529D01*
X50870000Y95290529D02*
X50870000Y95950529D01*
X50870000Y95950529D02*
X50930000Y96070529D01*
X50930000Y96070529D02*
X51050000Y96130529D01*
X51050000Y96130529D02*
X51230000Y96130529D01*
X51230000Y96130529D02*
X51350000Y96070529D01*
X51350000Y96070529D02*
X51410000Y96010529D01*
X48890000Y95950529D02*
X48710000Y95890529D01*
X48710000Y95890529D02*
X48650000Y95830529D01*
X48650000Y95830529D02*
X48590000Y95710529D01*
X48590000Y95710529D02*
X48590000Y95530529D01*
X48590000Y95530529D02*
X48650000Y95410529D01*
X48650000Y95410529D02*
X48710000Y95350529D01*
X48710000Y95350529D02*
X48830000Y95290529D01*
X48830000Y95290529D02*
X49310000Y95290529D01*
X49310000Y95290529D02*
X49310000Y96550529D01*
X49310000Y96550529D02*
X48890000Y96550529D01*
X48890000Y96550529D02*
X48770000Y96490529D01*
X48770000Y96490529D02*
X48710000Y96430529D01*
X48710000Y96430529D02*
X48650000Y96310529D01*
X48650000Y96310529D02*
X48650000Y96190529D01*
X48650000Y96190529D02*
X48710000Y96070529D01*
X48710000Y96070529D02*
X48770000Y96010529D01*
X48770000Y96010529D02*
X48890000Y95950529D01*
X48890000Y95950529D02*
X49310000Y95950529D01*
X48050000Y95290529D02*
X48050000Y96130529D01*
X48050000Y95890529D02*
X47990000Y96010529D01*
X47990000Y96010529D02*
X47930000Y96070529D01*
X47930000Y96070529D02*
X47810000Y96130529D01*
X47810000Y96130529D02*
X47690000Y96130529D01*
X47270000Y95290529D02*
X47270000Y96130529D01*
X47270000Y96550529D02*
X47330000Y96490529D01*
X47330000Y96490529D02*
X47270000Y96430529D01*
X47270000Y96430529D02*
X47210000Y96490529D01*
X47210000Y96490529D02*
X47270000Y96550529D01*
X47270000Y96550529D02*
X47270000Y96430529D01*
X46130000Y96130529D02*
X46130000Y95110529D01*
X46130000Y95110529D02*
X46190000Y94990529D01*
X46190000Y94990529D02*
X46250000Y94930529D01*
X46250000Y94930529D02*
X46370000Y94870529D01*
X46370000Y94870529D02*
X46550000Y94870529D01*
X46550000Y94870529D02*
X46670000Y94930529D01*
X46130000Y95350529D02*
X46250000Y95290529D01*
X46250000Y95290529D02*
X46490000Y95290529D01*
X46490000Y95290529D02*
X46610000Y95350529D01*
X46610000Y95350529D02*
X46670000Y95410529D01*
X46670000Y95410529D02*
X46730000Y95530529D01*
X46730000Y95530529D02*
X46730000Y95890529D01*
X46730000Y95890529D02*
X46670000Y96010529D01*
X46670000Y96010529D02*
X46610000Y96070529D01*
X46610000Y96070529D02*
X46490000Y96130529D01*
X46490000Y96130529D02*
X46250000Y96130529D01*
X46250000Y96130529D02*
X46130000Y96070529D01*
X45530000Y95290529D02*
X45530000Y96550529D01*
X44990000Y95290529D02*
X44990000Y95950529D01*
X44990000Y95950529D02*
X45050000Y96070529D01*
X45050000Y96070529D02*
X45170000Y96130529D01*
X45170000Y96130529D02*
X45350000Y96130529D01*
X45350000Y96130529D02*
X45470000Y96070529D01*
X45470000Y96070529D02*
X45530000Y96010529D01*
X44570000Y96130529D02*
X44090000Y96130529D01*
X44390000Y96550529D02*
X44390000Y95470529D01*
X44390000Y95470529D02*
X44330000Y95350529D01*
X44330000Y95350529D02*
X44210000Y95290529D01*
X44210000Y95290529D02*
X44090000Y95290529D01*
X43670000Y96130529D02*
X43670000Y95290529D01*
X43670000Y96010529D02*
X43610000Y96070529D01*
X43610000Y96070529D02*
X43490000Y96130529D01*
X43490000Y96130529D02*
X43310000Y96130529D01*
X43310000Y96130529D02*
X43190000Y96070529D01*
X43190000Y96070529D02*
X43130000Y95950529D01*
X43130000Y95950529D02*
X43130000Y95290529D01*
X42050000Y95350529D02*
X42170000Y95290529D01*
X42170000Y95290529D02*
X42410000Y95290529D01*
X42410000Y95290529D02*
X42530000Y95350529D01*
X42530000Y95350529D02*
X42590000Y95470529D01*
X42590000Y95470529D02*
X42590000Y95950529D01*
X42590000Y95950529D02*
X42530000Y96070529D01*
X42530000Y96070529D02*
X42410000Y96130529D01*
X42410000Y96130529D02*
X42170000Y96130529D01*
X42170000Y96130529D02*
X42050000Y96070529D01*
X42050000Y96070529D02*
X41990000Y95950529D01*
X41990000Y95950529D02*
X41990000Y95830529D01*
X41990000Y95830529D02*
X42590000Y95710529D01*
X41510000Y95350529D02*
X41390000Y95290529D01*
X41390000Y95290529D02*
X41150000Y95290529D01*
X41150000Y95290529D02*
X41030000Y95350529D01*
X41030000Y95350529D02*
X40970000Y95470529D01*
X40970000Y95470529D02*
X40970000Y95530529D01*
X40970000Y95530529D02*
X41030000Y95650529D01*
X41030000Y95650529D02*
X41150000Y95710529D01*
X41150000Y95710529D02*
X41330000Y95710529D01*
X41330000Y95710529D02*
X41450000Y95770529D01*
X41450000Y95770529D02*
X41510000Y95890529D01*
X41510000Y95890529D02*
X41510000Y95950529D01*
X41510000Y95950529D02*
X41450000Y96070529D01*
X41450000Y96070529D02*
X41330000Y96130529D01*
X41330000Y96130529D02*
X41150000Y96130529D01*
X41150000Y96130529D02*
X41030000Y96070529D01*
X40490000Y95350529D02*
X40370000Y95290529D01*
X40370000Y95290529D02*
X40130000Y95290529D01*
X40130000Y95290529D02*
X40010000Y95350529D01*
X40010000Y95350529D02*
X39950000Y95470529D01*
X39950000Y95470529D02*
X39950000Y95530529D01*
X39950000Y95530529D02*
X40010000Y95650529D01*
X40010000Y95650529D02*
X40130000Y95710529D01*
X40130000Y95710529D02*
X40310000Y95710529D01*
X40310000Y95710529D02*
X40430000Y95770529D01*
X40430000Y95770529D02*
X40490000Y95890529D01*
X40490000Y95890529D02*
X40490000Y95950529D01*
X40490000Y95950529D02*
X40430000Y96070529D01*
X40430000Y96070529D02*
X40310000Y96130529D01*
X40310000Y96130529D02*
X40130000Y96130529D01*
X40130000Y96130529D02*
X40010000Y96070529D01*
X38570000Y96130529D02*
X38330000Y95290529D01*
X38330000Y95290529D02*
X38090000Y95890529D01*
X38090000Y95890529D02*
X37850000Y95290529D01*
X37850000Y95290529D02*
X37610000Y96130529D01*
X37130000Y95290529D02*
X37130000Y96130529D01*
X37130000Y96550529D02*
X37190000Y96490529D01*
X37190000Y96490529D02*
X37130000Y96430529D01*
X37130000Y96430529D02*
X37070000Y96490529D01*
X37070000Y96490529D02*
X37130000Y96550529D01*
X37130000Y96550529D02*
X37130000Y96430529D01*
X36710000Y96130529D02*
X36230000Y96130529D01*
X36530000Y96550529D02*
X36530000Y95470529D01*
X36530000Y95470529D02*
X36470000Y95350529D01*
X36470000Y95350529D02*
X36350000Y95290529D01*
X36350000Y95290529D02*
X36230000Y95290529D01*
X35810000Y95290529D02*
X35810000Y96550529D01*
X35270000Y95290529D02*
X35270000Y95950529D01*
X35270000Y95950529D02*
X35330000Y96070529D01*
X35330000Y96070529D02*
X35450000Y96130529D01*
X35450000Y96130529D02*
X35630000Y96130529D01*
X35630000Y96130529D02*
X35750000Y96070529D01*
X35750000Y96070529D02*
X35810000Y96010529D01*
X33530000Y95290529D02*
X33650000Y95350529D01*
X33650000Y95350529D02*
X33710000Y95470529D01*
X33710000Y95470529D02*
X33710000Y96550529D01*
X32870000Y95290529D02*
X32990000Y95350529D01*
X32990000Y95350529D02*
X33050000Y95410529D01*
X33050000Y95410529D02*
X33110000Y95530529D01*
X33110000Y95530529D02*
X33110000Y95890529D01*
X33110000Y95890529D02*
X33050000Y96010529D01*
X33050000Y96010529D02*
X32990000Y96070529D01*
X32990000Y96070529D02*
X32870000Y96130529D01*
X32870000Y96130529D02*
X32690000Y96130529D01*
X32690000Y96130529D02*
X32570000Y96070529D01*
X32570000Y96070529D02*
X32510000Y96010529D01*
X32510000Y96010529D02*
X32450000Y95890529D01*
X32450000Y95890529D02*
X32450000Y95530529D01*
X32450000Y95530529D02*
X32510000Y95410529D01*
X32510000Y95410529D02*
X32570000Y95350529D01*
X32570000Y95350529D02*
X32690000Y95290529D01*
X32690000Y95290529D02*
X32870000Y95290529D01*
X32030000Y96130529D02*
X31790000Y95290529D01*
X31790000Y95290529D02*
X31550000Y95890529D01*
X31550000Y95890529D02*
X31310000Y95290529D01*
X31310000Y95290529D02*
X31070000Y96130529D01*
X29090000Y95350529D02*
X29210000Y95290529D01*
X29210000Y95290529D02*
X29450000Y95290529D01*
X29450000Y95290529D02*
X29570000Y95350529D01*
X29570000Y95350529D02*
X29630000Y95410529D01*
X29630000Y95410529D02*
X29690000Y95530529D01*
X29690000Y95530529D02*
X29690000Y95890529D01*
X29690000Y95890529D02*
X29630000Y96010529D01*
X29630000Y96010529D02*
X29570000Y96070529D01*
X29570000Y96070529D02*
X29450000Y96130529D01*
X29450000Y96130529D02*
X29210000Y96130529D01*
X29210000Y96130529D02*
X29090000Y96070529D01*
X28010000Y96130529D02*
X28010000Y95290529D01*
X28550000Y96130529D02*
X28550000Y95470529D01*
X28550000Y95470529D02*
X28490000Y95350529D01*
X28490000Y95350529D02*
X28370000Y95290529D01*
X28370000Y95290529D02*
X28190000Y95290529D01*
X28190000Y95290529D02*
X28070000Y95350529D01*
X28070000Y95350529D02*
X28010000Y95410529D01*
X27410000Y95290529D02*
X27410000Y96130529D01*
X27410000Y95890529D02*
X27350000Y96010529D01*
X27350000Y96010529D02*
X27290000Y96070529D01*
X27290000Y96070529D02*
X27170000Y96130529D01*
X27170000Y96130529D02*
X27050000Y96130529D01*
X26630000Y95290529D02*
X26630000Y96130529D01*
X26630000Y95890529D02*
X26570000Y96010529D01*
X26570000Y96010529D02*
X26510000Y96070529D01*
X26510000Y96070529D02*
X26390000Y96130529D01*
X26390000Y96130529D02*
X26270000Y96130529D01*
X25370000Y95350529D02*
X25490000Y95290529D01*
X25490000Y95290529D02*
X25730000Y95290529D01*
X25730000Y95290529D02*
X25850000Y95350529D01*
X25850000Y95350529D02*
X25910000Y95470529D01*
X25910000Y95470529D02*
X25910000Y95950529D01*
X25910000Y95950529D02*
X25850000Y96070529D01*
X25850000Y96070529D02*
X25730000Y96130529D01*
X25730000Y96130529D02*
X25490000Y96130529D01*
X25490000Y96130529D02*
X25370000Y96070529D01*
X25370000Y96070529D02*
X25310000Y95950529D01*
X25310000Y95950529D02*
X25310000Y95830529D01*
X25310000Y95830529D02*
X25910000Y95710529D01*
X24770000Y96130529D02*
X24770000Y95290529D01*
X24770000Y96010529D02*
X24710000Y96070529D01*
X24710000Y96070529D02*
X24590000Y96130529D01*
X24590000Y96130529D02*
X24410000Y96130529D01*
X24410000Y96130529D02*
X24290000Y96070529D01*
X24290000Y96070529D02*
X24230000Y95950529D01*
X24230000Y95950529D02*
X24230000Y95290529D01*
X23810000Y96130529D02*
X23330000Y96130529D01*
X23630000Y96550529D02*
X23630000Y95470529D01*
X23630000Y95470529D02*
X23570000Y95350529D01*
X23570000Y95350529D02*
X23450000Y95290529D01*
X23450000Y95290529D02*
X23330000Y95290529D01*
X59660000Y93322000D02*
X59480000Y93262000D01*
X59480000Y93262000D02*
X59180000Y93262000D01*
X59180000Y93262000D02*
X59060000Y93322000D01*
X59060000Y93322000D02*
X59000000Y93382000D01*
X59000000Y93382000D02*
X58940000Y93502000D01*
X58940000Y93502000D02*
X58940000Y93622000D01*
X58940000Y93622000D02*
X59000000Y93742000D01*
X59000000Y93742000D02*
X59060000Y93802000D01*
X59060000Y93802000D02*
X59180000Y93862000D01*
X59180000Y93862000D02*
X59420000Y93922000D01*
X59420000Y93922000D02*
X59540000Y93982000D01*
X59540000Y93982000D02*
X59600000Y94042000D01*
X59600000Y94042000D02*
X59660000Y94162000D01*
X59660000Y94162000D02*
X59660000Y94282000D01*
X59660000Y94282000D02*
X59600000Y94402000D01*
X59600000Y94402000D02*
X59540000Y94462000D01*
X59540000Y94462000D02*
X59420000Y94522000D01*
X59420000Y94522000D02*
X59120000Y94522000D01*
X59120000Y94522000D02*
X58940000Y94462000D01*
X57860000Y93262000D02*
X57860000Y93922000D01*
X57860000Y93922000D02*
X57920000Y94042000D01*
X57920000Y94042000D02*
X58040000Y94102000D01*
X58040000Y94102000D02*
X58280000Y94102000D01*
X58280000Y94102000D02*
X58400000Y94042000D01*
X57860000Y93322000D02*
X57980000Y93262000D01*
X57980000Y93262000D02*
X58280000Y93262000D01*
X58280000Y93262000D02*
X58400000Y93322000D01*
X58400000Y93322000D02*
X58460000Y93442000D01*
X58460000Y93442000D02*
X58460000Y93562000D01*
X58460000Y93562000D02*
X58400000Y93682000D01*
X58400000Y93682000D02*
X58280000Y93742000D01*
X58280000Y93742000D02*
X57980000Y93742000D01*
X57980000Y93742000D02*
X57860000Y93802000D01*
X57440000Y94102000D02*
X56960000Y94102000D01*
X57260000Y93262000D02*
X57260000Y94342000D01*
X57260000Y94342000D02*
X57200000Y94462000D01*
X57200000Y94462000D02*
X57080000Y94522000D01*
X57080000Y94522000D02*
X56960000Y94522000D01*
X56060000Y93322000D02*
X56180000Y93262000D01*
X56180000Y93262000D02*
X56420000Y93262000D01*
X56420000Y93262000D02*
X56540000Y93322000D01*
X56540000Y93322000D02*
X56600000Y93442000D01*
X56600000Y93442000D02*
X56600000Y93922000D01*
X56600000Y93922000D02*
X56540000Y94042000D01*
X56540000Y94042000D02*
X56420000Y94102000D01*
X56420000Y94102000D02*
X56180000Y94102000D01*
X56180000Y94102000D02*
X56060000Y94042000D01*
X56060000Y94042000D02*
X56000000Y93922000D01*
X56000000Y93922000D02*
X56000000Y93802000D01*
X56000000Y93802000D02*
X56600000Y93682000D01*
X54500000Y93262000D02*
X54500000Y94522000D01*
X54500000Y94042000D02*
X54380000Y94102000D01*
X54380000Y94102000D02*
X54140000Y94102000D01*
X54140000Y94102000D02*
X54020000Y94042000D01*
X54020000Y94042000D02*
X53960000Y93982000D01*
X53960000Y93982000D02*
X53900000Y93862000D01*
X53900000Y93862000D02*
X53900000Y93502000D01*
X53900000Y93502000D02*
X53960000Y93382000D01*
X53960000Y93382000D02*
X54020000Y93322000D01*
X54020000Y93322000D02*
X54140000Y93262000D01*
X54140000Y93262000D02*
X54380000Y93262000D01*
X54380000Y93262000D02*
X54500000Y93322000D01*
X53360000Y93262000D02*
X53360000Y94102000D01*
X53360000Y93862000D02*
X53300000Y93982000D01*
X53300000Y93982000D02*
X53240000Y94042000D01*
X53240000Y94042000D02*
X53120000Y94102000D01*
X53120000Y94102000D02*
X53000000Y94102000D01*
X52580000Y93262000D02*
X52580000Y94102000D01*
X52580000Y94522000D02*
X52640000Y94462000D01*
X52640000Y94462000D02*
X52580000Y94402000D01*
X52580000Y94402000D02*
X52520000Y94462000D01*
X52520000Y94462000D02*
X52580000Y94522000D01*
X52580000Y94522000D02*
X52580000Y94402000D01*
X51440000Y94102000D02*
X51440000Y93082000D01*
X51440000Y93082000D02*
X51500000Y92962000D01*
X51500000Y92962000D02*
X51560000Y92902000D01*
X51560000Y92902000D02*
X51680000Y92842000D01*
X51680000Y92842000D02*
X51860000Y92842000D01*
X51860000Y92842000D02*
X51980000Y92902000D01*
X51440000Y93322000D02*
X51560000Y93262000D01*
X51560000Y93262000D02*
X51800000Y93262000D01*
X51800000Y93262000D02*
X51920000Y93322000D01*
X51920000Y93322000D02*
X51980000Y93382000D01*
X51980000Y93382000D02*
X52040000Y93502000D01*
X52040000Y93502000D02*
X52040000Y93862000D01*
X52040000Y93862000D02*
X51980000Y93982000D01*
X51980000Y93982000D02*
X51920000Y94042000D01*
X51920000Y94042000D02*
X51800000Y94102000D01*
X51800000Y94102000D02*
X51560000Y94102000D01*
X51560000Y94102000D02*
X51440000Y94042000D01*
X50840000Y93262000D02*
X50840000Y94522000D01*
X50300000Y93262000D02*
X50300000Y93922000D01*
X50300000Y93922000D02*
X50360000Y94042000D01*
X50360000Y94042000D02*
X50480000Y94102000D01*
X50480000Y94102000D02*
X50660000Y94102000D01*
X50660000Y94102000D02*
X50780000Y94042000D01*
X50780000Y94042000D02*
X50840000Y93982000D01*
X49880000Y94102000D02*
X49400000Y94102000D01*
X49700000Y94522000D02*
X49700000Y93442000D01*
X49700000Y93442000D02*
X49640000Y93322000D01*
X49640000Y93322000D02*
X49520000Y93262000D01*
X49520000Y93262000D02*
X49400000Y93262000D01*
X48980000Y94102000D02*
X48980000Y93262000D01*
X48980000Y93982000D02*
X48920000Y94042000D01*
X48920000Y94042000D02*
X48800000Y94102000D01*
X48800000Y94102000D02*
X48620000Y94102000D01*
X48620000Y94102000D02*
X48500000Y94042000D01*
X48500000Y94042000D02*
X48440000Y93922000D01*
X48440000Y93922000D02*
X48440000Y93262000D01*
X47360000Y93322000D02*
X47480000Y93262000D01*
X47480000Y93262000D02*
X47720000Y93262000D01*
X47720000Y93262000D02*
X47840000Y93322000D01*
X47840000Y93322000D02*
X47900000Y93442000D01*
X47900000Y93442000D02*
X47900000Y93922000D01*
X47900000Y93922000D02*
X47840000Y94042000D01*
X47840000Y94042000D02*
X47720000Y94102000D01*
X47720000Y94102000D02*
X47480000Y94102000D01*
X47480000Y94102000D02*
X47360000Y94042000D01*
X47360000Y94042000D02*
X47300000Y93922000D01*
X47300000Y93922000D02*
X47300000Y93802000D01*
X47300000Y93802000D02*
X47900000Y93682000D01*
X46820000Y93322000D02*
X46700000Y93262000D01*
X46700000Y93262000D02*
X46460000Y93262000D01*
X46460000Y93262000D02*
X46340000Y93322000D01*
X46340000Y93322000D02*
X46280000Y93442000D01*
X46280000Y93442000D02*
X46280000Y93502000D01*
X46280000Y93502000D02*
X46340000Y93622000D01*
X46340000Y93622000D02*
X46460000Y93682000D01*
X46460000Y93682000D02*
X46640000Y93682000D01*
X46640000Y93682000D02*
X46760000Y93742000D01*
X46760000Y93742000D02*
X46820000Y93862000D01*
X46820000Y93862000D02*
X46820000Y93922000D01*
X46820000Y93922000D02*
X46760000Y94042000D01*
X46760000Y94042000D02*
X46640000Y94102000D01*
X46640000Y94102000D02*
X46460000Y94102000D01*
X46460000Y94102000D02*
X46340000Y94042000D01*
X45800000Y93322000D02*
X45680000Y93262000D01*
X45680000Y93262000D02*
X45440000Y93262000D01*
X45440000Y93262000D02*
X45320000Y93322000D01*
X45320000Y93322000D02*
X45260000Y93442000D01*
X45260000Y93442000D02*
X45260000Y93502000D01*
X45260000Y93502000D02*
X45320000Y93622000D01*
X45320000Y93622000D02*
X45440000Y93682000D01*
X45440000Y93682000D02*
X45620000Y93682000D01*
X45620000Y93682000D02*
X45740000Y93742000D01*
X45740000Y93742000D02*
X45800000Y93862000D01*
X45800000Y93862000D02*
X45800000Y93922000D01*
X45800000Y93922000D02*
X45740000Y94042000D01*
X45740000Y94042000D02*
X45620000Y94102000D01*
X45620000Y94102000D02*
X45440000Y94102000D01*
X45440000Y94102000D02*
X45320000Y94042000D01*
X44720000Y93382000D02*
X44660000Y93322000D01*
X44660000Y93322000D02*
X44720000Y93262000D01*
X44720000Y93262000D02*
X44780000Y93322000D01*
X44780000Y93322000D02*
X44720000Y93382000D01*
X44720000Y93382000D02*
X44720000Y93262000D01*
X44720000Y94042000D02*
X44660000Y93982000D01*
X44660000Y93982000D02*
X44720000Y93922000D01*
X44720000Y93922000D02*
X44780000Y93982000D01*
X44780000Y93982000D02*
X44720000Y94042000D01*
X44720000Y94042000D02*
X44720000Y93922000D01*
X43220000Y94402000D02*
X43160000Y94462000D01*
X43160000Y94462000D02*
X43040000Y94522000D01*
X43040000Y94522000D02*
X42740000Y94522000D01*
X42740000Y94522000D02*
X42620000Y94462000D01*
X42620000Y94462000D02*
X42560000Y94402000D01*
X42560000Y94402000D02*
X42500000Y94282000D01*
X42500000Y94282000D02*
X42500000Y94162000D01*
X42500000Y94162000D02*
X42560000Y93982000D01*
X42560000Y93982000D02*
X43280000Y93262000D01*
X43280000Y93262000D02*
X42500000Y93262000D01*
X41720000Y94522000D02*
X41600000Y94522000D01*
X41600000Y94522000D02*
X41480000Y94462000D01*
X41480000Y94462000D02*
X41420000Y94402000D01*
X41420000Y94402000D02*
X41360000Y94282000D01*
X41360000Y94282000D02*
X41300000Y94042000D01*
X41300000Y94042000D02*
X41300000Y93742000D01*
X41300000Y93742000D02*
X41360000Y93502000D01*
X41360000Y93502000D02*
X41420000Y93382000D01*
X41420000Y93382000D02*
X41480000Y93322000D01*
X41480000Y93322000D02*
X41600000Y93262000D01*
X41600000Y93262000D02*
X41720000Y93262000D01*
X41720000Y93262000D02*
X41840000Y93322000D01*
X41840000Y93322000D02*
X41900000Y93382000D01*
X41900000Y93382000D02*
X41960000Y93502000D01*
X41960000Y93502000D02*
X42020000Y93742000D01*
X42020000Y93742000D02*
X42020000Y94042000D01*
X42020000Y94042000D02*
X41960000Y94282000D01*
X41960000Y94282000D02*
X41900000Y94402000D01*
X41900000Y94402000D02*
X41840000Y94462000D01*
X41840000Y94462000D02*
X41720000Y94522000D01*
X40820000Y93262000D02*
X39860000Y94522000D01*
X40640000Y94522000D02*
X40520000Y94462000D01*
X40520000Y94462000D02*
X40460000Y94342000D01*
X40460000Y94342000D02*
X40520000Y94222000D01*
X40520000Y94222000D02*
X40640000Y94162000D01*
X40640000Y94162000D02*
X40760000Y94222000D01*
X40760000Y94222000D02*
X40820000Y94342000D01*
X40820000Y94342000D02*
X40760000Y94462000D01*
X40760000Y94462000D02*
X40640000Y94522000D01*
X39920000Y93322000D02*
X39860000Y93442000D01*
X39860000Y93442000D02*
X39920000Y93562000D01*
X39920000Y93562000D02*
X40040000Y93622000D01*
X40040000Y93622000D02*
X40160000Y93562000D01*
X40160000Y93562000D02*
X40220000Y93442000D01*
X40220000Y93442000D02*
X40160000Y93322000D01*
X40160000Y93322000D02*
X40040000Y93262000D01*
X40040000Y93262000D02*
X39920000Y93322000D01*
X38360000Y93742000D02*
X37400000Y93742000D01*
X35900000Y94402000D02*
X35840000Y94462000D01*
X35840000Y94462000D02*
X35720000Y94522000D01*
X35720000Y94522000D02*
X35420000Y94522000D01*
X35420000Y94522000D02*
X35300000Y94462000D01*
X35300000Y94462000D02*
X35240000Y94402000D01*
X35240000Y94402000D02*
X35180000Y94282000D01*
X35180000Y94282000D02*
X35180000Y94162000D01*
X35180000Y94162000D02*
X35240000Y93982000D01*
X35240000Y93982000D02*
X35960000Y93262000D01*
X35960000Y93262000D02*
X35180000Y93262000D01*
X34040000Y94522000D02*
X34640000Y94522000D01*
X34640000Y94522000D02*
X34700000Y93922000D01*
X34700000Y93922000D02*
X34640000Y93982000D01*
X34640000Y93982000D02*
X34520000Y94042000D01*
X34520000Y94042000D02*
X34220000Y94042000D01*
X34220000Y94042000D02*
X34100000Y93982000D01*
X34100000Y93982000D02*
X34040000Y93922000D01*
X34040000Y93922000D02*
X33980000Y93802000D01*
X33980000Y93802000D02*
X33980000Y93502000D01*
X33980000Y93502000D02*
X34040000Y93382000D01*
X34040000Y93382000D02*
X34100000Y93322000D01*
X34100000Y93322000D02*
X34220000Y93262000D01*
X34220000Y93262000D02*
X34520000Y93262000D01*
X34520000Y93262000D02*
X34640000Y93322000D01*
X34640000Y93322000D02*
X34700000Y93382000D01*
X33500000Y93262000D02*
X32540000Y94522000D01*
X33320000Y94522000D02*
X33200000Y94462000D01*
X33200000Y94462000D02*
X33140000Y94342000D01*
X33140000Y94342000D02*
X33200000Y94222000D01*
X33200000Y94222000D02*
X33320000Y94162000D01*
X33320000Y94162000D02*
X33440000Y94222000D01*
X33440000Y94222000D02*
X33500000Y94342000D01*
X33500000Y94342000D02*
X33440000Y94462000D01*
X33440000Y94462000D02*
X33320000Y94522000D01*
X32600000Y93322000D02*
X32540000Y93442000D01*
X32540000Y93442000D02*
X32600000Y93562000D01*
X32600000Y93562000D02*
X32720000Y93622000D01*
X32720000Y93622000D02*
X32840000Y93562000D01*
X32840000Y93562000D02*
X32900000Y93442000D01*
X32900000Y93442000D02*
X32840000Y93322000D01*
X32840000Y93322000D02*
X32720000Y93262000D01*
X32720000Y93262000D02*
X32600000Y93322000D01*
D10*
X57838346Y55699172D02*
X57481203Y54199172D01*
X57481203Y54199172D02*
X57195489Y55270600D01*
X57195489Y55270600D02*
X56909774Y54199172D01*
X56909774Y54199172D02*
X56552632Y55699172D01*
X56052631Y54270600D02*
X55838346Y54199172D01*
X55838346Y54199172D02*
X55481203Y54199172D01*
X55481203Y54199172D02*
X55338346Y54270600D01*
X55338346Y54270600D02*
X55266917Y54342029D01*
X55266917Y54342029D02*
X55195488Y54484886D01*
X55195488Y54484886D02*
X55195488Y54627743D01*
X55195488Y54627743D02*
X55266917Y54770600D01*
X55266917Y54770600D02*
X55338346Y54842029D01*
X55338346Y54842029D02*
X55481203Y54913458D01*
X55481203Y54913458D02*
X55766917Y54984886D01*
X55766917Y54984886D02*
X55909774Y55056315D01*
X55909774Y55056315D02*
X55981203Y55127743D01*
X55981203Y55127743D02*
X56052631Y55270600D01*
X56052631Y55270600D02*
X56052631Y55413458D01*
X56052631Y55413458D02*
X55981203Y55556315D01*
X55981203Y55556315D02*
X55909774Y55627743D01*
X55909774Y55627743D02*
X55766917Y55699172D01*
X55766917Y55699172D02*
X55409774Y55699172D01*
X55409774Y55699172D02*
X55195488Y55627743D01*
X54624060Y55556315D02*
X54552632Y55627743D01*
X54552632Y55627743D02*
X54409775Y55699172D01*
X54409775Y55699172D02*
X54052632Y55699172D01*
X54052632Y55699172D02*
X53909775Y55627743D01*
X53909775Y55627743D02*
X53838346Y55556315D01*
X53838346Y55556315D02*
X53766917Y55413458D01*
X53766917Y55413458D02*
X53766917Y55270600D01*
X53766917Y55270600D02*
X53838346Y55056315D01*
X53838346Y55056315D02*
X54695489Y54199172D01*
X54695489Y54199172D02*
X53766917Y54199172D01*
X52909775Y55056315D02*
X53052632Y55127743D01*
X53052632Y55127743D02*
X53124061Y55199172D01*
X53124061Y55199172D02*
X53195489Y55342029D01*
X53195489Y55342029D02*
X53195489Y55413458D01*
X53195489Y55413458D02*
X53124061Y55556315D01*
X53124061Y55556315D02*
X53052632Y55627743D01*
X53052632Y55627743D02*
X52909775Y55699172D01*
X52909775Y55699172D02*
X52624061Y55699172D01*
X52624061Y55699172D02*
X52481204Y55627743D01*
X52481204Y55627743D02*
X52409775Y55556315D01*
X52409775Y55556315D02*
X52338346Y55413458D01*
X52338346Y55413458D02*
X52338346Y55342029D01*
X52338346Y55342029D02*
X52409775Y55199172D01*
X52409775Y55199172D02*
X52481204Y55127743D01*
X52481204Y55127743D02*
X52624061Y55056315D01*
X52624061Y55056315D02*
X52909775Y55056315D01*
X52909775Y55056315D02*
X53052632Y54984886D01*
X53052632Y54984886D02*
X53124061Y54913458D01*
X53124061Y54913458D02*
X53195489Y54770600D01*
X53195489Y54770600D02*
X53195489Y54484886D01*
X53195489Y54484886D02*
X53124061Y54342029D01*
X53124061Y54342029D02*
X53052632Y54270600D01*
X53052632Y54270600D02*
X52909775Y54199172D01*
X52909775Y54199172D02*
X52624061Y54199172D01*
X52624061Y54199172D02*
X52481204Y54270600D01*
X52481204Y54270600D02*
X52409775Y54342029D01*
X52409775Y54342029D02*
X52338346Y54484886D01*
X52338346Y54484886D02*
X52338346Y54770600D01*
X52338346Y54770600D02*
X52409775Y54913458D01*
X52409775Y54913458D02*
X52481204Y54984886D01*
X52481204Y54984886D02*
X52624061Y55056315D01*
X50909775Y54199172D02*
X51766918Y54199172D01*
X51338347Y54199172D02*
X51338347Y55699172D01*
X51338347Y55699172D02*
X51481204Y55484886D01*
X51481204Y55484886D02*
X51624061Y55342029D01*
X51624061Y55342029D02*
X51766918Y55270600D01*
X50338347Y55556315D02*
X50266919Y55627743D01*
X50266919Y55627743D02*
X50124062Y55699172D01*
X50124062Y55699172D02*
X49766919Y55699172D01*
X49766919Y55699172D02*
X49624062Y55627743D01*
X49624062Y55627743D02*
X49552633Y55556315D01*
X49552633Y55556315D02*
X49481204Y55413458D01*
X49481204Y55413458D02*
X49481204Y55270600D01*
X49481204Y55270600D02*
X49552633Y55056315D01*
X49552633Y55056315D02*
X50409776Y54199172D01*
X50409776Y54199172D02*
X49481204Y54199172D01*
X48338348Y54984886D02*
X48124062Y54913458D01*
X48124062Y54913458D02*
X48052633Y54842029D01*
X48052633Y54842029D02*
X47981205Y54699172D01*
X47981205Y54699172D02*
X47981205Y54484886D01*
X47981205Y54484886D02*
X48052633Y54342029D01*
X48052633Y54342029D02*
X48124062Y54270600D01*
X48124062Y54270600D02*
X48266919Y54199172D01*
X48266919Y54199172D02*
X48838348Y54199172D01*
X48838348Y54199172D02*
X48838348Y55699172D01*
X48838348Y55699172D02*
X48338348Y55699172D01*
X48338348Y55699172D02*
X48195491Y55627743D01*
X48195491Y55627743D02*
X48124062Y55556315D01*
X48124062Y55556315D02*
X48052633Y55413458D01*
X48052633Y55413458D02*
X48052633Y55270600D01*
X48052633Y55270600D02*
X48124062Y55127743D01*
X48124062Y55127743D02*
X48195491Y55056315D01*
X48195491Y55056315D02*
X48338348Y54984886D01*
X48338348Y54984886D02*
X48838348Y54984886D01*
D14*
X89097618Y86445181D02*
X89002380Y86445181D01*
X89002380Y86445181D02*
X88907142Y86397562D01*
X88907142Y86397562D02*
X88859523Y86349943D01*
X88859523Y86349943D02*
X88811904Y86254705D01*
X88811904Y86254705D02*
X88764285Y86064229D01*
X88764285Y86064229D02*
X88764285Y85826134D01*
X88764285Y85826134D02*
X88811904Y85635658D01*
X88811904Y85635658D02*
X88859523Y85540420D01*
X88859523Y85540420D02*
X88907142Y85492800D01*
X88907142Y85492800D02*
X89002380Y85445181D01*
X89002380Y85445181D02*
X89097618Y85445181D01*
X89097618Y85445181D02*
X89192856Y85492800D01*
X89192856Y85492800D02*
X89240475Y85540420D01*
X89240475Y85540420D02*
X89288094Y85635658D01*
X89288094Y85635658D02*
X89335713Y85826134D01*
X89335713Y85826134D02*
X89335713Y86064229D01*
X89335713Y86064229D02*
X89288094Y86254705D01*
X89288094Y86254705D02*
X89240475Y86349943D01*
X89240475Y86349943D02*
X89192856Y86397562D01*
X89192856Y86397562D02*
X89097618Y86445181D01*
D13*
X106500000Y90693972D02*
X106500000Y92193972D01*
X106500000Y91622543D02*
X106357143Y91693972D01*
X106357143Y91693972D02*
X106071428Y91693972D01*
X106071428Y91693972D02*
X105928571Y91622543D01*
X105928571Y91622543D02*
X105857143Y91551115D01*
X105857143Y91551115D02*
X105785714Y91408258D01*
X105785714Y91408258D02*
X105785714Y90979686D01*
X105785714Y90979686D02*
X105857143Y90836829D01*
X105857143Y90836829D02*
X105928571Y90765400D01*
X105928571Y90765400D02*
X106071428Y90693972D01*
X106071428Y90693972D02*
X106357143Y90693972D01*
X106357143Y90693972D02*
X106500000Y90765400D01*
X104500000Y91693972D02*
X104500000Y90693972D01*
X105142857Y91693972D02*
X105142857Y90908258D01*
X105142857Y90908258D02*
X105071428Y90765400D01*
X105071428Y90765400D02*
X104928571Y90693972D01*
X104928571Y90693972D02*
X104714285Y90693972D01*
X104714285Y90693972D02*
X104571428Y90765400D01*
X104571428Y90765400D02*
X104500000Y90836829D01*
X103571428Y90693972D02*
X103714285Y90765400D01*
X103714285Y90765400D02*
X103785714Y90908258D01*
X103785714Y90908258D02*
X103785714Y92193972D01*
X103000000Y90693972D02*
X103000000Y92193972D01*
X102857143Y91265400D02*
X102428571Y90693972D01*
X102428571Y91693972D02*
X103000000Y91122543D01*
%LPC*%
D16*
G04 #@! TO.C,SW16*
X21250000Y25300000D03*
D17*
X23790000Y25300000D03*
G04 #@! TD*
D16*
G04 #@! TO.C,SW17*
X39250000Y25300000D03*
D17*
X41790000Y25300000D03*
G04 #@! TD*
D16*
G04 #@! TO.C,SW12*
X39250000Y43300000D03*
D17*
X41790000Y43300000D03*
G04 #@! TD*
D16*
G04 #@! TO.C,SW6*
X21250000Y61300000D03*
D17*
X23790000Y61300000D03*
G04 #@! TD*
D16*
G04 #@! TO.C,SW2*
X39250000Y79300000D03*
D17*
X41790000Y79300000D03*
G04 #@! TD*
D16*
G04 #@! TO.C,SW11*
X21250000Y43300000D03*
D17*
X23790000Y43300000D03*
G04 #@! TD*
D18*
G04 #@! TO.C,U1*
X107515000Y61090000D03*
D19*
X107515000Y58550000D03*
X107515000Y56010000D03*
X107515000Y53470000D03*
X107515000Y50930000D03*
X107515000Y48390000D03*
X107515000Y45850000D03*
X107515000Y43310000D03*
X107515000Y40770000D03*
D20*
X107515000Y38230000D03*
X115135000Y38230000D03*
X115135000Y40770000D03*
X115135000Y43310000D03*
X115135000Y45850000D03*
X115135000Y48390000D03*
X115135000Y50930000D03*
X115135000Y53470000D03*
X115135000Y56010000D03*
X115135000Y58550000D03*
X115135000Y61090000D03*
G04 #@! TD*
D16*
G04 #@! TO.C,SW19*
X75250000Y25300000D03*
D17*
X77790000Y25300000D03*
G04 #@! TD*
D16*
G04 #@! TO.C,SW21*
X21250000Y7300000D03*
D17*
X23790000Y7300000D03*
G04 #@! TD*
D21*
G04 #@! TO.C,J1*
X152700000Y75300000D03*
X152700000Y81100000D03*
D22*
X152200000Y82530000D03*
D23*
X156380000Y82530000D03*
X156380000Y73870000D03*
D22*
X152200000Y73870000D03*
G04 #@! TD*
D16*
G04 #@! TO.C,SW5*
X93250000Y79300000D03*
D17*
X95790000Y79300000D03*
G04 #@! TD*
G04 #@! TO.C,SW26*
X113525000Y74800000D03*
X113525000Y68300000D03*
X109025000Y74800000D03*
X109025000Y68300000D03*
G04 #@! TD*
D16*
G04 #@! TO.C,SW1*
X21250000Y79300000D03*
D17*
X23790000Y79300000D03*
G04 #@! TD*
D24*
G04 #@! TO.C,MH4*
X157240000Y5550000D03*
G04 #@! TD*
D16*
G04 #@! TO.C,SW23*
X57250000Y7300000D03*
D17*
X59790000Y7300000D03*
G04 #@! TD*
D16*
G04 #@! TO.C,J2*
X135350000Y94600000D03*
D17*
X132810000Y94600000D03*
X130270000Y94600000D03*
X127730000Y94600000D03*
X125190000Y94600000D03*
X122650000Y94600000D03*
G04 #@! TD*
D16*
G04 #@! TO.C,SW8*
X57250000Y61300000D03*
D17*
X59790000Y61300000D03*
G04 #@! TD*
D24*
G04 #@! TO.C,MH1*
X3200000Y94450000D03*
G04 #@! TD*
D16*
G04 #@! TO.C,SW4*
X75250000Y79300000D03*
D17*
X77790000Y79300000D03*
G04 #@! TD*
D24*
G04 #@! TO.C,MH2*
X3570000Y5550000D03*
G04 #@! TD*
D16*
G04 #@! TO.C,SW7*
X39250000Y61300000D03*
D17*
X41790000Y61300000D03*
G04 #@! TD*
D25*
G04 #@! TO.C,C27*
X137395000Y75115000D03*
X134855000Y75115000D03*
G04 #@! TD*
D16*
G04 #@! TO.C,SW13*
X57250000Y43300000D03*
D17*
X59790000Y43300000D03*
G04 #@! TD*
D16*
G04 #@! TO.C,SW18*
X57250000Y25300000D03*
D17*
X59790000Y25300000D03*
G04 #@! TD*
D16*
G04 #@! TO.C,SW22*
X39250000Y7300000D03*
D17*
X41790000Y7300000D03*
G04 #@! TD*
D24*
G04 #@! TO.C,MH3*
X157240000Y94450000D03*
G04 #@! TD*
D16*
G04 #@! TO.C,SW3*
X57250000Y79300000D03*
D17*
X59790000Y79300000D03*
G04 #@! TD*
D16*
G04 #@! TO.C,SW20*
X93250000Y25300000D03*
D17*
X95790000Y25300000D03*
G04 #@! TD*
D16*
G04 #@! TO.C,SW14*
X75250000Y43300000D03*
D17*
X77790000Y43300000D03*
G04 #@! TD*
D16*
G04 #@! TO.C,SW25*
X93250000Y7300000D03*
D17*
X95790000Y7300000D03*
G04 #@! TD*
D16*
G04 #@! TO.C,SW9*
X75250000Y61300000D03*
D17*
X77790000Y61300000D03*
G04 #@! TD*
D16*
G04 #@! TO.C,SW24*
X75250000Y7300000D03*
D17*
X77790000Y7300000D03*
G04 #@! TD*
D16*
G04 #@! TO.C,SW10*
X93250000Y61300000D03*
D17*
X95790000Y61300000D03*
G04 #@! TD*
D16*
G04 #@! TO.C,SW15*
X93250000Y43300000D03*
D17*
X95790000Y43300000D03*
G04 #@! TD*
%LPD*%
M02*
