G04 #@! TF.GenerationSoftware,KiCad,Pcbnew,9.0.4*
G04 #@! TF.CreationDate,2025-10-26T21:25:07+02:00*
G04 #@! TF.ProjectId,ResumeCard,52657375-6d65-4436-9172-642e6b696361,rev?*
G04 #@! TF.SameCoordinates,Original*
G04 #@! TF.FileFunction,Soldermask,Top*
G04 #@! TF.FilePolarity,Negative*
%FSLAX46Y46*%
G04 Gerber Fmt 4.6, Leading zero omitted, Abs format (unit mm)*
G04 Created by KiCad (PCBNEW 9.0.4) date 2025-10-26 21:25:07*
%MOMM*%
%LPD*%
G01*
G04 APERTURE LIST*
G04 Aperture macros list*
%AMRoundRect*
0 Rectangle with rounded corners*
0 $1 Rounding radius*
0 $2 $3 $4 $5 $6 $7 $8 $9 X,Y pos of 4 corners*
0 Add a 4 corners polygon primitive as box body*
4,1,4,$2,$3,$4,$5,$6,$7,$8,$9,$2,$3,0*
0 Add four circle primitives for the rounded corners*
1,1,$1+$1,$2,$3*
1,1,$1+$1,$4,$5*
1,1,$1+$1,$6,$7*
1,1,$1+$1,$8,$9*
0 Add four rect primitives between the rounded corners*
20,1,$1+$1,$2,$3,$4,$5,0*
20,1,$1+$1,$4,$5,$6,$7,0*
20,1,$1+$1,$6,$7,$8,$9,0*
20,1,$1+$1,$8,$9,$2,$3,0*%
G04 Aperture macros list end*
%ADD10RoundRect,0.090000X-0.660000X-0.360000X0.660000X-0.360000X0.660000X0.360000X-0.660000X0.360000X0*%
%ADD11R,1.220000X0.910000*%
%ADD12R,1.700000X1.700000*%
%ADD13C,1.700000*%
%ADD14RoundRect,0.225000X-0.250000X0.225000X-0.250000X-0.225000X0.250000X-0.225000X0.250000X0.225000X0*%
%ADD15RoundRect,0.250000X0.550000X-1.500000X0.550000X1.500000X-0.550000X1.500000X-0.550000X-1.500000X0*%
%ADD16R,2.000000X1.500000*%
%ADD17O,2.000000X1.500000*%
%ADD18O,2.000000X1.520000*%
%ADD19RoundRect,0.200000X0.275000X-0.200000X0.275000X0.200000X-0.275000X0.200000X-0.275000X-0.200000X0*%
%ADD20C,0.750000*%
%ADD21O,2.000000X1.200000*%
%ADD22O,1.800000X1.200000*%
%ADD23C,0.010000*%
%ADD24R,1.300000X0.600000*%
%ADD25R,1.300000X0.300000*%
%ADD26C,2.700000*%
%ADD27RoundRect,0.200000X-0.200000X-0.275000X0.200000X-0.275000X0.200000X0.275000X-0.200000X0.275000X0*%
%ADD28RoundRect,0.250000X-0.375000X-0.625000X0.375000X-0.625000X0.375000X0.625000X-0.375000X0.625000X0*%
%ADD29RoundRect,0.225000X0.250000X-0.225000X0.250000X0.225000X-0.250000X0.225000X-0.250000X-0.225000X0*%
%ADD30RoundRect,0.225000X0.225000X0.250000X-0.225000X0.250000X-0.225000X-0.250000X0.225000X-0.250000X0*%
%ADD31C,1.600000*%
%ADD32RoundRect,0.200000X0.200000X0.275000X-0.200000X0.275000X-0.200000X-0.275000X0.200000X-0.275000X0*%
%ADD33RoundRect,0.200000X-0.275000X0.200000X-0.275000X-0.200000X0.275000X-0.200000X0.275000X0.200000X0*%
%ADD34RoundRect,0.150000X-0.825000X-0.150000X0.825000X-0.150000X0.825000X0.150000X-0.825000X0.150000X0*%
G04 APERTURE END LIST*
D10*
G04 #@! TO.C,D24*
X68550000Y15650000D03*
X68550000Y12350000D03*
X73450000Y12350000D03*
X73450000Y15650000D03*
G04 #@! TD*
G04 #@! TO.C,D22*
X32550000Y15650000D03*
X32550000Y12350000D03*
X37450000Y12350000D03*
X37450000Y15650000D03*
G04 #@! TD*
G04 #@! TO.C,D18*
X50550000Y33650000D03*
X50550000Y30350000D03*
X55450000Y30350000D03*
X55450000Y33650000D03*
G04 #@! TD*
G04 #@! TO.C,D4*
X68550000Y87650000D03*
X68550000Y84350000D03*
X73450000Y84350000D03*
X73450000Y87650000D03*
G04 #@! TD*
G04 #@! TO.C,D17*
X32550000Y33650000D03*
X32550000Y30350000D03*
X37450000Y30350000D03*
X37450000Y33650000D03*
G04 #@! TD*
G04 #@! TO.C,D8*
X50550000Y69650000D03*
X50550000Y66350000D03*
X55450000Y66350000D03*
X55450000Y69650000D03*
G04 #@! TD*
G04 #@! TO.C,D3*
X50550000Y87650000D03*
X50550000Y84350000D03*
X55450000Y84350000D03*
X55450000Y87650000D03*
G04 #@! TD*
G04 #@! TO.C,D12*
X32550000Y51650000D03*
X32550000Y48350000D03*
X37450000Y48350000D03*
X37450000Y51650000D03*
G04 #@! TD*
G04 #@! TO.C,D25*
X86550000Y15650000D03*
X86550000Y12350000D03*
X91450000Y12350000D03*
X91450000Y15650000D03*
G04 #@! TD*
G04 #@! TO.C,D7*
X32550000Y69650000D03*
X32550000Y66350000D03*
X37450000Y66350000D03*
X37450000Y69650000D03*
G04 #@! TD*
G04 #@! TO.C,D13*
X50550000Y51650000D03*
X50550000Y48350000D03*
X55450000Y48350000D03*
X55450000Y51650000D03*
G04 #@! TD*
G04 #@! TO.C,D9*
X68550000Y69650000D03*
X68550000Y66350000D03*
X73450000Y66350000D03*
X73450000Y69650000D03*
G04 #@! TD*
G04 #@! TO.C,D2*
X32550000Y87650000D03*
X32550000Y84350000D03*
X37450000Y84350000D03*
X37450000Y87650000D03*
G04 #@! TD*
G04 #@! TO.C,D6*
X14550000Y69650000D03*
X14550000Y66350000D03*
X19450000Y66350000D03*
X19450000Y69650000D03*
G04 #@! TD*
G04 #@! TO.C,D21*
X14550000Y15650000D03*
X14550000Y12350000D03*
X19450000Y12350000D03*
X19450000Y15650000D03*
G04 #@! TD*
G04 #@! TO.C,D19*
X68550000Y33650000D03*
X68550000Y30350000D03*
X73450000Y30350000D03*
X73450000Y33650000D03*
G04 #@! TD*
G04 #@! TO.C,D1*
X14550000Y87650000D03*
X14550000Y84350000D03*
X19450000Y84350000D03*
X19450000Y87650000D03*
G04 #@! TD*
G04 #@! TO.C,D10*
X86550000Y69650000D03*
X86550000Y66350000D03*
X91450000Y66350000D03*
X91450000Y69650000D03*
G04 #@! TD*
G04 #@! TO.C,D11*
X14550000Y51650000D03*
X14550000Y48350000D03*
X19450000Y48350000D03*
X19450000Y51650000D03*
G04 #@! TD*
G04 #@! TO.C,D16*
X14550000Y33650000D03*
X14550000Y30350000D03*
X19450000Y30350000D03*
X19450000Y33650000D03*
G04 #@! TD*
G04 #@! TO.C,D15*
X86550000Y51650000D03*
X86550000Y48350000D03*
X91450000Y48350000D03*
X91450000Y51650000D03*
G04 #@! TD*
G04 #@! TO.C,D23*
X50550000Y15650000D03*
X50550000Y12350000D03*
X55450000Y12350000D03*
X55450000Y15650000D03*
G04 #@! TD*
G04 #@! TO.C,D14*
X68550000Y51650000D03*
X68550000Y48350000D03*
X73450000Y48350000D03*
X73450000Y51650000D03*
G04 #@! TD*
G04 #@! TO.C,D5*
X86550000Y87650000D03*
X86550000Y84350000D03*
X91450000Y84350000D03*
X91450000Y87650000D03*
G04 #@! TD*
G04 #@! TO.C,D20*
X86550000Y33650000D03*
X86550000Y30350000D03*
X91450000Y30350000D03*
X91450000Y33650000D03*
G04 #@! TD*
D11*
G04 #@! TO.C,D46*
X24075000Y87490000D03*
X24075000Y84210000D03*
G04 #@! TD*
G04 #@! TO.C,D45*
X96025000Y33490000D03*
X96025000Y30210000D03*
G04 #@! TD*
G04 #@! TO.C,D42*
X96025000Y87315000D03*
X96025000Y84035000D03*
G04 #@! TD*
G04 #@! TO.C,D43*
X96025000Y69490000D03*
X96025000Y66210000D03*
G04 #@! TD*
G04 #@! TO.C,D50*
X96025000Y15490000D03*
X96025000Y12210000D03*
G04 #@! TD*
G04 #@! TO.C,D35*
X60050000Y51490000D03*
X60050000Y48210000D03*
G04 #@! TD*
G04 #@! TO.C,D34*
X60050000Y69490000D03*
X60050000Y66210000D03*
G04 #@! TD*
G04 #@! TO.C,D31*
X42062500Y51490000D03*
X42062500Y48210000D03*
G04 #@! TD*
G04 #@! TO.C,D27*
X24075000Y51490000D03*
X24075000Y48210000D03*
G04 #@! TD*
G04 #@! TO.C,D29*
X24075000Y15490000D03*
X24075000Y12210000D03*
G04 #@! TD*
G04 #@! TO.C,D28*
X24075000Y33490000D03*
X24075000Y30210000D03*
G04 #@! TD*
G04 #@! TO.C,D40*
X78037500Y33490000D03*
X78037500Y30210000D03*
G04 #@! TD*
G04 #@! TO.C,D39*
X78037500Y51490000D03*
X78037500Y48210000D03*
G04 #@! TD*
G04 #@! TO.C,D44*
X96025000Y51490000D03*
X96025000Y48210000D03*
G04 #@! TD*
G04 #@! TO.C,D37*
X60050000Y15490000D03*
X60050000Y12210000D03*
G04 #@! TD*
G04 #@! TO.C,D26*
X24075000Y69490000D03*
X24075000Y66210000D03*
G04 #@! TD*
G04 #@! TO.C,D47*
X42062500Y87490000D03*
X42062500Y84210000D03*
G04 #@! TD*
G04 #@! TO.C,D48*
X60050000Y87490000D03*
X60050000Y84210000D03*
G04 #@! TD*
G04 #@! TO.C,D33*
X42062500Y15490000D03*
X42062500Y12210000D03*
G04 #@! TD*
G04 #@! TO.C,D36*
X60050000Y33490000D03*
X60050000Y30210000D03*
G04 #@! TD*
G04 #@! TO.C,D49*
X78037500Y87490000D03*
X78037500Y84210000D03*
G04 #@! TD*
G04 #@! TO.C,D38*
X78037500Y69490000D03*
X78037500Y66210000D03*
G04 #@! TD*
G04 #@! TO.C,D41*
X78037500Y15490000D03*
X78037500Y12210000D03*
G04 #@! TD*
G04 #@! TO.C,D32*
X42062500Y33490000D03*
X42062500Y30210000D03*
G04 #@! TD*
D12*
G04 #@! TO.C,SW16*
X21250000Y25300000D03*
D13*
X23790000Y25300000D03*
G04 #@! TD*
D14*
G04 #@! TO.C,C9*
X68550000Y74775000D03*
X68550000Y73225000D03*
G04 #@! TD*
G04 #@! TO.C,C19*
X68550000Y38775000D03*
X68550000Y37225000D03*
G04 #@! TD*
D12*
G04 #@! TO.C,SW17*
X39250000Y25300000D03*
D13*
X41790000Y25300000D03*
G04 #@! TD*
D12*
G04 #@! TO.C,SW12*
X39250000Y43300000D03*
D13*
X41790000Y43300000D03*
G04 #@! TD*
D12*
G04 #@! TO.C,SW6*
X21250000Y61300000D03*
D13*
X23790000Y61300000D03*
G04 #@! TD*
D12*
G04 #@! TO.C,SW2*
X39250000Y79300000D03*
D13*
X41790000Y79300000D03*
G04 #@! TD*
D12*
G04 #@! TO.C,SW11*
X21250000Y43300000D03*
D13*
X23790000Y43300000D03*
G04 #@! TD*
D14*
G04 #@! TO.C,C22*
X32550000Y20775000D03*
X32550000Y19225000D03*
G04 #@! TD*
D15*
G04 #@! TO.C,C26*
X105750000Y86700000D03*
X105750000Y92100000D03*
G04 #@! TD*
D16*
G04 #@! TO.C,U1*
X107515000Y61090000D03*
D17*
X107515000Y58550000D03*
X107515000Y56010000D03*
X107515000Y53470000D03*
X107515000Y50930000D03*
X107515000Y48390000D03*
X107515000Y45850000D03*
X107515000Y43310000D03*
X107515000Y40770000D03*
D18*
X107515000Y38230000D03*
X115135000Y38230000D03*
X115135000Y40770000D03*
X115135000Y43310000D03*
X115135000Y45850000D03*
X115135000Y48390000D03*
X115135000Y50930000D03*
X115135000Y53470000D03*
X115135000Y56010000D03*
X115135000Y58550000D03*
X115135000Y61090000D03*
G04 #@! TD*
D14*
G04 #@! TO.C,C23*
X50550000Y20775000D03*
X50550000Y19225000D03*
G04 #@! TD*
G04 #@! TO.C,C5*
X86550000Y92775000D03*
X86550000Y91225000D03*
G04 #@! TD*
G04 #@! TO.C,C24*
X68550000Y20775000D03*
X68550000Y19225000D03*
G04 #@! TD*
D12*
G04 #@! TO.C,SW19*
X75250000Y25300000D03*
D13*
X77790000Y25300000D03*
G04 #@! TD*
D19*
G04 #@! TO.C,R2*
X99350000Y86075000D03*
X99350000Y87725000D03*
G04 #@! TD*
D14*
G04 #@! TO.C,C7*
X32550000Y74775000D03*
X32550000Y73225000D03*
G04 #@! TD*
D12*
G04 #@! TO.C,SW21*
X21250000Y7300000D03*
D13*
X23790000Y7300000D03*
G04 #@! TD*
D14*
G04 #@! TO.C,C10*
X86550000Y74775000D03*
X86550000Y73225000D03*
G04 #@! TD*
G04 #@! TO.C,C20*
X86550000Y38775000D03*
X86550000Y37225000D03*
G04 #@! TD*
G04 #@! TO.C,C21*
X14550000Y20775000D03*
X14550000Y19225000D03*
G04 #@! TD*
D20*
G04 #@! TO.C,J1*
X152700000Y75300000D03*
X152700000Y81100000D03*
D21*
X152200000Y82530000D03*
D22*
X156380000Y82530000D03*
X156380000Y73870000D03*
D23*
X150100000Y73170000D03*
D24*
X151440000Y75000000D03*
D23*
X150270000Y73560000D03*
D24*
X151440000Y75800000D03*
D25*
X151440000Y76950000D03*
X151440000Y77950000D03*
X151440000Y78450000D03*
X151440000Y79450000D03*
D24*
X151440000Y81400000D03*
X151440000Y80600000D03*
D25*
X151440000Y79950000D03*
X151440000Y78950000D03*
X151440000Y77450000D03*
X151440000Y76450000D03*
D21*
X152200000Y73870000D03*
G04 #@! TD*
D12*
G04 #@! TO.C,SW5*
X93250000Y79300000D03*
D13*
X95790000Y79300000D03*
G04 #@! TD*
G04 #@! TO.C,SW26*
X113525000Y74800000D03*
X113525000Y68300000D03*
X109025000Y74800000D03*
X109025000Y68300000D03*
G04 #@! TD*
D12*
G04 #@! TO.C,SW1*
X21250000Y79300000D03*
D13*
X23790000Y79300000D03*
G04 #@! TD*
D26*
G04 #@! TO.C,MH4*
X157240000Y5550000D03*
G04 #@! TD*
D14*
G04 #@! TO.C,C16*
X14550000Y38775000D03*
X14550000Y37225000D03*
G04 #@! TD*
D27*
G04 #@! TO.C,R4*
X145975000Y83900000D03*
X147625000Y83900000D03*
G04 #@! TD*
D12*
G04 #@! TO.C,SW23*
X57250000Y7300000D03*
D13*
X59790000Y7300000D03*
G04 #@! TD*
D12*
G04 #@! TO.C,J2*
X135350000Y94600000D03*
D13*
X132810000Y94600000D03*
X130270000Y94600000D03*
X127730000Y94600000D03*
X125190000Y94600000D03*
X122650000Y94600000D03*
G04 #@! TD*
D12*
G04 #@! TO.C,SW8*
X57250000Y61300000D03*
D13*
X59790000Y61300000D03*
G04 #@! TD*
D26*
G04 #@! TO.C,MH1*
X3200000Y94450000D03*
G04 #@! TD*
D28*
G04 #@! TO.C,F1*
X138850000Y82250000D03*
X141650000Y82250000D03*
G04 #@! TD*
D14*
G04 #@! TO.C,C8*
X50550000Y74775000D03*
X50550000Y73225000D03*
G04 #@! TD*
D12*
G04 #@! TO.C,SW4*
X75250000Y79300000D03*
D13*
X77790000Y79300000D03*
G04 #@! TD*
D14*
G04 #@! TO.C,C3*
X50550000Y92775000D03*
X50550000Y91225000D03*
G04 #@! TD*
D29*
G04 #@! TO.C,C28*
X129700000Y58925000D03*
X129700000Y60475000D03*
G04 #@! TD*
D14*
G04 #@! TO.C,C14*
X68550000Y56775000D03*
X68550000Y55225000D03*
G04 #@! TD*
D26*
G04 #@! TO.C,MH2*
X3570000Y5550000D03*
G04 #@! TD*
D12*
G04 #@! TO.C,SW7*
X39250000Y61300000D03*
D13*
X41790000Y61300000D03*
G04 #@! TD*
D30*
G04 #@! TO.C,C29*
X140275000Y59600000D03*
X138725000Y59600000D03*
G04 #@! TD*
D31*
G04 #@! TO.C,C27*
X137395000Y75115000D03*
X134855000Y75115000D03*
G04 #@! TD*
D12*
G04 #@! TO.C,SW13*
X57250000Y43300000D03*
D13*
X59790000Y43300000D03*
G04 #@! TD*
D12*
G04 #@! TO.C,SW18*
X57250000Y25300000D03*
D13*
X59790000Y25300000D03*
G04 #@! TD*
D12*
G04 #@! TO.C,SW22*
X39250000Y7300000D03*
D13*
X41790000Y7300000D03*
G04 #@! TD*
D26*
G04 #@! TO.C,MH3*
X157240000Y94450000D03*
G04 #@! TD*
D14*
G04 #@! TO.C,C17*
X32550000Y38775000D03*
X32550000Y37225000D03*
G04 #@! TD*
D12*
G04 #@! TO.C,SW3*
X57250000Y79300000D03*
D13*
X59790000Y79300000D03*
G04 #@! TD*
D12*
G04 #@! TO.C,SW20*
X93250000Y25300000D03*
D13*
X95790000Y25300000D03*
G04 #@! TD*
D14*
G04 #@! TO.C,C13*
X50550000Y56775000D03*
X50550000Y55225000D03*
G04 #@! TD*
D32*
G04 #@! TO.C,R1*
X125200000Y61500000D03*
X123550000Y61500000D03*
G04 #@! TD*
D14*
G04 #@! TO.C,C2*
X32550000Y92775000D03*
X32550000Y91225000D03*
G04 #@! TD*
D33*
G04 #@! TO.C,R3*
X143300000Y76125000D03*
X143300000Y74475000D03*
G04 #@! TD*
D14*
G04 #@! TO.C,C12*
X32550000Y56775000D03*
X32550000Y55225000D03*
G04 #@! TD*
D12*
G04 #@! TO.C,SW14*
X75250000Y43300000D03*
D13*
X77790000Y43300000D03*
G04 #@! TD*
D14*
G04 #@! TO.C,C6*
X14550000Y74775000D03*
X14550000Y73225000D03*
G04 #@! TD*
G04 #@! TO.C,C18*
X50550000Y38775000D03*
X50550000Y37225000D03*
G04 #@! TD*
D12*
G04 #@! TO.C,SW25*
X93250000Y7300000D03*
D13*
X95790000Y7300000D03*
G04 #@! TD*
D14*
G04 #@! TO.C,C25*
X86550000Y20775000D03*
X86550000Y19225000D03*
G04 #@! TD*
D34*
G04 #@! TO.C,U2*
X137950000Y42670000D03*
X137950000Y41400000D03*
X137950000Y40130000D03*
X137950000Y38860000D03*
X137950000Y37590000D03*
X137950000Y36320000D03*
X137950000Y35050000D03*
X137950000Y33780000D03*
X142900000Y33780000D03*
X142900000Y35050000D03*
X142900000Y36320000D03*
X142900000Y37590000D03*
X142900000Y38860000D03*
X142900000Y40130000D03*
X142900000Y41400000D03*
X142900000Y42670000D03*
G04 #@! TD*
D14*
G04 #@! TO.C,C1*
X14550000Y92775000D03*
X14550000Y91225000D03*
G04 #@! TD*
D30*
G04 #@! TO.C,C30*
X141500000Y46900000D03*
X139950000Y46900000D03*
G04 #@! TD*
D14*
G04 #@! TO.C,C15*
X86550000Y56775000D03*
X86550000Y55225000D03*
G04 #@! TD*
D12*
G04 #@! TO.C,SW9*
X75250000Y61300000D03*
D13*
X77790000Y61300000D03*
G04 #@! TD*
D14*
G04 #@! TO.C,C4*
X68550000Y92775000D03*
X68550000Y91225000D03*
G04 #@! TD*
D12*
G04 #@! TO.C,SW24*
X75250000Y7300000D03*
D13*
X77790000Y7300000D03*
G04 #@! TD*
D12*
G04 #@! TO.C,SW10*
X93250000Y61300000D03*
D13*
X95790000Y61300000D03*
G04 #@! TD*
D14*
G04 #@! TO.C,C11*
X14550000Y56775000D03*
X14550000Y55225000D03*
G04 #@! TD*
D12*
G04 #@! TO.C,SW15*
X93250000Y43300000D03*
D13*
X95790000Y43300000D03*
G04 #@! TD*
D11*
G04 #@! TO.C,D30*
X42062500Y69490000D03*
X42062500Y66210000D03*
G04 #@! TD*
M02*
